<?xml version="1.0" encoding="UTF-8"?>
<svg id="Layer_1" xmlns="http://www.w3.org/2000/svg" version="1.1" viewBox="0 0 32 32">
  <!-- Generator: Adobe Illustrator 29.1.0, SVG Export Plug-In . SVG Version: 2.1.0 Build 142)  -->
  <defs>
    <style>
      .st0 {
        fill: #024927;
      }
    </style>
  </defs>
  <path class="st0" d="M6.8,14c-1.1,2.3-2.3,4.9-2,7.1,1,4.9,5.8,1.9,7.7-1.3,1,0,2-.3,2.8-.8-.2,1.2.2,2.2,1,2.7,2.3,1.2,3.9-1.9,4.7-3.3,0,1.6.8,3.4,2.6,3.1,3.4-.8,4.7-6.3,4.8-8.6.2,0,.4,0,.7,0,.2.9.3,1.9.3,2.9,0,7.4-6,13.4-13.4,13.4S2.6,23.4,2.6,16s0-.5,0-.7c1.1,0,3.1-.8,4.2-1.3M9.1,15.5c1.2-1.2,3-1.3,2.6.7,0,1.3-1.8,3.9-2.1,4.2-.6.7-1.6,1.6-2.4,1.5-.3,0-.5-.2-.6-.4-.6-1.5,1.3-5,2.3-5.8h0s.2-.2.2-.2ZM26.6,13c0,1.6-1.6,6-3.2,6.4-.4,0-.6-.4-.7-.9-.2-1.6,0-2.2.7-3.3.1-.3.3-.6.4-.9.4-.8,0-1.8-.8-1.7-.7,0-.9.4-1.2,1.2-1.4,3-3.5,6-4.1,6.1-.7-.6.8-4.9,1.4-6.3.5-1.2,1.3-1.6,1.2-2.1,0-.5-.7-1.1-1.4-1-.6,0-1.1.5-2,2.7-.4.9-.9,2.5-1.2,4-.4.4-1.3,1-2.3,1.1.7-2,1-3.4-.2-4.9-1.3-1.4-2.8-.4-4.1.8,1.2-2.4,2-4,3.3-5.7.5-.7,0-1.6-.9-1.6-1,0-1.1.5-2.4,2.8-1.6,3-4.5,3.1-6.2,3.7,1.3-6.1,6.7-10.6,13.1-10.6s10.6,3.6,12.5,8.6c-.4,0-.9,0-1.3,0-.9.1-.7,1.2-.6,1.9M26.8,5.2c-2.8-2.8-6.6-4.5-10.8-4.5S8,2.5,5.2,5.2C2.5,8,.8,11.8.8,16s1.7,8,4.5,10.8c2.8,2.8,6.6,4.5,10.8,4.5s8-1.7,10.8-4.5c2.8-2.8,4.5-6.6,4.5-10.8s-1.7-8-4.5-10.8"/>
</svg>