<?xml version="1.0" encoding="UTF-8"?>
<svg xmlns="http://www.w3.org/2000/svg" version="1.1" viewBox="0 0 136.9 200.1">
  <defs>
    <style>
      .cls-1 {
        fill: #243b3b;
      }
    </style>
  </defs>
  <!-- Generator: Adobe Illustrator 28.7.1, SVG Export Plug-In . SVG Version: 1.2.0 Build 142)  -->
  <g>
    <g id="Layer_1">
      <g id="Logo">
        <g>
          <g>
            <path class="cls-1" d="M48.3,66.9h20c4.9,0,11.3,0,14.6,2,3.6,2.2,6.5,6.1,6.5,11.5s-3.1,10.3-8.2,12.3v.2c6.8,1.4,10.5,6.5,10.5,13.3s-5.8,15.8-16.7,15.8h-26.6v-55.1ZM55.6,90.6h14.7c8.3,0,11.7-3,11.7-8.8s-5.4-8.7-11.7-8.7h-14.7v17.5ZM55.6,115.8h18.4c6.3,0,10.3-3.9,10.3-9.9s-5.8-9.2-12-9.2h-16.8v19.1Z"/>
            <path class="cls-1" d="M110.4,94.5c0,23.1-18.8,41.9-41.9,41.9s-41.9-18.8-41.9-41.9,18.8-41.9,41.9-41.9c23.1,0,41.9,18.8,41.9,41.9ZM68.5,46.2c-26.7,0-48.3,21.6-48.3,48.3s21.6,48.3,48.3,48.3,48.3-21.6,48.3-48.3c0-26.7-21.6-48.3-48.3-48.3Z"/>
          </g>
          <g>
            <rect class="cls-1" x="20.3" y="152.9" width="96.3" height="6.3"/>
            <path class="cls-1" d="M113.6,145.9c.1,0,.2,0,.3,0,0,0,.2,0,.3,0,0,0,.2-.1.2-.2,0,0,0-.2,0-.3s0-.2,0-.3c0,0,0-.1-.2-.1,0,0-.1,0-.2,0,0,0-.2,0-.3,0h-.7v1.1h.5ZM113.8,144.4c.4,0,.7,0,.9.2.2.2.3.4.3.7s0,.5-.2.7c-.2.1-.4.2-.6.2l1,1.5h-.6l-.9-1.4h-.6v1.4h-.5v-3.4h1.3ZM111.5,147.1c.1.3.3.6.5.8.2.2.5.4.8.5.3.1.6.2.9.2s.7,0,.9-.2c.3-.1.5-.3.8-.5s.4-.5.5-.8c.1-.3.2-.6.2-1s0-.7-.2-1c-.1-.3-.3-.6-.5-.8-.2-.2-.5-.4-.8-.5s-.6-.2-.9-.2-.7,0-.9.2c-.3.1-.6.3-.8.5-.2.2-.4.5-.5.8s-.2.6-.2,1c0,.3,0,.7.2,1M111,145c.2-.4.4-.6.6-.9s.6-.4.9-.6c.3-.1.7-.2,1.1-.2s.8,0,1.1.2c.3.1.7.3.9.6.3.3.5.6.6.9.2.4.2.7.2,1.1s0,.8-.2,1.1c-.2.4-.4.7-.6.9-.3.3-.6.5-.9.6-.4.1-.7.2-1.1.2s-.8,0-1.1-.2c-.3-.1-.7-.3-.9-.6-.3-.3-.5-.6-.6-.9-.2-.4-.2-.7-.2-1.1,0-.4,0-.8.2-1.1"/>
          </g>
          <g>
            <path class="cls-1" d="M32,25c-.2-.4-.5-.7-.9-1-.3-.3-.7-.5-1.2-.6-.4-.1-.9-.2-1.4-.2-.9,0-1.6.2-2.2.5-.6.3-1.1.8-1.5,1.3-.4.6-.6,1.2-.8,1.9s-.3,1.5-.3,2.2,0,1.4.3,2.1c.2.7.4,1.3.8,1.9.4.5.9,1,1.5,1.3.6.3,1.3.5,2.2.5s2.1-.4,2.7-1.1c.7-.7,1.1-1.7,1.2-2.8h3.7c0,1.1-.3,2.1-.8,2.9-.4.9-.9,1.6-1.6,2.2-.7.6-1.5,1.1-2.3,1.4-.9.3-1.9.5-3,.5s-2.5-.2-3.6-.7c-1.1-.5-2-1.1-2.7-1.9-.7-.8-1.3-1.8-1.7-2.9-.4-1.1-.6-2.3-.6-3.5s.2-2.5.6-3.6c.4-1.1,1-2.1,1.7-2.9.7-.8,1.6-1.5,2.7-2,1.1-.5,2.3-.7,3.6-.7s1.9.1,2.7.4c.9.3,1.6.7,2.3,1.2.7.5,1.2,1.2,1.7,2,.4.8.7,1.7.8,2.7h-3.7c0-.4-.2-.8-.4-1.2Z"/>
            <path class="cls-1" d="M41.3,34.7c.5.5,1.3.8,2.2.8s1.3-.2,1.8-.5c.5-.3.8-.7.9-1.1h3c-.5,1.5-1.2,2.6-2.2,3.2s-2.2,1-3.7,1-1.9-.2-2.7-.5c-.8-.3-1.5-.8-2-1.3-.5-.6-1-1.3-1.3-2.1-.3-.8-.5-1.7-.5-2.7s.2-1.8.5-2.6c.3-.8.8-1.5,1.3-2.1s1.2-1.1,2-1.4,1.7-.5,2.6-.5,2,.2,2.8.6c.8.4,1.5,1,2,1.7s.9,1.5,1.1,2.4.3,1.8.2,2.8h-9.1c0,1.1.3,1.9.9,2.4ZM45.2,28.1c-.4-.5-1-.7-1.9-.7s-1,0-1.4.3c-.4.2-.7.4-.9.7-.2.3-.4.6-.5.9s-.1.6-.2.8h5.6c-.2-.9-.5-1.5-.9-2Z"/>
            <path class="cls-1" d="M54.4,25.1v2.3h0c.2-.4.4-.8.7-1.1.3-.3.6-.6,1-.9s.7-.4,1.2-.5.8-.2,1.3-.2.5,0,.8.1v3.2c-.2,0-.4,0-.6,0s-.5,0-.7,0c-.6,0-1.2.1-1.6.3-.4.2-.8.5-1.1.9s-.5.8-.6,1.3-.2,1-.2,1.6v5.7h-3.5v-12.6h3.3Z"/>
            <path class="cls-1" d="M68.5,25.1v2.3h-2.5v6.2c0,.6,0,1,.3,1.2s.6.3,1.2.3.4,0,.6,0c.2,0,.3,0,.5,0v2.7c-.3,0-.6,0-1,0-.4,0-.7,0-1.1,0-.5,0-1.1,0-1.5-.1-.5,0-.9-.2-1.3-.4-.4-.2-.7-.5-.9-.9-.2-.4-.3-.9-.3-1.5v-7.4h-2.1v-2.3h2.1v-3.8h3.5v3.8h2.6Z"/>
            <path class="cls-1" d="M70.5,23.2v-2.9h3.5v2.9h-3.5ZM73.9,25.1v12.6h-3.5v-12.6h3.5Z"/>
            <path class="cls-1" d="M75.3,27.5v-2.3h2.1v-1c0-1.1.3-2,1.1-2.8.7-.7,1.8-1.1,3.2-1.1s.6,0,.9,0c.3,0,.6,0,.9,0v2.6c-.4,0-.8,0-1.3,0s-.8.1-1,.3c-.2.2-.3.6-.3,1.1v.8h2.4v2.3h-2.4v10.3h-3.5v-10.3h-2.1Z"/>
            <path class="cls-1" d="M85.6,23.2v-2.9h3.5v2.9h-3.5ZM89.1,25.1v12.6h-3.5v-12.6h3.5Z"/>
            <path class="cls-1" d="M94.5,34.7c.5.5,1.3.8,2.2.8s1.3-.2,1.8-.5c.5-.3.8-.7.9-1.1h3.1c-.5,1.5-1.2,2.6-2.2,3.2-1,.7-2.2,1-3.7,1s-1.9-.2-2.7-.5c-.8-.3-1.5-.8-2-1.3-.6-.6-1-1.3-1.3-2.1-.3-.8-.4-1.7-.4-2.7s.2-1.8.5-2.6c.3-.8.8-1.5,1.3-2.1s1.2-1.1,2-1.4,1.7-.5,2.6-.5,2,.2,2.8.6c.8.4,1.4,1,2,1.7s.9,1.5,1.1,2.4.3,1.8.2,2.8h-9.1c0,1.1.3,1.9.8,2.4ZM98.4,28.1c-.4-.5-1.1-.7-1.9-.7s-1,0-1.4.3c-.4.2-.7.4-.9.7-.2.3-.4.6-.5.9s-.1.6-.2.8h5.6c-.2-.9-.4-1.5-.9-2Z"/>
            <path class="cls-1" d="M113.3,36.1c-.4.7-.9,1.2-1.6,1.5-.7.3-1.4.5-2.2.5s-1.8-.2-2.5-.5-1.3-.9-1.8-1.5-.8-1.3-1.1-2.2c-.2-.8-.3-1.7-.3-2.5s.1-1.7.3-2.5c.2-.8.6-1.5,1.1-2.1.5-.6,1.1-1.1,1.7-1.5.7-.4,1.5-.5,2.4-.5s1.5.2,2.1.5c.7.3,1.2.8,1.6,1.4h0v-6.3h3.5v17.4h-3.3v-1.6s0,0,0,0ZM113.2,29.9c0-.5-.3-.9-.5-1.3s-.5-.7-.9-.9c-.4-.2-.8-.3-1.4-.3s-1.1.1-1.4.3-.7.5-.9.9c-.2.4-.4.8-.5,1.3-.1.5-.2,1-.2,1.5s0,1,.2,1.5c.1.5.3.9.6,1.3.2.4.6.7.9.9s.8.3,1.4.3,1-.1,1.4-.3c.4-.2.7-.5.9-.9.2-.4.4-.8.5-1.3,0-.5.2-1,.2-1.5,0-.5,0-1-.2-1.5Z"/>
          </g>
          <g>
            <path class="cls-1" d="M28.8,171.7c-.2-1.2-1.3-2.1-2.7-2.1-2.4,0-3.3,2.1-3.3,4.2s.9,4.1,3.3,4.1,2.6-1.1,2.8-2.8h2.6c-.3,3.1-2.4,5-5.4,5s-6-2.8-6-6.4,2.2-6.5,6-6.5,5,1.6,5.3,4.4h-2.6Z"/>
            <path class="cls-1" d="M37.1,170.7c2.8,0,4.6,1.9,4.6,4.7s-1.8,4.7-4.6,4.7-4.6-1.9-4.6-4.7,1.8-4.7,4.6-4.7ZM37.1,178.2c1.7,0,2.2-1.4,2.2-2.8s-.5-2.9-2.2-2.9-2.2,1.4-2.2,2.9c0,1.4.5,2.8,2.2,2.8Z"/>
            <path class="cls-1" d="M43.2,170.9h2.3v1.6h0c.4-1.1,1.7-1.9,2.8-1.9s.4,0,.5,0v2.3c-.2,0-.6,0-.9,0-1.8,0-2.4,1.3-2.4,2.9v4h-2.4v-8.9Z"/>
            <path class="cls-1" d="M49.9,170.9h2.3v1.1h0c.6-.9,1.5-1.4,2.6-1.4,2.8,0,4,2.2,4,4.8s-1.3,4.6-3.9,4.6-2.1-.5-2.7-1.3h0v4.2h-2.4v-12h0ZM56.5,175.4c0-1.4-.6-2.9-2.1-2.9s-2.1,1.4-2.1,2.9.5,2.8,2.1,2.8,2.1-1.4,2.1-2.8Z"/>
            <path class="cls-1" d="M64.3,170.7c2.8,0,4.6,1.9,4.6,4.7s-1.8,4.7-4.6,4.7-4.6-1.9-4.6-4.7c0-2.8,1.8-4.7,4.6-4.7ZM64.3,178.2c1.7,0,2.2-1.4,2.2-2.8s-.5-2.9-2.2-2.9-2.2,1.4-2.2,2.9c0,1.4.5,2.8,2.2,2.8Z"/>
            <path class="cls-1" d="M70.4,170.9h2.3v1.6h0c.4-1.1,1.7-1.9,2.8-1.9s.4,0,.5,0v2.3c-.2,0-.6,0-.9,0-1.8,0-2.4,1.3-2.4,2.9v4h-2.4v-8.9h0Z"/>
            <path class="cls-1" d="M76.8,173.7c.1-2.3,2.2-3,4.2-3s3.9.4,3.9,2.5v4.6c0,.8,0,1.6.3,2h-2.5c0-.3-.2-.6-.2-.9-.8.8-1.9,1.1-3,1.1-1.7,0-3-.8-3-2.7s1.5-2.5,3-2.7c1.5-.2,2.9-.2,2.9-1.2s-.7-1.2-1.6-1.2-1.5.4-1.6,1.3h-2.4ZM82.5,175.5c-.4.4-1.3.4-2,.5-.8.1-1.4.4-1.4,1.3s.7,1.1,1.5,1.1c1.9,0,2-1.5,2-2v-.9h0Z"/>
            <path class="cls-1" d="M89.8,170.9h1.8v1.6h-1.8v4.4c0,.8.2,1,1,1s.5,0,.8,0v1.9c-.4,0-.9,0-1.4,0-1.5,0-2.8-.4-2.8-2.1v-5.2h-1.5v-1.6h1.5v-2.7h2.4v2.7Z"/>
            <path class="cls-1" d="M95.9,169.6h-2.4v-2h2.4v2ZM93.5,170.9h2.4v8.9h-2.4v-8.9Z"/>
            <path class="cls-1" d="M102.1,170.7c2.8,0,4.6,1.9,4.6,4.7s-1.8,4.7-4.6,4.7-4.6-1.9-4.6-4.7,1.8-4.7,4.6-4.7ZM102.1,178.2c1.7,0,2.2-1.4,2.2-2.8s-.5-2.9-2.2-2.9-2.2,1.4-2.2,2.9.5,2.8,2.2,2.8Z"/>
            <path class="cls-1" d="M108.3,170.9h2.3v1.2h0c.6-1,1.7-1.5,2.7-1.5,2.6,0,3.2,1.5,3.2,3.7v5.5h-2.4v-5c0-1.5-.4-2.2-1.6-2.2s-1.9.7-1.9,2.6v4.7h-2.4v-8.9h0Z"/>
          </g>
        </g>
      </g>
    </g>
  </g>
</svg>