<?xml version="1.0" encoding="UTF-8"?><svg id="Layer_1" xmlns="http://www.w3.org/2000/svg" viewBox="0 0 96.7 163"><defs><style>.cls-1{fill:#fff;}</style></defs><g id="Logo"><path class="cls-1" d="M28.2,47h20c4.9,0,11.3,0,14.6,2,3.6,2.2,6.5,6.1,6.5,11.5s-3.1,10.3-8.2,12.3v.2c6.8,1.4,10.5,6.5,10.5,13.3s-5.8,15.8-16.7,15.8h-26.6v-55.1ZM35.6,70.7h14.7c8.3,0,11.7-3,11.7-8.8s-5.4-8.7-11.7-8.7h-14.7v17.5ZM35.6,95.9h18.4c6.3,0,10.3-3.9,10.3-9.9s-5.8-9.2-12-9.2h-16.8v19.1Z"/><path class="cls-1" d="M90.3,74.6c0,23.1-18.8,41.9-41.9,41.9S6.5,97.7,6.5,74.6s18.8-41.9,41.9-41.9c23.1,0,41.9,18.8,41.9,41.9ZM48.4,26.3C21.8,26.3.2,47.9.2,74.5s21.6,48.3,48.3,48.3,48.3-21.6,48.3-48.3c0-26.7-21.6-48.3-48.3-48.3Z"/><rect class="cls-1" x=".3" y="133" width="96.3" height="6.3"/><path class="cls-1" d="M93.6,126c.1,0,.2,0,.3,0,0,0,.2,0,.3,0,0,0,.2-.1.2-.2,0,0,0-.2,0-.3s0-.2,0-.3c0,0,0-.1-.2-.1,0,0-.1,0-.2,0,0,0-.2,0-.3,0h-.7v1.1h.5ZM93.8,124.5c.4,0,.7,0,.9.2.2.2.3.4.3.7s0,.5-.2.7c-.2.1-.4.2-.6.2l1,1.5h-.6l-.9-1.4h-.6v1.4h-.5v-3.4h1.3ZM91.4,127.2c.1.3.3.6.5.8.2.2.5.4.8.5.3.1.6.2.9.2s.7,0,.9-.2c.3-.1.5-.3.8-.5s.4-.5.5-.8c.1-.3.2-.6.2-1s0-.7-.2-1c-.1-.3-.3-.6-.5-.8-.2-.2-.5-.4-.8-.5s-.6-.2-.9-.2-.7,0-.9.2c-.3.1-.6.3-.8.5-.2.2-.4.5-.5.8s-.2.6-.2,1c0,.3,0,.7.2,1M91,125.1c.2-.4.4-.6.6-.9s.6-.4.9-.6c.3-.1.7-.2,1.1-.2s.8,0,1.1.2c.3.1.7.3.9.6.3.3.5.6.6.9.2.4.2.7.2,1.1s0,.8-.2,1.1c-.2.4-.4.7-.6.9-.3.3-.6.5-.9.6-.4.1-.7.2-1.1.2s-.8,0-1.1-.2c-.3-.1-.7-.3-.9-.6-.3-.3-.5-.6-.6-.9-.2-.4-.2-.7-.2-1.1,0-.4,0-.8.2-1.1"/><path class="cls-1" d="M11.9,5.1c-.2-.4-.5-.7-.9-1-.3-.3-.7-.5-1.2-.6-.4-.1-.9-.2-1.4-.2-.9,0-1.6.2-2.2.5-.6.3-1.1.8-1.5,1.3-.4.6-.6,1.2-.8,1.9s-.3,1.5-.3,2.2,0,1.4.3,2.1c.2.7.4,1.3.8,1.9.4.5.9,1,1.5,1.3.6.3,1.3.5,2.2.5s2.1-.4,2.7-1.1c.7-.7,1.1-1.7,1.2-2.8h3.7c0,1.1-.3,2.1-.8,2.9-.4.9-.9,1.6-1.6,2.2-.7.6-1.5,1.1-2.3,1.4-.9.3-1.9.5-3,.5s-2.5-.2-3.6-.7c-1.1-.5-2-1.1-2.7-1.9-.7-.8-1.3-1.8-1.7-2.9C.2,11.6,0,10.5,0,9.2s.2-2.5.6-3.6c.4-1.1,1-2.1,1.7-2.9.7-.8,1.6-1.5,2.7-2,1.1-.5,2.3-.7,3.6-.7s1.9.1,2.7.4c.9.3,1.6.7,2.3,1.2.7.5,1.2,1.2,1.7,2,.4.8.7,1.7.8,2.7h-3.7c0-.4-.2-.8-.4-1.2Z"/><path class="cls-1" d="M21.2,14.8c.5.5,1.3.8,2.2.8s1.3-.2,1.8-.5c.5-.3.8-.7.9-1.1h3c-.5,1.5-1.2,2.6-2.2,3.2s-2.2,1-3.7,1-1.9-.2-2.7-.5c-.8-.3-1.5-.8-2-1.3-.5-.6-1-1.3-1.3-2.1-.3-.8-.5-1.7-.5-2.7s.2-1.8.5-2.6c.3-.8.8-1.5,1.3-2.1s1.2-1.1,2-1.4,1.7-.5,2.6-.5,2,.2,2.8.6c.8.4,1.5,1,2,1.7s.9,1.5,1.1,2.4.3,1.8.2,2.8h-9.1c0,1.1.3,1.9.9,2.4ZM25.1,8.2c-.4-.5-1-.7-1.9-.7s-1,0-1.4.3c-.4.2-.7.4-.9.7-.2.3-.4.6-.5.9s-.1.6-.2.8h5.6c-.2-.9-.5-1.5-.9-2Z"/><path class="cls-1" d="M34.3,5.2v2.3h0c.2-.4.4-.8.7-1.1.3-.3.6-.6,1-.9s.7-.4,1.2-.5.8-.2,1.3-.2.5,0,.8.1v3.2c-.2,0-.4,0-.6,0s-.5,0-.7,0c-.6,0-1.2.1-1.6.3-.4.2-.8.5-1.1.9s-.5.8-.6,1.3-.2,1-.2,1.6v5.7h-3.5V5.2h3.3Z"/><path class="cls-1" d="M48.4,5.2v2.3h-2.5v6.2c0,.6,0,1,.3,1.2s.6.3,1.2.3.4,0,.6,0c.2,0,.3,0,.5,0v2.7c-.3,0-.6,0-1,0-.4,0-.7,0-1.1,0-.5,0-1.1,0-1.5-.1-.5,0-.9-.2-1.3-.4-.4-.2-.7-.5-.9-.9-.2-.4-.3-.9-.3-1.5v-7.4h-2.1v-2.3h2.1V1.4h3.5v3.8h2.6Z"/><path class="cls-1" d="M50.4,3.3V.4h3.5v2.9h-3.5ZM53.9,5.2v12.6h-3.5V5.2h3.5Z"/><path class="cls-1" d="M55.3,7.5v-2.3h2.1v-1c0-1.1.3-2,1.1-2.8.7-.7,1.8-1.1,3.2-1.1s.6,0,.9,0c.3,0,.6,0,.9,0v2.6c-.4,0-.8,0-1.3,0s-.8.1-1,.3c-.2.2-.3.6-.3,1.1v.8h2.4v2.3h-2.4v10.3h-3.5V7.5h-2.1Z"/><path class="cls-1" d="M65.6,3.3V.4h3.5v2.9h-3.5ZM69,5.2v12.6h-3.5V5.2h3.5Z"/><path class="cls-1" d="M74.5,14.8c.5.5,1.3.8,2.2.8s1.3-.2,1.8-.5c.5-.3.8-.7.9-1.1h3.1c-.5,1.5-1.2,2.6-2.2,3.2-1,.7-2.2,1-3.7,1s-1.9-.2-2.7-.5c-.8-.3-1.5-.8-2-1.3-.6-.6-1-1.3-1.3-2.1-.3-.8-.4-1.7-.4-2.7s.2-1.8.5-2.6c.3-.8.8-1.5,1.3-2.1s1.2-1.1,2-1.4,1.7-.5,2.6-.5,2,.2,2.8.6c.8.4,1.4,1,2,1.7s.9,1.5,1.1,2.4.3,1.8.2,2.8h-9.1c0,1.1.3,1.9.8,2.4ZM78.4,8.2c-.4-.5-1.1-.7-1.9-.7s-1,0-1.4.3c-.4.2-.7.4-.9.7-.2.3-.4.6-.5.9s-.1.6-.2.8h5.6c-.2-.9-.4-1.5-.9-2Z"/><path class="cls-1" d="M93.3,16.2c-.4.7-.9,1.2-1.6,1.5-.7.3-1.4.5-2.2.5s-1.8-.2-2.5-.5-1.3-.9-1.8-1.5-.8-1.3-1.1-2.2c-.2-.8-.3-1.7-.3-2.5s.1-1.7.3-2.5c.2-.8.6-1.5,1.1-2.1.5-.6,1.1-1.1,1.7-1.5.7-.4,1.5-.5,2.4-.5s1.5.2,2.1.5c.7.3,1.2.8,1.6,1.4h0V.4h3.5v17.4h-3.3v-1.6s0,0,0,0ZM93.1,10c0-.5-.3-.9-.5-1.3s-.5-.7-.9-.9c-.4-.2-.8-.3-1.4-.3s-1.1.1-1.4.3-.7.5-.9.9c-.2.4-.4.8-.5,1.3-.1.5-.2,1-.2,1.5s0,1,.2,1.5c.1.5.3.9.6,1.3.2.4.6.7.9.9s.8.3,1.4.3,1-.1,1.4-.3c.4-.2.7-.5.9-.9.2-.4.4-.8.5-1.3,0-.5.2-1,.2-1.5,0-.5,0-1-.2-1.5Z"/><path class="cls-1" d="M8.7,151.7c-.2-1.2-1.3-2.1-2.7-2.1-2.4,0-3.3,2.1-3.3,4.2s.9,4.1,3.3,4.1,2.6-1.1,2.8-2.8h2.6c-.3,3.1-2.4,5-5.4,5s-6-2.8-6-6.4,2.2-6.5,6-6.5,5,1.6,5.3,4.4h-2.6Z"/><path class="cls-1" d="M17.1,150.8c2.8,0,4.6,1.9,4.6,4.7s-1.8,4.7-4.6,4.7-4.6-1.9-4.6-4.7,1.8-4.7,4.6-4.7ZM17.1,158.3c1.7,0,2.2-1.4,2.2-2.8s-.5-2.9-2.2-2.9-2.2,1.4-2.2,2.9c0,1.4.5,2.8,2.2,2.8Z"/><path class="cls-1" d="M23.2,151h2.3v1.6h0c.4-1.1,1.7-1.9,2.8-1.9s.4,0,.5,0v2.3c-.2,0-.6,0-.9,0-1.8,0-2.4,1.3-2.4,2.9v4h-2.4v-8.9Z"/><path class="cls-1" d="M29.8,151h2.3v1.1h0c.6-.9,1.5-1.4,2.6-1.4,2.8,0,4,2.2,4,4.8s-1.3,4.6-3.9,4.6-2.1-.5-2.7-1.3h0v4.2h-2.4v-12h0ZM36.4,155.5c0-1.4-.6-2.9-2.1-2.9s-2.1,1.4-2.1,2.9.5,2.8,2.1,2.8,2.1-1.4,2.1-2.8Z"/><path class="cls-1" d="M44.2,150.8c2.8,0,4.6,1.9,4.6,4.7s-1.8,4.7-4.6,4.7-4.6-1.9-4.6-4.7c0-2.8,1.8-4.7,4.6-4.7ZM44.2,158.3c1.7,0,2.2-1.4,2.2-2.8s-.5-2.9-2.2-2.9-2.2,1.4-2.2,2.9c0,1.4.5,2.8,2.2,2.8Z"/><path class="cls-1" d="M50.3,151h2.3v1.6h0c.4-1.1,1.7-1.9,2.8-1.9s.4,0,.5,0v2.3c-.2,0-.6,0-.9,0-1.8,0-2.4,1.3-2.4,2.9v4h-2.4v-8.9h0Z"/><path class="cls-1" d="M56.8,153.7c.1-2.3,2.2-3,4.2-3s3.9.4,3.9,2.5v4.6c0,.8,0,1.6.3,2h-2.5c0-.3-.2-.6-.2-.9-.8.8-1.9,1.1-3,1.1-1.7,0-3-.8-3-2.7s1.5-2.5,3-2.7c1.5-.2,2.9-.2,2.9-1.2s-.7-1.2-1.6-1.2-1.5.4-1.6,1.3h-2.4ZM62.4,155.5c-.4.4-1.3.4-2,.5-.8.1-1.4.4-1.4,1.3s.7,1.1,1.5,1.1c1.9,0,2-1.5,2-2v-.9h0Z"/><path class="cls-1" d="M69.8,151h1.8v1.6h-1.8v4.4c0,.8.2,1,1,1s.5,0,.8,0v1.9c-.4,0-.9,0-1.4,0-1.5,0-2.8-.4-2.8-2.1v-5.2h-1.5v-1.6h1.5v-2.7h2.4v2.7Z"/><path class="cls-1" d="M75.9,149.6h-2.4v-2h2.4v2ZM73.4,151h2.4v8.9h-2.4v-8.9Z"/><path class="cls-1" d="M82.1,150.8c2.8,0,4.6,1.9,4.6,4.7s-1.8,4.7-4.6,4.7-4.6-1.9-4.6-4.7,1.8-4.7,4.6-4.7ZM82.1,158.3c1.7,0,2.2-1.4,2.2-2.8s-.5-2.9-2.2-2.9-2.2,1.4-2.2,2.9.5,2.8,2.2,2.8Z"/><path class="cls-1" d="M88.3,151h2.3v1.2h0c.6-1,1.7-1.5,2.7-1.5,2.6,0,3.2,1.5,3.2,3.7v5.5h-2.4v-5c0-1.5-.4-2.2-1.6-2.2s-1.9.7-1.9,2.6v4.7h-2.4v-8.9h0Z"/></g></svg>