<?xml version="1.0" encoding="UTF-8"?>
<svg id="Layer_1" xmlns="http://www.w3.org/2000/svg" version="1.1" viewBox="0 0 110.1 110.1">
  <!-- Generator: Adobe Illustrator 29.0.1, SVG Export Plug-In . SVG Version: 2.1.0 Build 192)  -->
  <defs>
    <style>
      .st0 {
        fill: #cccccb;
      }

      .st1 {
        fill: #231f20;
        font-family: UntitledSans-Medium, 'UntitledSans Medium';
        font-size: 12px;
        font-weight: 500;
      }

      .st2 {
        fill: #fff;
      }

      .st3 {
        fill: #232323;
      }
    </style>
  </defs>
  <path class="st3" d="M-782.5,57.9c-4.1,8.4-8.2,17.9-7.1,25.8,3.7,17.8,21,7,27.7-4.7,3.6,0,7.1-1.1,10.2-2.9-.8,4.5.8,8,3.8,9.9,8.4,4.5,14-7,16.9-12,0,5.7,3.1,12.2,9.4,11.3,12.3-2.8,17.1-22.7,17.3-31.1.7,0,1.5.1,2.4.1.8,3.4,1.2,7,1.2,10.6,0,26.8-21.7,48.5-48.5,48.5s-48.5-21.7-48.5-48.5,0-1.6,0-2.4c3.9-.2,11.1-2.7,15.1-4.7M-774,63.1c4.5-4.2,10.7-4.6,9.3,2.4-.3,4.7-6.7,14-7.8,15.2-2.3,2.5-5.7,5.8-8.6,5.6-.9,0-1.7-.7-2.1-1.6-2-5.4,4.8-18.2,8.5-21h0s.7-.5.7-.5ZM-710.8,54.2c.3,5.7-5.7,21.8-11.5,23.1-1.6,0-2.1-1.4-2.4-3.2-.8-5.7.4-8,2.4-12.1.5-.9,1-2,1.6-3.2,1.3-2.9.3-6.7-3-6.2-2.4.3-3.2,1.6-4.4,4.3-5.2,10.9-12.5,21.8-14.9,22.2-2.4-2.3,2.9-17.8,5.1-22.9,1.9-4.4,4.7-5.6,4.4-7.5-.2-1.7-2.7-4-5.2-3.7-2.1.3-3.9,1.9-7.3,9.7-1.4,3.2-3.1,9-4.3,14.5-1.6,1.5-4.5,3.6-8.3,4,2.6-7.2,3.6-12.3-.9-17.6-4.8-5-10.1-1.4-14.9,2.7,4.4-8.8,7.4-14.3,12-20.8,1.8-2.5-.2-6-3.2-5.7-3.7.3-3.9,1.7-8.5,10-6,10.9-16.3,11.4-22.3,13.4,4.6-21.9,24.1-38.4,47.4-38.4s38.4,13,45.3,31.2c-1.4,0-3.1-.2-4.8-.4-3.1.5-2.5,4.4-2.2,6.7M-710.2,26.1c-10-10-23.7-16.1-38.9-16.1s-29,6.2-38.9,16.1c-10,10-16.1,23.7-16.1,38.9s6.2,29,16.1,38.9c10,10,23.7,16.1,38.9,16.1s29-6.2,38.9-16.1c10-10,16.1-23.7,16.1-38.9s-6.2-29-16.1-38.9"/>
  <path class="st0" d="M-612.8,57.9c-4.1,8.4-8.2,17.9-7.1,25.8,3.7,17.8,21,7,27.7-4.7,3.6,0,7.1-1.1,10.2-2.9-.8,4.5.8,8,3.8,9.9,8.4,4.5,14-7,16.9-12,0,5.7,3.1,12.2,9.4,11.3,12.3-2.8,17.1-22.7,17.3-31.1.7,0,1.5.1,2.4.1.8,3.4,1.2,7,1.2,10.6,0,26.8-21.7,48.5-48.5,48.5s-48.5-21.7-48.5-48.5,0-1.6,0-2.4c3.9-.2,11.1-2.7,15.1-4.7M-604.3,63.1c4.5-4.2,10.7-4.6,9.3,2.4-.3,4.7-6.7,14-7.8,15.2-2.3,2.5-5.7,5.8-8.6,5.6-.9,0-1.7-.7-2.1-1.6-2-5.4,4.8-18.2,8.5-21h0s.7-.5.7-.5ZM-541.2,54.2c.3,5.7-5.7,21.8-11.5,23.1-1.6,0-2.1-1.4-2.4-3.2-.8-5.7.4-8,2.4-12.1.5-.9,1-2,1.6-3.2,1.3-2.9.3-6.7-3-6.2-2.4.3-3.2,1.6-4.4,4.3-5.2,10.9-12.5,21.8-14.9,22.2-2.4-2.3,2.9-17.8,5.1-22.9,1.9-4.4,4.7-5.6,4.4-7.5-.2-1.7-2.7-4-5.2-3.7-2.1.3-3.9,1.9-7.3,9.7-1.4,3.2-3.1,9-4.3,14.5-1.6,1.5-4.5,3.6-8.3,4,2.6-7.2,3.6-12.3-.9-17.6-4.8-5-10.1-1.4-14.9,2.7,4.4-8.8,7.4-14.3,12-20.8,1.8-2.5-.2-6-3.2-5.7-3.7.3-3.9,1.7-8.5,10-6,10.9-16.3,11.4-22.3,13.4,4.6-21.9,24.1-38.4,47.4-38.4s38.4,13,45.3,31.2c-1.4,0-3.1-.2-4.8-.4-3.1.5-2.5,4.4-2.2,6.7M-540.5,26.1c-10-10-23.7-16.1-38.9-16.1s-29,6.2-38.9,16.1c-10,10-16.1,23.7-16.1,38.9s6.2,29,16.1,38.9c10,10,23.7,16.1,38.9,16.1s29-6.2,38.9-16.1c10-10,16.1-23.7,16.1-38.9s-6.2-29-16.1-38.9"/>
  <path class="st2" d="M21.7,48c-4.1,8.4-8.2,17.9-7.1,25.8,3.7,17.8,21,7,27.7-4.7,3.6,0,7.1-1.1,10.2-2.9-.8,4.5.8,8,3.8,9.9,8.4,4.5,14-7,16.9-12,0,5.7,3.1,12.2,9.4,11.3,12.3-2.8,17.1-22.7,17.3-31.1.7,0,1.5.1,2.4.1.8,3.4,1.2,7,1.2,10.6,0,26.8-21.7,48.5-48.5,48.5S6.6,81.8,6.6,55.1s0-1.6,0-2.4c3.9-.2,11.1-2.7,15.1-4.7M30.2,53.1c4.5-4.2,10.7-4.6,9.3,2.4-.3,4.7-6.7,14-7.8,15.2-2.3,2.5-5.7,5.8-8.6,5.6-.9,0-1.7-.7-2.1-1.6-2-5.4,4.8-18.2,8.5-21h0s.7-.5.7-.5ZM93.4,44.2c.3,5.7-5.7,21.8-11.5,23.1-1.6,0-2.1-1.4-2.4-3.2-.8-5.7.4-8,2.4-12.1.5-.9,1-2,1.6-3.2,1.3-2.9.3-6.7-3-6.2-2.4.3-3.2,1.6-4.4,4.3-5.2,10.9-12.5,21.8-14.9,22.2-2.4-2.3,2.9-17.8,5.1-22.9,1.9-4.4,4.7-5.6,4.4-7.5-.2-1.7-2.7-4-5.2-3.7-2.1.3-3.9,1.9-7.3,9.7-1.4,3.2-3.1,9-4.3,14.5-1.6,1.5-4.5,3.6-8.3,4,2.6-7.2,3.6-12.3-.9-17.6-4.8-5-10.1-1.4-14.9,2.7,4.4-8.8,7.4-14.3,12-20.8,1.8-2.5-.2-6-3.2-5.7-3.7.3-3.9,1.7-8.5,10-6,10.9-16.3,11.4-22.3,13.4C12.3,23.1,31.8,6.6,55.1,6.6s38.4,13,45.3,31.2c-1.4,0-3.1-.2-4.8-.4-3.1.5-2.5,4.4-2.2,6.7M94,16.1C84,6.2,70.3,0,55.1,0S26.1,6.2,16.1,16.1C6.2,26.1,0,39.9,0,55.1s6.2,29,16.1,38.9c10,10,23.7,16.1,38.9,16.1s29-6.2,38.9-16.1c10-10,16.1-23.7,16.1-38.9s-6.2-29-16.1-38.9"/>
  <text class="st1" transform="translate(-966.4 -172)"><tspan x="0" y="0">Brittain Wynyard</tspan><tspan x="0" y="14.4">BW Logo</tspan></text>
</svg>