<?xml version="1.0" encoding="UTF-8"?>
<svg id="Layer_1" data-name="Layer 1" xmlns="http://www.w3.org/2000/svg" viewBox="0 0 350 350">
  <defs>
    <style>
      .cls-1 {
        stroke-width: 12px;
      }

      .cls-1, .cls-2 {
        fill: none;
      }

      .cls-1, .cls-2, .cls-3 {
        stroke-linecap: round;
      }

      .cls-1, .cls-2, .cls-3, .cls-4 {
        stroke: #243b3b;
        stroke-miterlimit: 10;
      }

      .cls-2 {
        stroke-width: 6px;
      }

      .cls-3 {
        fill: #fff;
        stroke-width: 8px;
      }

      .cls-4 {
        fill: #243b3b;
      }
    </style>
  </defs>
  <g>
    <path class="cls-1" d="M259.88,74.45c37.1,26.51,61.29,69.94,61.29,119.01,0,80.73-65.44,146.17-146.17,146.17S28.83,274.19,28.83,193.46,87.74,54.04,162.73,47.81"/>
    <path class="cls-4" d="M132.87,92.52h0c-2.44-1.97-2.82-5.54-.85-7.97l25.82-32.38c2.07-2.56,1.53-6.34-1.17-8.22l-34.32-23.25c-2.57-1.79-3.21-5.32-1.42-7.89h0c1.79-2.57,5.32-3.2,7.88-1.42l34.46,23.36c8.03,5.58,9.63,16.8,3.49,24.4l-25.93,32.53c-1.97,2.43-5.53,2.81-7.97.85Z"/>
  </g>
  <path class="cls-1" d="M35.7,237.84s50.1,69.2,147.65,30.18c97.56-39.02,125.83-16.52,125.83-16.52"/>
  <g>
    <g>
      <path class="cls-3" d="M117.16,202.6c19.14,19.79,48.81,22.14,66.26,5.25,17.46-16.89,16.1-46.62-3.04-66.4-19.14-19.79-85.83-25.48-85.83-25.48,0,0,3.47,66.85,22.61,86.63Z"/>
      <line class="cls-2" x1="94.55" y1="115.97" x2="183.43" y2="207.85"/>
    </g>
    <g>
      <path class="cls-3" d="M234.63,202.6c-19.14,19.79-48.81,22.14-66.26,5.25-17.46-16.89-16.1-46.62,3.04-66.4,19.14-19.79,85.83-25.48,85.83-25.48,0,0-3.47,66.85-22.61,86.63Z"/>
      <line class="cls-2" x1="257.25" y1="115.97" x2="168.37" y2="207.85"/>
    </g>
    <g>
      <path class="cls-3" d="M218.98,163.68c0,27.53-19.69,49.84-43.98,49.84s-43.98-22.32-43.98-49.84,43.98-77.99,43.98-77.99c0,0,43.98,50.46,43.98,77.99Z"/>
      <line class="cls-2" x1="175" y1="85.69" x2="175" y2="213.52"/>
    </g>
    <line class="cls-2" x1="175" y1="85.69" x2="175" y2="269.37"/>
  </g>
</svg>