<?xml version="1.0" encoding="UTF-8"?>
<svg id="Layer_1" data-name="Layer 1" xmlns="http://www.w3.org/2000/svg" viewBox="0 0 350 350">
  <defs>
    <style>
      .cls-1 {
        fill: #243b3b;
        stroke-width: 0px;
      }

      .cls-2 {
        stroke-linejoin: round;
      }

      .cls-2, .cls-3 {
        fill: none;
        stroke: #243b3b;
        stroke-linecap: round;
        stroke-width: 4px;
      }

      .cls-3 {
        stroke-miterlimit: 10;
      }
    </style>
  </defs>
  <path class="cls-1" d="M175,25.64c39.9,0,77.4,15.54,105.62,43.75,28.21,28.21,43.75,65.72,43.75,105.62s-15.54,77.4-43.75,105.62c-28.21,28.21-65.72,43.75-105.62,43.75s-77.4-15.54-105.62-43.75c-28.21-28.21-43.75-65.72-43.75-105.62s15.54-77.4,43.75-105.62,65.72-43.75,105.62-43.75M175,13.64C85.88,13.64,13.64,85.88,13.64,175s72.24,161.36,161.36,161.36,161.36-72.24,161.36-161.36S264.12,13.64,175,13.64h0Z"/>
  <path class="cls-3" d="M292.05,71.29c-15.62,3.16-30.54-7.55-46.36-9.55-11.69-1.47-23.44,1.9-34.52,5.92-20.95,7.61-41.01,17.69-59.62,29.96-4.07,2.68-8.53,6.37-8.21,11.23.3,4.56,4.82,7.71,9.23,8.89,10.89,2.92,24.21-1.36,32.64,6.12,5.79,5.13,6.59,13.69,9.46,20.88,2.19,5.48,5.7,10.32,9.18,15.09,5.59,7.67,11.39,15.54,19.54,20.41,6.07,3.63,13.06,5.35,19.67,7.86s13.24,6.14,16.85,12.22c3.61,6.08,3.01,15.1-2.89,19.01-3.15,2.09-7.12,2.41-10.65,3.74s-7.03,4.56-6.33,8.28c.79,4.22,6.02,5.64,10.27,6.19,9.54,1.25,20.19,2.22,27.85-3.6,3.81-2.9,6.38-7.17,10.07-10.22,8.73-7.21,21.4-6.11,32.62-4.62"/>
  <path class="cls-3" d="M28.2,128.3l30.95-.57c6.03-.11,12.39-.14,17.63,2.86s8.58,10.16,5.36,15.26c-1.96,3.11-5.86,4.81-7.25,8.21-1.63,4,.89,8.6.04,12.84-1.04,5.19-6.51,7.99-11.14,10.55-15.2,8.42-27.43,22.09-34.12,38.13"/>
  <path class="cls-3" d="M72.84,228.89c-5.37,4.97-9.13,12.27-7.98,19.49s8.41,13.5,15.54,11.89c3.52-.79,6.7-3.28,10.29-3,7.39.58,9.76,11.71,16.96,13.45,4.36,1.05,8.89-2.03,10.91-6.03s2.1-8.68,1.96-13.17c-.16-4.92-.58-9.99-2.78-14.39-8.79-17.57-31.37-20.77-44.9-8.24Z"/>
  <path class="cls-2" d="M143.12,251.13c2.21-.81,4.56,1.03,5.66,3.11s3,3.15,4.37,5.06c2.15,2.99,5.07.95,8.38,3.65,0,7.12-14.58,25.62-20.73,33.74-4.08,5.38-7.7-3.03-6.7-6.78.92-3.45,5.21-6.35,7.05-9.35,1.55-2.53-1.61-30.76,1.98-29.43Z"/>
  <path class="cls-2" d="M152.95,325.73c23.52-7.8,47.84-12.86,72.1-17.91,8.76-1.82,17.82-3.65,26.59-1.89"/>
  <path class="cls-2" d="M82.06,53.54c10.33,1.7,20.85,2.24,31.3,1.59,7.87-.49,17.71-.62,21.29,6.4.9,1.77,1.23,3.77,1.5,5.74.12.88.23,1.8-.05,2.65-.55,1.63-2.32,2.45-3.92,3.09-19.89,7.95-39.78,15.91-59.67,23.86-7.79,3.12-15.66,6.27-22.6,10.99-2.03,1.38-4.14,2.95-6.59,3.05s-5.13-2.16-4.37-4.5"/>
</svg>