<?xml version="1.0" encoding="UTF-8"?>
<svg id="Layer_1" data-name="Layer 1" xmlns="http://www.w3.org/2000/svg" xmlns:xlink="http://www.w3.org/1999/xlink" viewBox="0 0 350 350">
  <defs>
    <style>
      .cls-1 {
        clip-path: url(#clippath);
      }

      .cls-2 {
        fill: none;
      }

      .cls-2, .cls-3 {
        stroke-width: 0px;
      }

      .cls-3 {
        fill: #243b3b;
      }
    </style>
    <clipPath id="clippath">
      <circle class="cls-2" cx="175" cy="175" r="161.36"/>
    </clipPath>
  </defs>
  <path class="cls-3" d="M175,25.64c39.9,0,77.41,15.54,105.62,43.75,28.21,28.21,43.75,65.72,43.75,105.62s-15.54,77.4-43.75,105.62c-28.21,28.21-65.72,43.75-105.62,43.75s-77.4-15.54-105.62-43.75-43.75-65.72-43.75-105.62,15.54-77.41,43.75-105.62,65.72-43.75,105.62-43.75M175,13.64C85.88,13.64,13.64,85.88,13.64,175s72.24,161.36,161.36,161.36,161.36-72.24,161.36-161.36S264.12,13.64,175,13.64h0Z"/>
  <g class="cls-1">
    <g>
      <path class="cls-3" d="M107.32,219.33s0-.01.01-.03h0s-.01.03-.01.03h0Z"/>
      <path class="cls-3" d="M245.63,227.42v.02s.01.01.01.02v-.04h-.01Z"/>
      <path class="cls-3" d="M101.84,239.23h0s0-.03.01-.05v.05h-.01Z"/>
      <path class="cls-3" d="M103.1,231.66s.01-.01.01-.02h0s-.01.02-.01.02h0Z"/>
      <path class="cls-3" d="M103.64,229.52v-.02s0-.01.01-.02v.04h-.01Z"/>
      <path class="cls-3" d="M104.25,227.4v-.02s0,0,.01,0v.03h-.01Z"/>
      <path class="cls-3" d="M53.91,239.19c3.39-8,9.04-14.82,16.17-19.63,7.14-4.81,15.68-7.62,24.94-7.62h12.71c1.18,0,2.37.05,3.52.15-.34.55-.66,1.08-.97,1.62-.05.07-.12.18-.19.29h0c-.18.31-.3.53-.36.64-.13.23-.28.49-.43.78h0s-.01,0-.01.01c-.01,0-.01.02-.01.03h0c-.23.4-.42.77-.59,1.09v.02c-.09.18-.24.45-.42.79v.02c-.2.39-.39.78-.58,1.16v.02c-.07.14-.19.38-.35.73-.23.49-.43.96-.63,1.4h0c-.03.06-.11.24-.24.56h0s-.01.05-.03.07h0c-.28.65-.54,1.3-.79,1.96v.04c-.05.1-.08.18-.09.23v.05h-.01v.03c-.23.56-.43,1.12-.62,1.68v.03c-.11.29-.19.55-.26.75-.13.4-.27.83-.42,1.29-.11.37-.19.66-.26.87v-.02c-.11.41-.23.83-.35,1.26-.09.37-.17.69-.24.95v-.04c-.09.41-.19.83-.28,1.23-.08.33-.15.66-.23.99h.01c-.08.37-.16.76-.26,1.19v.05c-.05.29-.12.6-.17.94-.07.39-.15.81-.21,1.27v-.04c-.04.3-.08.61-.13.96v.03c-.07.4-.12.81-.16,1.22h0s-.01.02-.01.03v.05h0c-.04.31-.07.61-.11.91-.05.51-.09.95-.12,1.32v.07c-.03.16-.05.45-.08.84h0v.05h0c-.04.53-.05,1.02-.08,1.44v.09c-.01.11-.03.34-.04.7h0c-.03.76-.04,1.52-.04,2.29v89.01h-51.08v-78.48c0-6.17,1.25-12.03,3.51-17.36h0ZM118.67,219.32h0ZM254.99,211.94c6.18,0,12.03,1.25,17.36,3.5,8,3.38,14.82,9.05,19.63,16.17,4.81,7.13,7.61,15.68,7.61,24.93v78.49h-51.2v-89.01c0-.76-.01-1.52-.04-2.28h0c-.01-.36-.03-.59-.03-.69v-.09c-.03-.43-.05-.91-.08-1.43h0v-.02s-.01-.03-.01-.03h0c-.01-.35-.05-.67-.07-.93h0c-.04-.43-.08-.87-.12-1.29h0c-.04-.39-.08-.7-.11-.94v-.05c-.05-.36-.11-.8-.17-1.3h0c-.05-.35-.09-.66-.15-.92v.04c-.07-.47-.13-.89-.2-1.27h0c-.05-.34-.12-.66-.18-.94v-.04c-.08-.39-.16-.79-.26-1.21v-.05c-.07-.29-.13-.58-.2-.87v-.03c-.11-.41-.2-.84-.31-1.26v.04c-.05-.24-.12-.54-.21-.88h0c-.13-.49-.26-.93-.36-1.28v-.03c-.07-.22-.13-.5-.26-.85-.13-.48-.28-.92-.42-1.33v.03c-.07-.23-.15-.48-.24-.75-.2-.62-.42-1.19-.6-1.71l-.04-.09h0s-.03-.09-.08-.24h0s-.01,0-.01,0c0-.01,0-.03-.01-.04h0c-.26-.68-.52-1.33-.78-1.96h0c-.13-.3-.23-.51-.28-.63-.17-.43-.38-.89-.59-1.35l-.03-.05c-.11-.25-.23-.48-.32-.69l-.03-.04c-.17-.36-.35-.75-.56-1.15h0c-.16-.33-.3-.6-.42-.82h0c-.19-.37-.39-.74-.58-1.09h0c-.16-.3-.31-.56-.43-.76v-.05c-.11-.14-.21-.35-.36-.61h0c-.08-.13-.15-.24-.19-.3-.32-.56-.67-1.12-1.03-1.69,1.21-.1,2.42-.16,3.64-.16h12.73ZM239.71,213.87h0ZM43.73,343.8c1.24.84,2.75,1.34,4.35,1.33h59.79c.2,0,.42-.01.62-.04.26.03.51.04.77.04h48.85c2.78,0,5.05-2.26,5.05-5.05s-2.27-5.05-5.05-5.05h-46.52v-89.01c0-.64,0-1.29.03-1.92,0-.1.03-.31.04-.61.03-.49.04-.93.07-1.3v-.05c0-.11.03-.35.05-.7.04-.44.08-.82.11-1.13v-.05c.04-.24.07-.47.09-.71v-.09c.05-.35.09-.71.15-1.07.03-.24.07-.49.12-.78v-.04c.05-.31.11-.66.17-1.05.04-.24.09-.49.15-.77.07-.33.13-.69.23-1.08h0c.04-.26.09-.49.15-.71v-.03c.09-.35.17-.69.25-1.03v-.05c.08-.28.15-.52.19-.69v-.03c.11-.35.2-.7.31-1.06h0c.09-.32.16-.55.2-.69v-.03c.11-.35.24-.73.38-1.14v-.03c.08-.23.15-.43.2-.57.16-.48.32-.94.5-1.41v.04c.07-.2.11-.33.12-.38.22-.55.43-1.1.67-1.65l.04-.08s.07-.15.19-.43h-.01c.19-.41.35-.79.51-1.15l.03-.04c.04-.1.15-.3.3-.62v.02c.16-.36.32-.7.5-1.04.07-.15.19-.36.34-.65v.02c.17-.36.34-.66.48-.92v-.05c.12-.18.24-.4.38-.64h.01c.15-.27.23-.44.28-.52l.08-.14c.46-.77.9-1.49,1.33-2.16h0c4.78-7.37,11.34-13.49,19.04-17.77,7.71-4.28,16.56-6.71,26.02-6.71h19.34c9.46,0,18.33,2.44,26.03,6.73,7.71,4.29,14.27,10.42,19.06,17.8.44.7.89,1.42,1.32,2.17l.04.06c.04.06.07.11.09.15.07.1.13.24.23.4.16.28.28.51.39.7h0c.16.31.32.62.48.92l.03.05c.13.26.24.47.32.63h0c.16.32.32.66.5,1.02.11.23.22.44.31.64.16.35.32.72.48,1.12l.03.07c.12.24.17.39.2.45h0c.24.57.47,1.13.69,1.69v.05h.01s.03.08.08.22c.19.52.36,1,.52,1.45.05.17.12.37.19.59v.02c.13.41.27.79.38,1.14v.04c.05.16.12.38.2.68.12.4.22.74.3,1.02v.08c.07.17.12.4.19.69v.04c.09.33.17.68.26,1.02.07.26.12.53.19.78.05.33.13.68.2,1.04.05.29.09.55.13.77h0c.08.39.13.74.19,1.05v.03c.05.3.08.53.11.73v.1c.05.28.11.64.16,1.06.04.32.07.58.08.76.04.38.08.76.11,1.14v.07c.03.26.05.48.07.65v.06c.03.37.04.8.07,1.29.01.3.03.5.03.6.03.64.04,1.28.04,1.92v89.01h-46.52c-2.8,0-5.05,2.26-5.05,5.05s2.26,5.05,5.05,5.05h48.85c.26,0,.52-.01.78-.04.2.03.4.04.6.04h59.91c1.06,0,2.1-.22,3.02-.61,1.41-.6,2.58-1.58,3.43-2.82.83-1.23,1.33-2.76,1.33-4.36v-80.81c0-7.54-1.53-14.74-4.3-21.29-4.15-9.82-11.09-18.17-19.82-24.07-8.72-5.9-19.27-9.34-30.59-9.34h-12.73c-3.63,0-7.19.38-10.63,1.1-4.62-5.05-10.05-9.35-16.07-12.7-9.16-5.1-19.74-8-30.95-8h-19.34c-11.21,0-21.76,2.89-30.92,7.98-6.03,3.35-11.45,7.65-16.09,12.7-3.41-.7-6.93-1.07-10.54-1.07h-12.71c-7.54,0-14.76,1.53-21.3,4.3-9.82,4.16-18.17,11.09-24.07,19.82-5.9,8.72-9.34,19.28-9.34,30.59v80.8c0,1.06.21,2.1.6,3.03.59,1.4,1.59,2.58,2.82,3.42h0Z"/>
      <path class="cls-3" d="M201.78,149.48c-2.22,5.22-5.91,9.67-10.56,12.82-4.66,3.14-10.24,4.97-16.29,4.97-4.03,0-7.85-.81-11.33-2.29-5.23-2.21-9.68-5.91-12.82-10.56-3.14-4.65-4.97-10.23-4.97-16.28,0-4.04.82-7.85,2.28-11.34,2.22-5.22,5.9-9.67,10.56-12.82,4.65-3.14,10.23-4.97,16.27-4.97,4.03,0,7.86.81,11.34,2.29,5.21,2.21,9.68,5.91,12.82,10.56,3.13,4.65,4.97,10.23,4.97,16.28,0,4.04-.82,7.85-2.28,11.34h0ZM196.86,105.61c-6.25-4.23-13.82-6.7-21.93-6.7-5.4,0-10.58,1.1-15.27,3.08-7.04,2.98-13.02,7.95-17.25,14.21-4.23,6.25-6.71,13.83-6.69,21.94-.01,5.4,1.09,10.58,3.08,15.27,2.98,7.05,7.94,13.03,14.2,17.26,6.26,4.23,13.83,6.7,21.93,6.7,5.4,0,10.58-1.1,15.28-3.08,7.04-2.99,13.02-7.95,17.24-14.21,4.23-6.25,6.72-13.83,6.71-21.94.01-5.4-1.1-10.58-3.08-15.27-2.98-7.05-7.96-13.03-14.22-17.26h0Z"/>
      <path class="cls-3" d="M114.16,171.71c-1.56,3.68-4.17,6.83-7.46,9.04-3.28,2.22-7.2,3.5-11.48,3.5-2.85,0-5.54-.57-7.98-1.61-3.68-1.55-6.84-4.17-9.04-7.45-2.22-3.29-3.51-7.21-3.51-11.48,0-2.85.58-5.54,1.61-7.99,1.55-3.67,4.17-6.82,7.45-9.04,3.29-2.22,7.22-3.5,11.48-3.5,2.85,0,5.55.57,8,1.61,3.68,1.55,6.83,4.17,9.04,7.45,2.22,3.28,3.49,7.21,3.49,11.48,0,2.85-.56,5.54-1.6,7.99h0ZM112.36,138.32c-4.88-3.3-10.8-5.24-17.13-5.24-4.22,0-8.25.86-11.92,2.41-5.51,2.33-10.17,6.21-13.48,11.09-3.31,4.89-5.24,10.81-5.23,17.13-.01,4.22.85,8.26,2.41,11.93,2.32,5.51,6.21,10.17,11.1,13.48,4.88,3.3,10.79,5.24,17.12,5.23,4.22,0,8.26-.85,11.93-2.41,5.5-2.33,10.16-6.21,13.48-11.1,3.29-4.88,5.23-10.8,5.23-17.13,0-4.21-.86-8.25-2.41-11.92-2.34-5.51-6.21-10.17-11.1-13.48h0Z"/>
      <path class="cls-3" d="M273.6,171.71c-1.56,3.68-4.17,6.83-7.44,9.04-3.28,2.22-7.2,3.5-11.48,3.5-2.85,0-5.54-.57-8-1.61-3.68-1.55-6.83-4.17-9.04-7.45-2.22-3.29-3.51-7.21-3.51-11.48,0-2.85.58-5.54,1.61-7.99,1.56-3.67,4.17-6.82,7.44-9.04,3.29-2.22,7.22-3.5,11.49-3.5,2.85,0,5.54.57,7.98,1.61,3.68,1.55,6.83,4.17,9.04,7.45,2.22,3.28,3.51,7.21,3.51,11.48,0,2.85-.58,5.54-1.61,7.99h0ZM271.81,138.32c-4.89-3.3-10.82-5.24-17.13-5.24-4.22,0-8.26.86-11.93,2.41-5.51,2.33-10.17,6.21-13.47,11.09-3.32,4.89-5.25,10.81-5.24,17.13,0,4.22.85,8.26,2.41,11.93,2.32,5.51,6.21,10.17,11.1,13.48,4.88,3.3,10.79,5.24,17.13,5.23,4.21,0,8.25-.85,11.92-2.41,5.51-2.33,10.17-6.21,13.48-11.1,3.29-4.88,5.23-10.8,5.23-17.13,0-4.21-.86-8.25-2.41-11.92-2.32-5.51-6.21-10.17-11.09-13.48h0Z"/>
    </g>
  </g>
</svg>