<svg width="585" height="715" viewBox="0 0 585 715" fill="none" xmlns="http://www.w3.org/2000/svg">
<g style="mix-blend-mode:overlay" opacity="0.5">
<path d="M710.91 357.268C710.91 341.674 709.888 325.894 707.843 310.486C707.192 305.381 702.544 301.854 697.432 302.504C692.319 303.153 688.787 307.887 689.438 312.899C691.111 325.709 691.947 338.797 692.226 351.791C686.742 353.741 674.007 355.968 649.932 348.357C634.223 343.438 617.027 339.075 598.994 335.548C578.172 331.464 556.514 334.898 537.83 345.201C503.437 364.137 459.377 390.127 445.248 406.37C431.305 422.335 416.34 461.877 406.301 492.23C397.47 518.684 404.256 547.551 423.497 565.651C435.488 576.882 449.71 581.802 464.769 579.76C474.529 578.46 484.94 576.418 494.979 574.469C514.313 570.663 540.805 565.558 547.869 570.478C548.334 570.849 548.706 571.22 548.892 572.427C550.379 581.616 534.949 605.378 524.724 621.065C513.941 637.68 506.97 648.726 505.111 657.358C460.679 679.171 410.762 691.516 357.965 691.516C333.332 691.516 309.35 688.732 286.204 683.719C309.536 674.809 322.549 659.122 325.152 655.687C334.076 646.405 372.466 604.172 362.52 576.975C359.731 569.364 352.202 559.896 331.752 557.761C300.055 554.42 262.408 521.375 236.939 496.685C233.221 493.158 227.365 493.251 223.833 496.871C220.3 500.583 220.393 506.431 224.018 509.958C268.357 552.749 300.984 573.077 329.8 576.14C335.842 576.79 343.371 578.46 345.044 583.194C349.506 595.539 327.569 626.17 311.302 643.064C311.023 643.342 310.744 643.714 310.465 644.085C309.536 645.384 286.762 675.644 241.773 670.632C198.084 654.388 158.765 629.326 125.859 597.581C125.395 577.161 121.955 489.816 93.7903 449.068C84.4949 435.609 83.5654 423.078 91.3735 416.209C100.855 407.948 122.048 409.062 142.684 427.626C151.236 435.33 160.903 445.169 169.176 453.802C172.708 457.515 178.657 457.607 182.282 454.08C186 450.553 186.093 444.612 182.561 440.992C174.009 432.082 164.063 421.964 155.047 413.889C126.138 387.992 94.9057 388.456 79.1036 402.379C67.5773 412.496 60.5129 433.567 78.4529 459.649C97.7873 487.774 104.201 544.488 106.246 577.161C54.6568 518.405 23.3314 441.549 23.3314 357.454C23.3314 299.348 38.111 243.748 65.1605 195.11C71.4814 203.742 80.7768 213.488 91.1876 214.788C98.1591 215.716 120.096 219.429 153.002 225.276C155.326 225.648 157.649 225.926 160.066 225.926C168.06 225.926 175.961 223.513 182.654 218.872L209.704 200.308C214.723 196.78 221.044 195.667 226.993 197.152L263.059 206.063C272.726 208.476 282.672 206.898 291.131 201.607C299.59 196.316 305.353 188.055 307.305 178.309L317.902 126.793C319.575 118.904 318.459 110.55 314.834 103.31C312.696 99.04 312.417 94.2133 313.905 89.7579C315.392 85.3024 318.645 81.6824 322.921 79.5475L349.134 66.8311C359.917 61.6331 367.446 51.4228 369.119 39.5417L371.443 23.7621C425.542 25.9898 477.224 41.4909 522.772 67.388C518.868 69.8942 513.197 71.4721 505.575 68.8731C499.998 66.9239 494.328 67.6665 489.773 70.9152C483.638 75.2778 475.551 86.1378 475.83 129.485C475.83 145.822 483.266 161.694 496.094 173.018C502.322 178.495 506.505 184.157 508.271 189.54C510.688 196.688 493.212 217.758 475.551 232.517C461.515 236.137 439.578 248.018 443.296 271.594C444.505 279.391 449.431 290.066 465.791 296.006C471.926 298.234 478.34 299.348 484.94 299.348C494.886 299.348 504.925 296.749 514.127 291.736C535.506 280.041 563.021 261.291 572.874 238.364C575.291 232.702 577.8 232.238 578.637 232.145C586.259 231.031 600.853 242.541 608.754 251.266C619.351 261.755 646.028 274.936 677.447 258.692C677.726 259.62 678.097 260.641 678.376 261.569C679.585 265.561 683.303 268.16 687.3 268.16C688.136 268.16 689.066 268.067 689.996 267.788C694.922 266.303 697.711 261.105 696.223 256.279C671.219 172.647 615.911 103.31 544.616 58.7556C543.965 58.0131 543.222 57.2705 542.292 56.7136C541.641 56.3423 540.898 56.2495 540.154 56.0638C486.241 23.4837 423.497 4.82666 357.872 4.82666C315.206 4.82666 273.47 12.3452 233.779 27.1965C228.945 28.9601 226.528 34.3437 228.387 39.1704C230.246 43.9971 235.545 46.4105 240.378 44.554C276.258 31.095 314.091 24.0406 352.759 23.4837L350.807 36.7571C349.971 42.512 346.346 47.5243 341.047 50.0305L314.834 62.747C306.097 67.0167 299.497 74.4424 296.336 83.6317C293.176 92.8209 293.92 102.753 298.288 111.478C300.055 115.005 300.612 119.089 299.776 122.895L289.179 174.411C288.157 179.144 285.368 183.229 281.278 185.828C277.188 188.427 272.354 189.169 267.614 188.055L231.548 179.144C220.393 176.36 208.588 178.495 199.2 184.992L172.15 203.556C167.503 206.805 161.925 208.012 156.348 206.991C132.831 202.814 102.993 197.616 93.6973 196.409C89.2356 195.852 81.3345 186.663 75.7573 177.474C102.528 135.797 138.78 99.7825 182.84 72.7716C187.209 70.0798 188.603 64.3249 185.907 59.9623C183.212 55.5997 177.449 54.2074 173.08 56.8992C67.6703 121.688 4.64767 234.002 4.64767 357.454C4.64767 455.287 44.7107 543.838 109.407 607.792C109.871 608.349 110.336 608.813 110.894 609.184C174.66 671.56 261.758 710.081 357.779 710.081C414.852 710.081 468.673 696.436 516.451 672.302H516.544C517.752 671.931 518.775 671.374 519.704 670.632C633.108 611.876 710.91 493.622 710.91 357.454V357.268ZM671.312 240.685C643.147 257.021 623.998 239.942 622.139 238.271C617.956 233.538 596.019 210.147 575.569 213.581C569.434 214.602 561.069 218.408 555.677 230.846C547.497 249.874 520.448 266.86 505.018 275.307C494.421 281.062 482.43 282.176 472.019 278.37C462.538 274.843 461.701 270.016 461.515 268.438C459.377 254.794 481.314 249.967 481.5 249.967C482.988 249.688 484.289 249.039 485.497 248.11C496.931 238.828 533.554 206.805 525.746 183.507C522.865 174.968 517.009 166.706 508.271 159.002C499.44 151.205 494.328 140.345 494.328 129.3C494.142 97.8333 498.511 88.7368 500.091 86.5091C517.938 92.4497 531.416 85.3953 539.41 77.4127C598.715 115.841 645.842 172.647 671.312 240.778V240.685ZM533.554 641.393C535.878 637.773 538.202 634.153 540.154 630.997C554.655 608.72 569.62 585.608 567.111 569.364C566.181 563.423 563.114 558.504 558.373 555.069C544.895 545.602 520.076 550.428 491.26 556.09C481.5 558.04 471.368 559.989 462.073 561.196C452.499 562.495 444.04 559.525 436.046 552.006C422.01 538.826 417.269 517.663 423.776 497.985C437.068 457.979 449.896 429.019 459.098 418.53C468.673 407.67 500.556 386.785 546.661 361.445C561.533 353.277 578.73 350.585 595.276 353.834C612.658 357.268 629.111 361.352 644.169 366.179C666.385 373.14 681.816 373.14 691.855 371.098C687.207 485.175 624.928 584.679 533.368 641.393H533.554Z" fill="#F2F3F4" fill-opacity="0.5"/>
<path d="M259.434 348.357H259.155C257.296 347.336 243.446 338.425 216.489 281.248C208.309 263.89 191.485 252.009 172.522 250.338C163.692 249.503 154.582 249.41 145.473 249.874C130.6 250.709 120.654 255.258 116.006 263.426C110.429 273.265 115.356 283.197 116.006 284.311C116.285 284.868 116.657 285.424 117.122 285.889L221.23 411.568C222.81 414.074 226.807 418.901 234.894 420.85C236.939 421.314 239.17 421.593 241.401 421.593C251.998 421.593 264.546 416.209 279.047 405.535C291.41 396.346 296.708 386.599 294.849 376.482C291.41 358.103 264.918 349.935 259.62 348.45H259.434V348.357ZM267.8 390.498C251.068 402.936 242.609 403.307 239.728 402.843C237.962 402.565 237.218 401.915 237.032 401.915C236.753 401.265 236.381 400.708 235.917 400.151L132.273 275.029C131.994 274.193 131.808 273.079 132.273 272.43C133.017 271.13 136.921 268.81 146.588 268.253C154.768 267.789 162.948 267.881 170.942 268.624C183.305 269.738 194.366 277.535 199.758 288.952C229.038 351.327 246.513 364.508 254.972 366.272C264.546 369.056 275.701 375.275 276.537 379.731C276.909 381.494 274.771 385.393 267.893 390.498H267.707H267.8Z" fill="#F2F3F4" fill-opacity="0.5"/>
</g>
</svg>
