<svg xmlns="http://www.w3.org/2000/svg" width="82.319" height="94.724" viewBox="0 0 82.319 94.724"><path d="M1539.21,594.847a10.638,10.638,0,0,0-3.162-2.178,12.023,12.023,0,0,0-.859-6.959c-1.822-3.74-5.937-5.849-12.23-6.268-12.79-.85-17.275,3.17-20.879,6.4-.2.183-.4.36-.6.534a19.078,19.078,0,0,1-11.339-.039,1.427,1.427,0,0,0-.87,2.719,21.4,21.4,0,0,0,2.08.55,1.422,1.422,0,0,0,.7,2.51c5.531.789,8.315-1,10.871-3.211,14.271-4.4,20.257-2.713,22.762-.5a6.13,6.13,0,0,1,1.965,3.533L1502.64,593.3a2.858,2.858,0,0,0-1.863.832l-39.935,39.935a2.854,2.854,0,0,0,0,4.036l35.111,35.111a2.854,2.854,0,0,0,4.036,0l39.936-39.935a2.857,2.857,0,0,0,.832-1.863l1.552-28.468A10.654,10.654,0,0,0,1539.21,594.847Zm-11.6-8.552c-3.58-3.192-9.9-3.823-18.816-1.9,2.937-1.542,7.082-2.568,13.972-2.109,5.2.346,8.51,1.917,9.852,4.667a8.929,8.929,0,0,1,.669,4.9,10.614,10.614,0,0,0-2.181-.108l-.59.032A8.99,8.99,0,0,0,1527.612,586.3Zm3.141,20.28a2.313,2.313,0,1,1-1.636-3.949l.035,0c-.3.493-.494.783-.506.8a1.427,1.427,0,0,0,2.361,1.6c.037-.055.172-.256.371-.572A2.313,2.313,0,0,1,1530.753,606.575Zm5.857-3.937-1.493,27.378-37.145,37.145L1466.9,636.085l37.145-37.145,27.378-1.493c.12-.006.238,0,.356,0a35.79,35.79,0,0,1-1.65,3.481,4.159,4.159,0,0,0-1.008-.128,4.143,4.143,0,1,0,3.379,1.755,37.6,37.6,0,0,0,2-4.234,5.009,5.009,0,0,1,.679.564A4.867,4.867,0,0,1,1536.61,602.638Z" transform="translate(-1460.006 -579.327)"/><path d="M1560.831,691.421a6.605,6.605,0,1,0-4.673-1.932A6.588,6.588,0,0,0,1560.831,691.421Zm-1.72-8.326a2.433,2.433,0,1,1,0,3.441A2.425,2.425,0,0,1,1559.11,683.095Z" transform="translate(-1520.61 -642.931)"/><path d="M1556.152,750.88a6.609,6.609,0,1,0,9.345,0A6.565,6.565,0,0,0,1556.152,750.88Zm6.393,6.394h0a2.433,2.433,0,1,1,.713-1.721A2.418,2.418,0,0,1,1562.545,757.274Z" transform="translate(-1520.604 -688.431)"/><path d="M1553.711,726.241h-38.025a2.088,2.088,0,0,0,0,4.175h38.025a2.088,2.088,0,1,0,0-4.175Z" transform="translate(-1494.478 -673.825)"/></svg>