<svg xmlns="http://www.w3.org/2000/svg" width="110" height="95" viewBox="0 0 110 95"><g transform="translate(-1382 -981)"><rect width="110" height="95" transform="translate(1382 981)" fill="none"/><g transform="translate(1398 984)"><path d="M1535.029,594.028a10.076,10.076,0,0,0-2.995-2.063,11.389,11.389,0,0,0-.814-6.592c-1.726-3.542-5.623-5.54-11.584-5.937-12.115-.8-16.363,3-19.777,6.064-.193.173-.381.341-.568.506a18.071,18.071,0,0,1-10.741-.037,1.352,1.352,0,0,0-.824,2.575,20.27,20.27,0,0,0,1.97.521,1.347,1.347,0,0,0,.667,2.377c5.239.747,7.876-.951,10.3-3.041,13.518-4.172,19.188-2.569,21.561-.477a5.806,5.806,0,0,1,1.861,3.346l-23.693,1.292a2.707,2.707,0,0,0-1.765.788L1460.8,631.178a2.7,2.7,0,0,0,0,3.823l33.258,33.258a2.7,2.7,0,0,0,3.823,0l37.828-37.827a2.706,2.706,0,0,0,.788-1.765l1.471-26.966A10.091,10.091,0,0,0,1535.029,594.028Zm-10.985-8.1c-3.391-3.024-9.373-3.621-17.823-1.8,2.782-1.461,6.708-2.432,13.235-2,4.921.328,8.061,1.816,9.332,4.421a8.457,8.457,0,0,1,.633,4.64,10.056,10.056,0,0,0-2.066-.1l-.559.03A8.515,8.515,0,0,0,1524.044,585.927Zm2.975,19.21a2.191,2.191,0,1,1-1.549-3.74l.033,0c-.285.467-.468.742-.479.758a1.352,1.352,0,0,0,2.236,1.52c.035-.052.163-.243.352-.541A2.191,2.191,0,0,1,1527.019,605.137Zm5.547-3.73-1.414,25.932-35.184,35.184-29.435-29.435,35.184-35.184,25.933-1.414c.113-.006.225,0,.337,0a33.9,33.9,0,0,1-1.563,3.3,3.94,3.94,0,0,0-.955-.121,3.924,3.924,0,1,0,3.2,1.662,35.617,35.617,0,0,0,1.892-4.01,4.759,4.759,0,0,1,.643.534A4.611,4.611,0,0,1,1532.566,601.407Z" transform="translate(-1460.006 -579.327)"/><path d="M1560.482,690.724a6.257,6.257,0,1,0-4.426-1.83A6.241,6.241,0,0,0,1560.482,690.724Zm-1.63-7.887a2.3,2.3,0,1,1,0,3.26A2.3,2.3,0,0,1,1558.852,682.837Z" transform="translate(-1522.384 -644.793)"/><path d="M1556.05,750.778a6.26,6.26,0,1,0,8.852,0A6.219,6.219,0,0,0,1556.05,750.778Zm6.056,6.056h0a2.3,2.3,0,1,1,.675-1.63A2.29,2.29,0,0,1,1562.106,756.835Z" transform="translate(-1522.378 -691.626)"/><path d="M1551.594,726.241h-36.018a1.977,1.977,0,0,0,0,3.955h36.018a1.977,1.977,0,1,0,0-3.955Z" transform="translate(-1495.488 -676.592)"/></g></g></svg>