<svg xmlns="http://www.w3.org/2000/svg" width="155.626" height="89.261" viewBox="0 0 155.626 89.261"><g transform="translate(97.717 -2844.957)"><path d="M63.421,2880.07l-17.813-17.717a2.225,2.225,0,0,0-1.57-.648H22.545v-8.575a8.182,8.182,0,0,0-8.173-8.173h-82.25a2.227,2.227,0,0,0-2.227,2.227,2.227,2.227,0,0,0,2.227,2.227h82.25a3.724,3.724,0,0,1,3.719,3.719v51.649a14.822,14.822,0,0,0-12.4,12.4H-30.6a14.823,14.823,0,0,0-14.626-12.585,14.822,14.822,0,0,0-14.626,12.585H-71.556a2.227,2.227,0,0,0-2.227,2.227,2.227,2.227,0,0,0,2.227,2.227h11.707a14.822,14.822,0,0,0,14.626,12.586A14.823,14.823,0,0,0-30.6,2921.632H5.692a14.792,14.792,0,0,0,29.253,0H53.623a10.468,10.468,0,0,0,10.456-10.456v-29.528A2.228,2.228,0,0,0,63.421,2880.07Zm-108.644,49.7a10.371,10.371,0,0,1-10.359-10.359,10.37,10.37,0,0,1,10.359-10.359,10.37,10.37,0,0,1,10.359,10.359A10.37,10.37,0,0,1-45.223,2929.765Zm104.848-47.19v4.4H32.151v-20.815H43.119Zm-39.306,47.19a10.359,10.359,0,1,1,10.359-10.359A10.371,10.371,0,0,1,20.319,2929.765Zm33.3-12.586H34.945a14.822,14.822,0,0,0-12.4-12.4v-38.621H27.7V2889.2a2.227,2.227,0,0,0,2.227,2.227h29.7v19.75A6.009,6.009,0,0,1,53.623,2917.179Z" transform="translate(-6.17)"/><path d="M-73.577,2870.932h49.589a2.226,2.226,0,0,0,2.227-2.227,2.227,2.227,0,0,0-2.227-2.227H-73.577A2.227,2.227,0,0,0-75.8,2868.7,2.226,2.226,0,0,0-73.577,2870.932Z" transform="translate(-5.649 -5.548)"/><path d="M-37.575,2891.01a2.227,2.227,0,0,0-2.227-2.227H-95.49a2.227,2.227,0,0,0-2.227,2.227,2.227,2.227,0,0,0,2.227,2.227H-39.8A2.227,2.227,0,0,0-37.575,2891.01Z" transform="translate(0 -11.297)"/><path d="M-29.942,2913.313a2.227,2.227,0,0,0-2.227-2.227h-46.1a2.227,2.227,0,0,0-2.227,2.227,2.227,2.227,0,0,0,2.227,2.227h46.1A2.227,2.227,0,0,0-29.942,2913.313Z" transform="translate(-4.438 -17.046)"/></g></svg>