<svg xmlns="http://www.w3.org/2000/svg" width="110" height="95" viewBox="0 0 110 95"><g transform="translate(-682 -980)"><rect width="110" height="95" transform="translate(682 980)" fill="none"/><path d="M795.843,622.732h-7.927a15.89,15.89,0,0,0-20.658-7.4V595.817a2.742,2.742,0,0,0-2.742-2.742H751.329v-4.117a13.419,13.419,0,0,0-26.839,0v4.117H711.3a2.742,2.742,0,0,0-2.742,2.742v60.53a2.742,2.742,0,0,0,2.742,2.742h40.75l.6,6.2a2.743,2.743,0,0,0,2.73,2.478h36.641a2.742,2.742,0,0,0,2.729-2.479l3.82-39.556a2.742,2.742,0,0,0-2.73-3.005Zm-14.552,0H766.115a10.4,10.4,0,0,1,15.177,0Zm-51.317-33.775a7.935,7.935,0,0,1,15.87,0v4.117h-15.87Zm-5.484,9.6v8.1a2.742,2.742,0,1,0,5.484,0v-8.1h15.87v8.1a2.742,2.742,0,1,0,5.484,0v-8.1h10.444v20.713h.076a15.964,15.964,0,0,0-2.359,3.46h-7.927a2.742,2.742,0,0,0-2.73,3.005l1.62,16.772H714.046v-43.95ZM714.046,653.6v-5.611h36.936l.542,5.611Zm75.487,8.683h-31.66l-3.29-34.071h3.294a16.027,16.027,0,0,0-.086,1.657,2.742,2.742,0,1,0,5.484,0,10.485,10.485,0,0,1,.133-1.657H784a10.477,10.477,0,0,1,.133,1.657,2.742,2.742,0,1,0,5.485,0,16.044,16.044,0,0,0-.086-1.657h3.295Z" transform="translate(-16.562 405.462)"/></g></svg>