<svg xmlns="http://www.w3.org/2000/svg" width="114.878" height="82" viewBox="0 0 114.878 82"><g transform="translate(-2173.767 2168.959)" fill="none" stroke-linejoin="round"><path d="M2268.156-2164.407a12.134,12.134,0,0,0-12.118,12.129,12.137,12.137,0,0,0,12.118,12.124,12.15,12.15,0,0,0,12.134-12.124A12.148,12.148,0,0,0,2268.156-2164.407Z" stroke="none"/><path d="M 2268.156494140625 -2160.4072265625 C 2263.68017578125 -2160.4072265625 2260.038330078125 -2156.760498046875 2260.038330078125 -2152.2783203125 C 2260.038330078125 -2147.799072265625 2263.68017578125 -2144.15478515625 2268.156494140625 -2144.15478515625 C 2270.322021484375 -2144.15478515625 2272.36279296875 -2145.002685546875 2273.9033203125 -2146.5419921875 C 2275.442626953125 -2148.080322265625 2276.290283203125 -2150.11767578125 2276.290283203125 -2152.2783203125 C 2276.290283203125 -2156.760498046875 2272.6416015625 -2160.4072265625 2268.156494140625 -2160.4072265625 M 2268.156494140625 -2164.4072265625 C 2274.843017578125 -2164.4072265625 2280.290283203125 -2158.9658203125 2280.290283203125 -2152.2783203125 C 2280.290283203125 -2145.6015625 2274.843017578125 -2140.15478515625 2268.156494140625 -2140.15478515625 C 2261.4697265625 -2140.15478515625 2256.038330078125 -2145.6015625 2256.038330078125 -2152.2783203125 C 2256.038330078125 -2158.9658203125 2261.4697265625 -2164.4072265625 2268.156494140625 -2164.4072265625 Z" stroke="none" fill="#000"/></g><g transform="translate(40.756)" fill="none" stroke="#000" stroke-linejoin="round" stroke-width="4"><circle cx="16.679" cy="16.679" r="16.679" stroke="none"/><circle cx="16.679" cy="16.679" r="14.679" fill="none"/></g><g transform="translate(-2240.554 2168.959)" fill="none" stroke-linejoin="round"><path d="M2261.027-2164.407a12.145,12.145,0,0,0-12.131,12.129,12.148,12.148,0,0,0,12.131,12.124,12.14,12.14,0,0,0,12.122-12.124A12.138,12.138,0,0,0,2261.027-2164.407Z" stroke="none"/><path d="M 2261.02734375 -2160.4072265625 C 2256.543701171875 -2160.4072265625 2252.89599609375 -2156.760498046875 2252.89599609375 -2152.2783203125 C 2252.89599609375 -2147.799072265625 2256.543701171875 -2144.15478515625 2261.02734375 -2144.15478515625 C 2265.505615234375 -2144.15478515625 2269.14892578125 -2147.799072265625 2269.14892578125 -2152.2783203125 C 2269.14892578125 -2156.760498046875 2265.505615234375 -2160.4072265625 2261.02734375 -2160.4072265625 M 2261.02734375 -2164.4072265625 C 2267.7138671875 -2164.4072265625 2273.14892578125 -2158.9658203125 2273.14892578125 -2152.2783203125 C 2273.14892578125 -2145.6015625 2267.7138671875 -2140.15478515625 2261.02734375 -2140.15478515625 C 2254.33984375 -2140.15478515625 2248.89599609375 -2145.6015625 2248.89599609375 -2152.2783203125 C 2248.89599609375 -2158.9658203125 2254.33984375 -2164.4072265625 2261.02734375 -2164.4072265625 Z" stroke="none" fill="#000"/></g><g transform="translate(0 31.393)"><g transform="translate(76.919)"><g transform="translate(-2255.521 2161.815)" fill="none" stroke-linejoin="round"><path d="M2278.945-2161.815h-11.893a14.45,14.45,0,0,0-11.531,5.8,21.034,21.034,0,0,1,9.027,17.24v9.454l28.932-6.2v-11.772A14.544,14.544,0,0,0,2278.945-2161.815Z" stroke="none"/><path d="M 2267.05224609375 -2157.815185546875 C 2265.044921875 -2157.815185546875 2263.125 -2157.237548828125 2261.472412109375 -2156.173095703125 C 2265.964599609375 -2151.534423828125 2268.5478515625 -2145.3056640625 2268.5478515625 -2138.775390625 L 2268.5478515625 -2134.269775390625 L 2289.4794921875 -2138.755126953125 L 2289.4794921875 -2147.293212890625 C 2289.4794921875 -2153.094970703125 2284.753662109375 -2157.815185546875 2278.945068359375 -2157.815185546875 L 2267.05224609375 -2157.815185546875 M 2267.05224609375 -2161.815185546875 L 2278.945068359375 -2161.815185546875 C 2286.95703125 -2161.815185546875 2293.4794921875 -2155.303466796875 2293.4794921875 -2147.293212890625 L 2293.4794921875 -2135.521484375 L 2264.5478515625 -2129.32177734375 L 2264.5478515625 -2138.775390625 C 2264.5478515625 -2145.915771484375 2260.955810546875 -2152.2080078125 2255.52099609375 -2156.015625 C 2258.17138671875 -2159.51513671875 2262.3330078125 -2161.815185546875 2267.05224609375 -2161.815185546875 Z" stroke="none" fill="#000"/></g></g><g transform="translate(-2248.089 2161.815)" fill="none" stroke-linejoin="round"><path d="M2277.023-2138.775a21.042,21.042,0,0,1,9.056-17.275,14.6,14.6,0,0,0-11.561-5.765h-11.9a14.542,14.542,0,0,0-14.524,14.522v11.824l28.934,7.731Z" stroke="none"/><path d="M 2273.02294921875 -2132.947509765625 L 2273.02294921875 -2138.775390625 C 2273.02294921875 -2145.317626953125 2275.605712890625 -2151.550048828125 2280.0986328125 -2156.188720703125 C 2278.438232421875 -2157.2431640625 2276.518310546875 -2157.815185546875 2274.517578125 -2157.815185546875 L 2262.61376953125 -2157.815185546875 C 2256.810546875 -2157.815185546875 2252.08935546875 -2153.094970703125 2252.08935546875 -2147.293212890625 L 2252.08935546875 -2138.541015625 L 2273.02294921875 -2132.947509765625 M 2277.02294921875 -2127.73828125 L 2248.08935546875 -2135.469482421875 L 2248.08935546875 -2147.293212890625 C 2248.08935546875 -2155.303466796875 2254.611328125 -2161.815185546875 2262.61376953125 -2161.815185546875 L 2274.517578125 -2161.815185546875 C 2279.25 -2161.815185546875 2283.41796875 -2159.50537109375 2286.07861328125 -2156.05029296875 C 2280.6142578125 -2152.23779296875 2277.02294921875 -2145.924072265625 2277.02294921875 -2138.775390625 L 2277.02294921875 -2127.73828125 Z" stroke="none" fill="#000"/></g><g transform="translate(-2219.617 2165.929)" fill="none" stroke-linejoin="round"><path d="M2284.487-2161.375h-14.876a18.5,18.5,0,0,0-18.476,18.487v17.714l25.92,9.853,25.92-9.853v-17.714A18.507,18.507,0,0,0,2284.487-2161.375Z" stroke="none"/><path d="M 2269.611083984375 -2157.37548828125 C 2261.62890625 -2157.37548828125 2255.134765625 -2150.876708984375 2255.134765625 -2142.888427734375 L 2255.134765625 -2127.933349609375 L 2277.054443359375 -2119.600830078125 L 2298.97412109375 -2127.933349609375 L 2298.97412109375 -2142.888427734375 C 2298.97412109375 -2150.876708984375 2292.475341796875 -2157.37548828125 2284.487060546875 -2157.37548828125 L 2269.611083984375 -2157.37548828125 M 2269.611083984375 -2161.37548828125 L 2284.487060546875 -2161.37548828125 C 2294.682373046875 -2161.37548828125 2302.97412109375 -2153.0830078125 2302.97412109375 -2142.888427734375 L 2302.97412109375 -2125.174560546875 L 2277.054443359375 -2115.321533203125 L 2251.134765625 -2125.174560546875 L 2251.134765625 -2142.888427734375 C 2251.134765625 -2153.0830078125 2259.42724609375 -2161.37548828125 2269.611083984375 -2161.37548828125 Z" stroke="none" fill="#000"/></g></g></svg>