<svg xmlns="http://www.w3.org/2000/svg" width="110" height="95" viewBox="0 0 110 95"><g transform="translate(-364 -981)"><rect width="110" height="95" transform="translate(364 981)" fill="none"/><path d="M361.2,612.012l-41.543-25.177a2.853,2.853,0,0,0-2.959,0l-41.542,25.177a2.855,2.855,0,0,0-1.375,2.441V671.8a2.854,2.854,0,0,0,2.854,2.854h83.085a2.854,2.854,0,0,0,2.854-2.854V614.453A2.855,2.855,0,0,0,361.2,612.012Zm-29.651,56.655H321.028V658.43h10.517Zm-8.112-15.945H312.915V642.2h10.517Zm-13.371,5.708h5.259v10.237H304.8V658.43Zm31-33.124H295.291v-4.642h45.765Zm0,5.708v37.652h-3.8V655.576a2.854,2.854,0,0,0-2.854-2.854h-5.258V639.35a2.854,2.854,0,0,0-2.854-2.854H310.061a2.854,2.854,0,0,0-2.854,2.854v13.371h-5.259a2.854,2.854,0,0,0-2.854,2.854v13.091h-3.8V631.015Zm15.806,37.932h-10.1V617.81a2.854,2.854,0,0,0-2.854-2.854H292.437a2.854,2.854,0,0,0-2.854,2.854v51.137h-10.1V616.06l38.689-23.447,38.688,23.447Z" transform="translate(101.223 397.579)"/></g></svg>