<svg xmlns="http://www.w3.org/2000/svg" width="110" height="95" viewBox="0 0 110 95"><g transform="translate(-905 -1608)"><g transform="translate(913 1611)"><g transform="translate(1264.756 -1029.043)" fill="none" stroke-linecap="round" stroke-linejoin="round"><path d="M-1180.088,1029.043h-60.748a9.95,9.95,0,0,0-9.989,9.911v42.07a9.95,9.95,0,0,0,9.989,9.911h41.479l19.27,20.124v-20.124h0a9.95,9.95,0,0,0,9.988-9.911v-42.07A9.95,9.95,0,0,0-1180.088,1029.043Z" stroke="none"/><path d="M -1240.836547851562 1033.04296875 C -1244.13916015625 1033.04296875 -1246.825927734375 1035.694580078125 -1246.825927734375 1038.953857421875 L -1246.825927734375 1081.023559570312 C -1246.825927734375 1084.282836914062 -1244.13916015625 1086.934448242188 -1240.836547851562 1086.934448242188 L -1199.35791015625 1086.934448242188 C -1198.266967773438 1086.934448242188 -1197.223388671875 1087.380004882812 -1196.468872070312 1088.16796875 L -1184.088134765625 1101.09765625 L -1184.088134765625 1090.934448242188 C -1184.088134765625 1088.725341796875 -1182.297241210938 1086.934448242188 -1180.088134765625 1086.934448242188 C -1176.7861328125 1086.934448242188 -1174.099853515625 1084.282836914062 -1174.099853515625 1081.023559570312 L -1174.099853515625 1038.953857421875 C -1174.099853515625 1035.694580078125 -1176.7861328125 1033.04296875 -1180.088134765625 1033.04296875 L -1240.836547851562 1033.04296875 M -1240.836547851562 1029.04296875 L -1180.088134765625 1029.04296875 C -1174.572021484375 1029.04296875 -1170.099853515625 1033.480102539062 -1170.099853515625 1038.953857421875 L -1170.099853515625 1081.023559570312 C -1170.099853515625 1086.497192382812 -1174.572021484375 1090.934448242188 -1180.088134765625 1090.934448242188 L -1180.088134765625 1111.05859375 L -1199.35791015625 1090.934448242188 L -1240.836547851562 1090.934448242188 C -1246.353515625 1090.934448242188 -1250.825927734375 1086.497192382812 -1250.825927734375 1081.023559570312 L -1250.825927734375 1038.953857421875 C -1250.825927734375 1033.480102539062 -1246.353515625 1029.04296875 -1240.836547851562 1029.04296875 Z" stroke="none" fill="#000"/></g><path d="M-1254.478,1074.957h-4.252a10.747,10.747,0,0,0-10.748,10.747v20.575a10.748,10.748,0,0,0,10.748,10.747h0v12.9l19.96-12.9h16.89a10.748,10.748,0,0,0,10.748-10.747v-5.349" transform="translate(1269.478 -1039.925)" fill="none" stroke="#000" stroke-linecap="round" stroke-linejoin="round" stroke-width="4"/><line x2="21.189" transform="translate(28.156 13.921)" fill="none" stroke="#000" stroke-linecap="round" stroke-linejoin="round" stroke-width="4"/><line x2="56.197" transform="translate(26.893 32.902)" fill="none" stroke="#000" stroke-linecap="round" stroke-linejoin="round" stroke-width="4"/><line x2="56.197" transform="translate(26.893 44.443)" fill="none" stroke="#000" stroke-linecap="round" stroke-linejoin="round" stroke-width="4"/></g><rect width="110" height="95" transform="translate(905 1608)" fill="none"/></g></svg>