<svg xmlns="http://www.w3.org/2000/svg" width="111.333" height="81.926" viewBox="0 0 111.333 81.926"><g transform="translate(-437.976 -2975.674)"><circle cx="11.98" cy="11.98" r="11.98" transform="translate(481.662 3031.639)" fill="none" stroke="#000" stroke-width="4"/><g transform="translate(439.976 2977.674)"><path d="M515.459,3044.269a38.282,38.282,0,0,0-27.235,11.36,4.03,4.03,0,0,0,0,5.69h0a4,4,0,0,0,5.659.022,30.3,30.3,0,0,1,43.152,0,4,4,0,0,0,5.659-.022h0a4.03,4.03,0,0,0,0-5.69A38.282,38.282,0,0,0,515.459,3044.269Z" transform="translate(-461.792 -3008.538)" fill="none" stroke="#000" stroke-width="4"/><path d="M493.643,2977.674a73.907,73.907,0,0,0-52.488,21.833,4.029,4.029,0,0,0,0,5.694h0a4.024,4.024,0,0,0,5.7-.018,65.976,65.976,0,0,1,93.578,0,4.024,4.024,0,0,0,5.7.018h0a4.029,4.029,0,0,0,0-5.694A73.907,73.907,0,0,0,493.643,2977.674Z" transform="translate(-439.976 -2977.674)" fill="none" stroke="#000" stroke-width="4"/><path d="M504.4,3010.544a56.334,56.334,0,0,0-40.051,16.684,4.018,4.018,0,0,0,.025,5.669h0a4,4,0,0,0,5.665.02,48.374,48.374,0,0,1,68.723,0,4,4,0,0,0,5.665-.02h0a4.018,4.018,0,0,0,.025-5.669A56.334,56.334,0,0,0,504.4,3010.544Z" transform="translate(-450.737 -2992.908)" fill="none" stroke="#000" stroke-width="4"/></g></g></svg>