<svg xmlns="http://www.w3.org/2000/svg" width="110" height="95" viewBox="0 0 110 95"><g transform="translate(-524 -1598)"><g transform="translate(92.024 -1366.674)"><circle cx="10.492" cy="10.492" r="10.492" transform="translate(476.984 3025.662)" fill="none" stroke="#000" stroke-width="4"/><g transform="translate(439.976 2977.674)"><path d="M512.429,3044.269a34.545,34.545,0,0,0-24.331,9.949,3.48,3.48,0,0,0,0,4.983h0a3.623,3.623,0,0,0,5.055.02,27.457,27.457,0,0,1,38.55,0,3.623,3.623,0,0,0,5.055-.02h0a3.48,3.48,0,0,0,0-4.983A34.545,34.545,0,0,0,512.429,3044.269Z" transform="translate(-464.929 -3012.251)" fill="none" stroke="#000" stroke-width="4"/><path d="M487.476,2977.674a65.763,65.763,0,0,0-46.457,19.121,3.5,3.5,0,0,0,0,4.987h0a3.589,3.589,0,0,0,5.045-.015,58.834,58.834,0,0,1,82.826,0,3.589,3.589,0,0,0,5.045.015h0a3.5,3.5,0,0,0,0-4.987A65.763,65.763,0,0,0,487.476,2977.674Z" transform="translate(-439.976 -2977.674)" fill="none" stroke="#000" stroke-width="4"/><path d="M499.784,3010.544a50.367,50.367,0,0,0-35.562,14.611,3.485,3.485,0,0,0,.022,4.965h0a3.591,3.591,0,0,0,5.03.018,43.372,43.372,0,0,1,61.02,0,3.591,3.591,0,0,0,5.03-.018h0a3.485,3.485,0,0,0,.022-4.965A50.367,50.367,0,0,0,499.784,3010.544Z" transform="translate(-452.284 -2994.678)" fill="none" stroke="#000" stroke-width="4"/></g></g><rect width="110" height="95" transform="translate(524 1598)" fill="none"/></g></svg>