<svg xmlns="http://www.w3.org/2000/svg" width="110" height="95" viewBox="0 0 110 95"><g transform="translate(-519 -1398)"><rect width="110" height="95" transform="translate(519 1398)" fill="none"/><g transform="translate(524 1410)"><g transform="translate(-2184.422 2168.369)" fill="none" stroke-linejoin="round"><path d="M2266.587-2164.407a10.563,10.563,0,0,0-10.549,10.558,10.565,10.565,0,0,0,10.549,10.553,10.576,10.576,0,0,0,10.562-10.553A10.575,10.575,0,0,0,2266.587-2164.407Z" stroke="none"/><path d="M 2266.587158203125 -2160.4072265625 C 2262.97607421875 -2160.4072265625 2260.038330078125 -2157.46533203125 2260.038330078125 -2153.84912109375 C 2260.038330078125 -2150.235595703125 2262.97607421875 -2147.2958984375 2266.587158203125 -2147.2958984375 C 2270.20556640625 -2147.2958984375 2273.1494140625 -2150.235595703125 2273.1494140625 -2153.84912109375 C 2273.1494140625 -2157.46533203125 2270.20556640625 -2160.4072265625 2266.587158203125 -2160.4072265625 M 2266.587158203125 -2164.4072265625 C 2272.40771484375 -2164.4072265625 2277.1494140625 -2159.67041015625 2277.1494140625 -2153.84912109375 C 2277.1494140625 -2148.037109375 2272.40771484375 -2143.2958984375 2266.587158203125 -2143.2958984375 C 2260.766357421875 -2143.2958984375 2256.038330078125 -2148.037109375 2256.038330078125 -2153.84912109375 C 2256.038330078125 -2159.67041015625 2260.766357421875 -2164.4072265625 2266.587158203125 -2164.4072265625 Z" stroke="none" fill="#000"/></g><g transform="translate(35.478)" fill="none" stroke="#000" stroke-linejoin="round" stroke-width="4"><circle cx="14.519" cy="14.519" r="14.519" stroke="none"/><circle cx="14.519" cy="14.519" r="12.519" fill="none"/></g><g transform="translate(-2241.634 2168.369)" fill="none" stroke-linejoin="round"><path d="M2259.456-2164.407a10.573,10.573,0,0,0-10.56,10.558,10.574,10.574,0,0,0,10.56,10.553,10.567,10.567,0,0,0,10.552-10.553A10.566,10.566,0,0,0,2259.456-2164.407Z" stroke="none"/><path d="M 2259.456298828125 -2160.4072265625 C 2255.8388671875 -2160.4072265625 2252.89599609375 -2157.46533203125 2252.89599609375 -2153.84912109375 C 2252.89599609375 -2150.235595703125 2255.8388671875 -2147.2958984375 2259.456298828125 -2147.2958984375 C 2263.06884765625 -2147.2958984375 2266.008056640625 -2150.235595703125 2266.008056640625 -2153.84912109375 C 2266.008056640625 -2157.46533203125 2263.06884765625 -2160.4072265625 2259.456298828125 -2160.4072265625 M 2259.456298828125 -2164.4072265625 C 2265.27685546875 -2164.4072265625 2270.008056640625 -2159.67041015625 2270.008056640625 -2153.84912109375 C 2270.008056640625 -2148.037109375 2265.27685546875 -2143.2958984375 2259.456298828125 -2143.2958984375 C 2253.635009765625 -2143.2958984375 2248.89599609375 -2148.037109375 2248.89599609375 -2153.84912109375 C 2248.89599609375 -2159.67041015625 2253.635009765625 -2164.4072265625 2259.456298828125 -2164.4072265625 Z" stroke="none" fill="#000"/></g><g transform="translate(0 27.327)"><g transform="translate(66.957)"><g transform="translate(-2255.521 2161.815)" fill="none" stroke-linejoin="round"><path d="M2275.911-2161.815h-10.353a12.578,12.578,0,0,0-10.038,5.049,18.309,18.309,0,0,1,7.858,15.007v8.229l25.185-5.4v-10.247A12.661,12.661,0,0,0,2275.911-2161.815Z" stroke="none"/><path d="M 2265.558837890625 -2157.815185546875 C 2264.126953125 -2157.815185546875 2262.7490234375 -2157.456298828125 2261.521728515625 -2156.787841796875 C 2265.248046875 -2152.709228515625 2267.378662109375 -2147.35888671875 2267.378662109375 -2141.75927734375 L 2267.378662109375 -2138.47802734375 L 2284.5634765625 -2142.160400390625 L 2284.5634765625 -2149.173828125 C 2284.5634765625 -2153.938720703125 2280.68212890625 -2157.815185546875 2275.911376953125 -2157.815185546875 L 2265.558837890625 -2157.815185546875 M 2265.558837890625 -2161.815185546875 L 2275.911376953125 -2161.815185546875 C 2282.8857421875 -2161.815185546875 2288.5634765625 -2156.14697265625 2288.5634765625 -2149.173828125 L 2288.5634765625 -2138.9267578125 L 2263.378662109375 -2133.530029296875 L 2263.378662109375 -2141.75927734375 C 2263.378662109375 -2147.97509765625 2260.251953125 -2153.4521484375 2255.52099609375 -2156.7666015625 C 2257.828125 -2159.81298828125 2261.45068359375 -2161.815185546875 2265.558837890625 -2161.815185546875 Z" stroke="none" fill="#000"/></g></g><g transform="translate(-2248.089 2161.815)" fill="none" stroke-linejoin="round"><path d="M2273.276-2141.759a18.317,18.317,0,0,1,7.883-15.038,12.708,12.708,0,0,0-10.064-5.018h-10.362a12.658,12.658,0,0,0-12.643,12.641v10.292l25.187,6.73Z" stroke="none"/><path d="M 2269.27587890625 -2137.36083984375 L 2269.27587890625 -2141.75927734375 C 2269.27587890625 -2147.367431640625 2271.405029296875 -2152.719970703125 2275.13037109375 -2156.798583984375 C 2273.89892578125 -2157.460205078125 2272.521728515625 -2157.815185546875 2271.094970703125 -2157.815185546875 L 2260.732666015625 -2157.815185546875 C 2255.966796875 -2157.815185546875 2252.08935546875 -2153.938720703125 2252.08935546875 -2149.173828125 L 2252.08935546875 -2141.952880859375 L 2269.27587890625 -2137.36083984375 M 2273.27587890625 -2132.151611328125 L 2248.08935546875 -2138.88134765625 L 2248.08935546875 -2149.173828125 C 2248.08935546875 -2156.14697265625 2253.7666015625 -2161.815185546875 2260.732666015625 -2161.815185546875 L 2271.094970703125 -2161.815185546875 C 2275.21435546875 -2161.815185546875 2278.842529296875 -2159.8046875 2281.15869140625 -2156.796875 C 2276.402099609375 -2153.47802734375 2273.27587890625 -2147.982177734375 2273.27587890625 -2141.75927734375 L 2273.27587890625 -2132.151611328125 Z" stroke="none" fill="#000"/></g><g transform="translate(-2223.699 2165.339)" fill="none" stroke-linejoin="round"><path d="M2280.168-2161.375h-12.949a16.108,16.108,0,0,0-16.083,16.093v15.42l22.563,8.577,22.563-8.577v-15.42A16.11,16.11,0,0,0,2280.168-2161.375Z" stroke="none"/><path d="M 2267.21826171875 -2157.37548828125 C 2260.555419921875 -2157.37548828125 2255.134765625 -2151.95068359375 2255.134765625 -2145.28271484375 L 2255.134765625 -2132.621826171875 L 2273.69775390625 -2125.565185546875 L 2292.260498046875 -2132.621826171875 L 2292.260498046875 -2145.28271484375 C 2292.260498046875 -2151.95068359375 2286.835693359375 -2157.37548828125 2280.167724609375 -2157.37548828125 L 2267.21826171875 -2157.37548828125 M 2267.21826171875 -2161.37548828125 L 2280.167724609375 -2161.37548828125 C 2289.042724609375 -2161.37548828125 2296.260498046875 -2154.156982421875 2296.260498046875 -2145.28271484375 L 2296.260498046875 -2129.863037109375 L 2273.69775390625 -2121.285888671875 L 2251.134765625 -2129.863037109375 L 2251.134765625 -2145.28271484375 C 2251.134765625 -2154.156982421875 2258.353271484375 -2161.37548828125 2267.21826171875 -2161.37548828125 Z" stroke="none" fill="#000"/></g></g></g></g></svg>