<svg xmlns="http://www.w3.org/2000/svg" width="97.708" height="93" viewBox="0 0 97.708 93"><g transform="translate(2)"><g transform="translate(1265.463 -1029.043)" fill="none" stroke-linecap="round" stroke-linejoin="round"><path d="M-1179.787,1029.043h-61.007a10.032,10.032,0,0,0-10.032,10.032v42.583a10.032,10.032,0,0,0,10.032,10.032h41.655l19.352,20.37v-20.37h0a10.031,10.031,0,0,0,10.031-10.032v-42.583A10.031,10.031,0,0,0-1179.787,1029.043Z" stroke="none"/><path d="M -1240.7939453125 1033.04296875 C -1244.119995117188 1033.04296875 -1246.825927734375 1035.748779296875 -1246.825927734375 1039.07470703125 L -1246.825927734375 1081.657348632812 C -1246.825927734375 1084.983276367188 -1244.119995117188 1087.689086914062 -1240.7939453125 1087.689086914062 L -1199.138549804688 1087.689086914062 C -1198.042114257812 1087.689086914062 -1196.993774414062 1088.13916015625 -1196.238647460938 1088.933959960938 L -1183.78662109375 1102.040771484375 L -1183.78662109375 1091.689086914062 C -1183.78662109375 1089.47998046875 -1181.995727539062 1087.689086914062 -1179.78662109375 1087.689086914062 C -1176.461181640625 1087.689086914062 -1173.755737304688 1084.983276367188 -1173.755737304688 1081.657348632812 L -1173.755737304688 1039.07470703125 C -1173.755737304688 1035.748779296875 -1176.461181640625 1033.04296875 -1179.78662109375 1033.04296875 L -1240.7939453125 1033.04296875 M -1240.7939453125 1029.04296875 L -1179.78662109375 1029.04296875 C -1174.246948242188 1029.04296875 -1169.755737304688 1033.5341796875 -1169.755737304688 1039.07470703125 L -1169.755737304688 1081.657348632812 C -1169.755737304688 1087.19775390625 -1174.246948242188 1091.689086914062 -1179.78662109375 1091.689086914062 L -1179.78662109375 1112.05859375 L -1199.138549804688 1091.689086914062 L -1240.7939453125 1091.689086914062 C -1246.33447265625 1091.689086914062 -1250.825927734375 1087.19775390625 -1250.825927734375 1081.657348632812 L -1250.825927734375 1039.07470703125 C -1250.825927734375 1033.5341796875 -1246.33447265625 1029.04296875 -1240.7939453125 1029.04296875 Z" stroke="none" fill="#000"/></g><path d="M-1253.2,1074.957h-5.528a10.747,10.747,0,0,0-10.748,10.747v20.575a10.748,10.748,0,0,0,10.748,10.747h0v12.9l19.96-12.9h16.89a10.748,10.748,0,0,0,10.748-10.747v-6.756" transform="translate(1269.478 -1038.925)" fill="none" stroke="#000" stroke-linecap="round" stroke-linejoin="round" stroke-width="4"/><line x2="21.189" transform="translate(28.559 13.921)" fill="none" stroke="#000" stroke-linecap="round" stroke-linejoin="round" stroke-width="4"/><line x2="56.197" transform="translate(27.945 33.268)" fill="none" stroke="#000" stroke-linecap="round" stroke-linejoin="round" stroke-width="4"/><line x2="56.197" transform="translate(27.945 44.937)" fill="none" stroke="#000" stroke-linecap="round" stroke-linejoin="round" stroke-width="4"/></g></svg>