<svg xmlns="http://www.w3.org/2000/svg" width="90.216" height="93.863" viewBox="0 0 90.216 93.863"><path d="M1265.158,727.234h-5.567v-.845c0-3.023-3.023-5.483-6.74-5.483s-6.741,2.46-6.741,5.483v.845h-5.566a1.07,1.07,0,0,0-1.07,1.07v28a1.07,1.07,0,0,0,1.07,1.07h24.613a1.07,1.07,0,0,0,1.07-1.07v-28A1.07,1.07,0,0,0,1265.158,727.234Zm-16.907-.845c0-1.843,2.063-3.342,4.6-3.342s4.6,1.5,4.6,3.342v.845h-9.2Zm-2.141,2.986V733.7a1.07,1.07,0,1,0,2.141,0v-4.328h9.2V733.7a1.07,1.07,0,1,0,2.141,0v-4.328h4.5V750.1h-22.473V729.374Zm-4.5,25.858v-2.992h22.473v2.992Z" transform="translate(-1189.61 -672.251)"/><path d="M1162.952,624.446a27,27,0,0,0-5.428.549V595.6a11.083,11.083,0,0,0-11.07-11.07h-35.673a11.082,11.082,0,0,0-11.07,11.07v64.823a11.082,11.082,0,0,0,11.07,11.07h31.986a2.838,2.838,0,0,0,1.636-.517,26.966,26.966,0,1,0,18.549-46.532Zm-25.556,35.59h-31.977v-63h46.4v29.2a2.866,2.866,0,0,0,.065.6,26.938,26.938,0,0,0-14.484,33.2Zm-26.616-69.8h35.673a5.367,5.367,0,0,1,5.162,3.931h-46A5.366,5.366,0,0,1,1110.781,590.24Zm-4.753,72.656h32.519a26.911,26.911,0,0,0,1.591,2.89h-29.357A5.364,5.364,0,0,1,1106.028,662.9Zm56.925,11.931a23.407,23.407,0,1,1,23.407-23.407A23.434,23.434,0,0,1,1162.952,674.828Z" transform="translate(-1099.711 -584.532)"/><path d="M1169.757,759.949a6.088,6.088,0,1,0,6.088,6.088A6.095,6.095,0,0,0,1169.757,759.949Zm0,9.314a3.227,3.227,0,1,1,3.226-3.226A3.23,3.23,0,0,1,1169.757,769.263Z" transform="translate(-1140.85 -697.364)"/></svg>