<svg xmlns="http://www.w3.org/2000/svg" width="93.699" height="96" viewBox="0 0 93.699 96"><path d="M799.407,624.659h-8.251a16.538,16.538,0,0,0-21.5-7.7v-20.31a2.854,2.854,0,0,0-2.854-2.854H753.076v-4.286a13.967,13.967,0,0,0-27.935,0v4.286H711.416a2.854,2.854,0,0,0-2.854,2.854v63a2.854,2.854,0,0,0,2.854,2.854H753.83l.624,6.458a2.854,2.854,0,0,0,2.841,2.579h38.137a2.854,2.854,0,0,0,2.841-2.58l3.976-41.171a2.854,2.854,0,0,0-2.841-3.128Zm-15.146,0h-15.8a10.828,10.828,0,0,1,15.8,0Zm-53.412-35.154a8.259,8.259,0,0,1,16.518,0v4.286H730.849Zm-5.708,9.994v8.426a2.854,2.854,0,1,0,5.708,0V599.5h16.518v8.426a2.854,2.854,0,1,0,5.708,0V599.5h10.87v21.559h.079a16.614,16.614,0,0,0-2.456,3.6h-8.251a2.854,2.854,0,0,0-2.841,3.128l1.686,17.457H714.27V599.5Zm-10.87,57.293v-5.84h38.444l.564,5.84Zm78.569,9.037H759.886l-3.425-35.462h3.429a16.7,16.7,0,0,0-.09,1.724,2.854,2.854,0,1,0,5.708,0,10.911,10.911,0,0,1,.138-1.724h21.43a10.911,10.911,0,0,1,.138,1.724,2.854,2.854,0,0,0,5.708,0,16.7,16.7,0,0,0-.09-1.724h3.429Z" transform="translate(-708.562 -575.538)"/></svg>