<svg xmlns="http://www.w3.org/2000/svg" width="110" height="95" viewBox="0 0 110 95"><g transform="translate(-1272 -1398)"><g transform="translate(1374.717 -1427.957)"><path d="M14.363,2867.519,2.919,2856.135a1.43,1.43,0,0,0-1.009-.417H-11.9v-5.51a5.257,5.257,0,0,0-5.25-5.252H-69.989a1.431,1.431,0,0,0-1.431,1.431,1.431,1.431,0,0,0,1.431,1.431h52.841a2.393,2.393,0,0,1,2.389,2.39V2883.4a9.523,9.523,0,0,0-7.966,7.968H-46.038a9.523,9.523,0,0,0-9.4-8.087,9.523,9.523,0,0,0-9.4,8.087h-7.521a1.43,1.43,0,0,0-1.431,1.431,1.431,1.431,0,0,0,1.431,1.431h7.521a9.523,9.523,0,0,0,9.4,8.087,9.524,9.524,0,0,0,9.4-8.087h23.313a9.524,9.524,0,0,0,9.4,8.087,9.524,9.524,0,0,0,9.4-8.087h12a6.726,6.726,0,0,0,6.717-6.719v-18.974A1.433,1.433,0,0,0,14.363,2867.519Zm-69.8,31.933a6.663,6.663,0,0,1-6.655-6.656,6.663,6.663,0,0,1,6.655-6.656,6.663,6.663,0,0,1,6.655,6.656A6.663,6.663,0,0,1-55.435,2899.452Zm67.358-30.323v2.826H-5.727V2858.58H1.32Zm-25.252,30.323a6.663,6.663,0,0,1-6.655-6.656,6.663,6.663,0,0,1,6.655-6.656,6.663,6.663,0,0,1,6.655,6.656A6.663,6.663,0,0,1-13.328,2899.452Zm21.4-8.087h-12A9.523,9.523,0,0,0-11.9,2883.4V2858.58h3.31v14.806a1.431,1.431,0,0,0,1.431,1.431H11.924v12.691A3.861,3.861,0,0,1,8.067,2891.365Z" transform="translate(-12.502)" stroke="#000" stroke-width="1"/><path d="M-74.371,2869.344h31.913a1.433,1.433,0,0,0,1.433-1.433,1.433,1.433,0,0,0-1.433-1.433H-74.371a1.433,1.433,0,0,0-1.433,1.433A1.433,1.433,0,0,0-74.371,2869.344Z" transform="translate(-11.446 -11.258)" stroke="#000" stroke-width="1"/><path d="M-59.012,2890.216a1.433,1.433,0,0,0-1.433-1.433H-96.284a1.433,1.433,0,0,0-1.433,1.433,1.433,1.433,0,0,0,1.433,1.433h35.839A1.433,1.433,0,0,0-59.012,2890.216Z" transform="translate(0 -22.925)" stroke="#000" stroke-width="1"/><path d="M-47.964,2912.52a1.433,1.433,0,0,0-1.433-1.433H-79.067a1.433,1.433,0,0,0-1.433,1.433,1.433,1.433,0,0,0,1.433,1.433H-49.4A1.433,1.433,0,0,0-47.964,2912.52Z" transform="translate(-8.993 -34.593)" stroke="#000" stroke-width="1"/></g><rect width="110" height="95" transform="translate(1272 1398)" fill="none"/></g></svg>