<svg xmlns="http://www.w3.org/2000/svg" width="96.2" height="93.706" viewBox="0 0 96.2 93.706"><g transform="translate(0 10.62)"><g transform="translate(22.148 58.423)"><path d="M0,0H9.275a0,0,0,0,1,0,0V17.939a2,2,0,0,1-2,2H2a2,2,0,0,1-2-2V0A0,0,0,0,1,0,0Z" transform="matrix(0.882, -0.471, 0.471, 0.882, 0, 4.371)" fill="none" stroke="#000" stroke-width="4"/></g><g transform="translate(0 34.697)"><g transform="translate(0 11.43) rotate(-28.117)" fill="none" stroke="#000" stroke-linejoin="round" stroke-width="4"><path d="M5,0H24.253a0,0,0,0,1,0,0V20.257a0,0,0,0,1,0,0H5a5,5,0,0,1-5-5V5A5,5,0,0,1,5,0Z" stroke="none"/><path d="M5,2H22.253a0,0,0,0,1,0,0V18.257a0,0,0,0,1,0,0H5a3,3,0,0,1-3-3V5A3,3,0,0,1,5,2Z" fill="none"/></g></g><g transform="translate(21.706)"><g transform="translate(0 3.644)"><g transform="translate(-2281.436 2163.084)" fill="none" stroke-linejoin="round"><path d="M2309.114-2163.084l-26.2,22.64a5.1,5.1,0,0,0-.754,6.268l9.988,18.7a5.122,5.122,0,0,0,5.639,2.863l33.369-9.221Z" stroke="none"/><path d="M 2307.94384765625 -2156.78662109375 L 2285.52880859375 -2137.417724609375 C 2285.527099609375 -2137.416259765625 2285.525390625 -2137.414794921875 2285.52392578125 -2137.413330078125 C 2285.447998046875 -2137.3095703125 2285.31005859375 -2136.7626953125 2285.68212890625 -2136.07080078125 C 2285.68408203125 -2136.0673828125 2285.685791015625 -2136.06396484375 2285.6875 -2136.060546875 L 2295.672119140625 -2117.363037109375 C 2296.01513671875 -2116.728759765625 2296.5244140625 -2116.46533203125 2296.72119140625 -2116.46533203125 C 2296.72216796875 -2116.46533203125 2296.722900390625 -2116.46533203125 2296.7236328125 -2116.46533203125 L 2325.271728515625 -2124.3544921875 L 2307.94384765625 -2156.78662109375 M 2309.1142578125 -2163.08447265625 L 2331.1552734375 -2121.83056640625 L 2297.78662109375 -2112.609130859375 C 2295.69970703125 -2112.029541015625 2293.345703125 -2113.24462890625 2292.147216796875 -2115.47216796875 L 2282.1591796875 -2134.17626953125 C 2280.960693359375 -2136.405029296875 2281.27783203125 -2139.042724609375 2282.91357421875 -2140.4443359375 L 2309.1142578125 -2163.08447265625 Z" stroke="none" fill="#000"/></g></g><g transform="translate(31.102)"><path d="M2283.207-2162.51l22.9,42.872c2.527-.863,3.527-4.1,2.02-6.92l-18.056-33.775C2288.561-2163.157,2285.329-2164.128,2283.207-2162.51Z" transform="translate(-2283.207 2163.292)"/></g></g></g><g transform="translate(73.029 13.653)"><path d="M2303.492-2158.995l-15.911,8.52a2.207,2.207,0,0,1-2.966-.913,2.2,2.2,0,0,1,.912-2.971l15.912-8.5a2.2,2.2,0,0,1,2.966.9A2.18,2.18,0,0,1,2303.492-2158.995Z" transform="translate(-2284.358 2163.119)"/></g><g transform="translate(65.993)"><g transform="translate(14.076 33.937)"><path d="M2299.735-2157.822a2.243,2.243,0,0,1-.794.228l-11.733,1.406a2.2,2.2,0,0,1-2.437-1.932,2.243,2.243,0,0,1,1.934-2.441l11.747-1.388a2.2,2.2,0,0,1,2.423,1.934A2.214,2.214,0,0,1,2299.735-2157.822Z" transform="translate(-2284.759 2161.964)"/></g><path d="M2287.2-2150.789a2.162,2.162,0,0,1-2.461-.264,2.2,2.2,0,0,1-.261-3.093l7.691-8.974a2.181,2.181,0,0,1,3.091-.245,2.2,2.2,0,0,1,.262,3.091l-7.691,8.974A2.189,2.189,0,0,1,2287.2-2150.789Z" transform="translate(-2283.958 2163.896)"/></g></svg>