<svg xmlns="http://www.w3.org/2000/svg" width="110" height="95" viewBox="0 0 110 95"><g transform="translate(-713 -1398)"><g transform="translate(721 1400.25)"><g transform="translate(0 10.439)"><g transform="translate(21.771 57.843)"><path d="M0,0H9.117a0,0,0,0,1,0,0V17.6a2,2,0,0,1-2,2H2a2,2,0,0,1-2-2V0A0,0,0,0,1,0,0Z" transform="matrix(0.882, -0.471, 0.471, 0.882, 0, 4.297)" fill="none" stroke="#000" stroke-width="4"/></g><g transform="translate(0 34.388)"><g transform="translate(0 11.235) rotate(-28.117)" fill="none" stroke="#000" stroke-linejoin="round" stroke-width="4"><path d="M5,0H23.839a0,0,0,0,1,0,0V19.911a0,0,0,0,1,0,0H5a5,5,0,0,1-5-5V5A5,5,0,0,1,5,0Z" stroke="none"/><path d="M5,2H21.839a0,0,0,0,1,0,0V17.911a0,0,0,0,1,0,0H5a3,3,0,0,1-3-3V5A3,3,0,0,1,5,2Z" fill="none"/></g></g><g transform="translate(21.336)"><g transform="translate(0 3.582)"><g transform="translate(-2281.436 2163.084)" fill="none" stroke-linejoin="round"><path d="M2308.642-2163.084l-25.754,22.254a5.009,5.009,0,0,0-.741,6.161l9.818,18.385a5.034,5.034,0,0,0,5.543,2.814l32.8-9.064Z" stroke="none"/><path d="M 2307.4716796875 -2156.78662109375 L 2285.50634765625 -2137.80615234375 C 2285.42236328125 -2137.671630859375 2285.35498046875 -2137.149658203125 2285.670166015625 -2136.563720703125 C 2285.671875 -2136.560302734375 2285.673828125 -2136.556884765625 2285.675537109375 -2136.553466796875 L 2295.48974609375 -2118.175048828125 C 2295.828369140625 -2117.54833984375 2296.31103515625 -2117.336181640625 2296.45361328125 -2117.328857421875 L 2324.423828125 -2125.05810546875 L 2307.4716796875 -2156.78662109375 M 2308.64208984375 -2163.08447265625 L 2330.307373046875 -2122.5341796875 L 2297.507568359375 -2113.47021484375 C 2295.45556640625 -2112.900634765625 2293.142578125 -2114.0947265625 2291.96484375 -2116.2841796875 L 2282.147216796875 -2134.669189453125 C 2280.968994140625 -2136.860107421875 2281.28076171875 -2139.452880859375 2282.88818359375 -2140.830322265625 L 2308.64208984375 -2163.08447265625 Z" stroke="none" fill="#000"/></g></g><g transform="translate(30.572)"><path d="M2283.207-2162.523l22.51,42.141c2.484-.848,3.467-4.027,1.986-6.8l-17.748-33.2C2288.469-2163.16,2285.293-2164.114,2283.207-2162.523Z" transform="translate(-2283.207 2163.292)"/></g></g></g><g transform="translate(72.224 13.493)"><path d="M2303.166-2159.065l-15.639,8.375a2.17,2.17,0,0,1-2.916-.9,2.16,2.16,0,0,1,.9-2.921l15.641-8.355a2.16,2.16,0,0,1,2.915.883A2.143,2.143,0,0,1,2303.166-2159.065Z" transform="translate(-2284.358 2163.12)"/></g><g transform="translate(65.308)"><g transform="translate(13.836 33.358)"><path d="M2299.48-2157.893a2.206,2.206,0,0,1-.781.224l-11.533,1.382a2.167,2.167,0,0,1-2.4-1.9,2.205,2.205,0,0,1,1.9-2.4l11.547-1.364a2.164,2.164,0,0,1,2.382,1.9A2.177,2.177,0,0,1,2299.48-2157.893Z" transform="translate(-2284.759 2161.964)"/></g><path d="M2287.14-2151.013a2.125,2.125,0,0,1-2.419-.259,2.164,2.164,0,0,1-.257-3.04l7.56-8.822a2.144,2.144,0,0,1,3.038-.241,2.161,2.161,0,0,1,.258,3.038l-7.56,8.821A2.157,2.157,0,0,1,2287.14-2151.013Z" transform="translate(-2283.958 2163.896)"/></g></g><rect width="110" height="95" transform="translate(713 1398)" fill="none"/></g></svg>