<svg xmlns="http://www.w3.org/2000/svg" width="110" height="95" viewBox="0 0 110 95"><g transform="translate(-1287 -1607)"><g transform="translate(1300 1612)"><g transform="translate(4.403 4.724)"><g transform="translate(-2266.926 2164.168)" fill="none"><path d="M2294.127-2130.934l5.855-5.806-16.225-16.365.18-2.75-10.794-8.314-6.217,6.166,8.231,10.862,2.743-.155Z" stroke="none"/><path d="M 2294.127197265625 -2130.93359375 L 2299.982421875 -2136.73974609375 L 2283.75732421875 -2153.1044921875 L 2283.93701171875 -2155.854736328125 L 2273.142578125 -2164.16845703125 L 2266.92578125 -2158.00244140625 L 2275.156494140625 -2147.140625 L 2277.89990234375 -2147.295654296875 L 2294.127197265625 -2130.93359375 M 2294.109619140625 -2126.691162109375 L 2276.720703125 -2144.22412109375 L 2273.73046875 -2144.05517578125 L 2262.948974609375 -2158.283447265625 L 2272.8935546875 -2168.14697265625 L 2287.034912109375 -2157.25537109375 L 2286.839111328125 -2154.257080078125 L 2304.224853515625 -2136.7216796875 L 2294.109619140625 -2126.691162109375 Z" stroke="none" fill="#000"/></g><g transform="translate(-2229.902 2201.556)" fill="none"><path d="M2286.391-2158.862l-.858-.861a3.594,3.594,0,0,0-5.08-.05l-9.141,9.071a3.6,3.6,0,0,0,0,5.083l.856.858Z" stroke="none"/><path d="M 2282.954345703125 -2160.799072265625 C 2282.047607421875 -2160.799072265625 2281.14453125 -2160.4580078125 2280.452880859375 -2159.77197265625 L 2271.312255859375 -2150.70068359375 C 2269.92138671875 -2149.309814453125 2269.905029296875 -2147.033447265625 2271.312255859375 -2145.617919921875 L 2272.16845703125 -2144.760009765625 L 2286.39111328125 -2158.86181640625 L 2285.533203125 -2159.722412109375 C 2284.821533203125 -2160.438720703125 2283.885986328125 -2160.798828125 2282.954345703125 -2160.799072265625 M 2282.9541015625 -2163.799072265625 L 2282.9541015625 -2160.799072265625 L 2282.95458984375 -2163.799072265625 C 2284.732666015625 -2163.798828125 2286.404052734375 -2163.10205078125 2287.6611328125 -2161.837158203125 L 2290.639404296875 -2158.849365234375 L 2272.1572265625 -2140.5244140625 L 2269.184814453125 -2143.5029296875 C 2266.624755859375 -2146.077880859375 2266.62744140625 -2150.258544921875 2269.19091796875 -2152.822021484375 L 2269.198974609375 -2152.830078125 L 2278.339599609375 -2161.9013671875 C 2279.573486328125 -2163.125244140625 2281.2119140625 -2163.799072265625 2282.9541015625 -2163.799072265625 Z" stroke="none" fill="#000"/></g></g><g transform="translate(-2266.562 2164.559)" fill="none"><path d="M2338.4-2145.663l-5.621-5.683a3.611,3.611,0,0,1,.01-5.092l7.463-7.437a15.466,15.466,0,0,0-15.44,3.677,15.617,15.617,0,0,0-3.875,15.031l-34.961,34.846a15.368,15.368,0,0,0-14.973,3.775,15.626,15.626,0,0,0-3.79,15.492l7.475-7.45a3.561,3.561,0,0,1,5.052.047l5.61,5.685a3.6,3.6,0,0,1,0,5.078l-7.464,7.454a15.465,15.465,0,0,0,15.441-3.69,15.582,15.582,0,0,0,3.875-15.021l34.951-34.845a15.4,15.4,0,0,0,14.984-3.773,15.679,15.679,0,0,0,3.79-15.492l-7.475,7.451A3.557,3.557,0,0,1,2338.4-2145.663Zm-18.426,14.782-19.677,19.776a1.5,1.5,0,0,1-2.13,0,1.528,1.528,0,0,1,0-2.142l19.677-19.764a1.5,1.5,0,0,1,2.131,0A1.512,1.512,0,0,1,2319.969-2130.881Z" stroke="none"/><path d="M 2335.525146484375 -2164.558837890625 C 2331.6328125 -2164.558837890625 2327.783447265625 -2163.1630859375 2324.80810546875 -2160.198486328125 C 2320.738525390625 -2156.136474609375 2319.62060546875 -2150.4130859375 2320.9326171875 -2145.1669921875 L 2285.97119140625 -2110.320556640625 C 2280.769775390625 -2111.687744140625 2275.06689453125 -2110.61328125 2270.998291015625 -2106.545654296875 C 2266.798583984375 -2102.362060546875 2265.692138671875 -2096.423828125 2267.2080078125 -2091.053955078125 L 2274.682861328125 -2098.50439453125 C 2276.078369140625 -2099.8955078125 2278.3408203125 -2099.87060546875 2279.7353515625 -2098.45751953125 L 2285.345703125 -2092.772216796875 C 2286.740478515625 -2091.3564453125 2286.740478515625 -2089.0830078125 2285.345703125 -2087.694580078125 L 2277.8818359375 -2080.240966796875 C 2283.202880859375 -2078.682373046875 2289.123779296875 -2079.746826171875 2293.32275390625 -2083.930908203125 C 2297.392333984375 -2087.982177734375 2298.51220703125 -2093.702880859375 2297.197265625 -2098.951416015625 L 2332.148193359375 -2133.796875 C 2337.3603515625 -2132.429931640625 2343.0517578125 -2133.505126953125 2347.132080078125 -2137.5703125 C 2351.3203125 -2141.755615234375 2352.427490234375 -2147.694580078125 2350.92236328125 -2153.06201171875 L 2343.447509765625 -2145.611328125 C 2342.052734375 -2144.220947265625 2339.77978515625 -2144.24560546875 2338.39501953125 -2145.6630859375 L 2332.774169921875 -2151.34619140625 C 2331.37939453125 -2152.760986328125 2331.37939453125 -2155.03564453125 2332.78466796875 -2156.437744140625 L 2340.248046875 -2163.875244140625 C 2338.704345703125 -2164.3271484375 2337.11083984375 -2164.558837890625 2335.525146484375 -2164.558837890625 M 2299.227294921875 -2110.661865234375 C 2298.8427734375 -2110.661865234375 2298.457763671875 -2110.8095703125 2298.16162109375 -2111.10498046875 C 2297.584228515625 -2111.698974609375 2297.57080078125 -2112.656005859375 2298.16162109375 -2113.246826171875 L 2317.83837890625 -2133.0107421875 C 2318.428466796875 -2133.603759765625 2319.379638671875 -2133.603271484375 2319.96923828125 -2133.0107421875 C 2320.548828125 -2132.4306640625 2320.5595703125 -2131.473388671875 2319.96923828125 -2130.881103515625 L 2300.291748046875 -2111.10498046875 C 2299.996337890625 -2110.8095703125 2299.612060546875 -2110.661865234375 2299.227294921875 -2110.661865234375 M 2335.525146484375 -2167.558837890625 C 2337.394287109375 -2167.558837890625 2339.26708984375 -2167.288330078125 2341.0908203125 -2166.75439453125 L 2345.957763671875 -2165.329833984375 L 2334.90234375 -2154.312744140625 C 2334.66943359375 -2154.080322265625 2334.672607421875 -2153.69384765625 2334.91064453125 -2153.452392578125 L 2340.54150390625 -2147.759033203125 C 2340.682861328125 -2147.6142578125 2340.84423828125 -2147.583984375 2340.95458984375 -2147.583984375 C 2341.05615234375 -2147.583984375 2341.203369140625 -2147.6103515625 2341.32958984375 -2147.736083984375 L 2352.42919921875 -2158.7998046875 L 2353.81103515625 -2153.8720703125 C 2354.706787109375 -2150.677490234375 2354.80224609375 -2147.33447265625 2354.0869140625 -2144.20458984375 C 2353.326171875 -2140.87646484375 2351.654541015625 -2137.8486328125 2349.252685546875 -2135.4482421875 C 2345.876953125 -2132.085205078125 2341.33447265625 -2130.23486328125 2336.45849609375 -2130.23486328125 C 2335.343994140625 -2130.23486328125 2334.223876953125 -2130.3310546875 2333.112060546875 -2130.521484375 L 2300.4609375 -2097.968994140625 C 2301.447021484375 -2091.916015625 2299.628662109375 -2085.975341796875 2295.439208984375 -2081.804931640625 C 2292.04443359375 -2078.422119140625 2287.481689453125 -2076.558837890625 2282.59228515625 -2076.558837890625 C 2280.72607421875 -2076.558837890625 2278.857421875 -2076.8291015625 2277.038330078125 -2077.362060546875 L 2272.178955078125 -2078.78564453125 L 2283.225830078125 -2089.8173828125 C 2283.45556640625 -2090.0458984375 2283.4462890625 -2090.425537109375 2283.20849609375 -2090.666748046875 L 2277.60009765625 -2096.350341796875 C 2277.451416015625 -2096.500732421875 2277.28662109375 -2096.532470703125 2277.174560546875 -2096.532470703125 C 2277.028076171875 -2096.532470703125 2276.90234375 -2096.48095703125 2276.800537109375 -2096.379638671875 L 2265.70849609375 -2085.323486328125 L 2264.32080078125 -2090.239013671875 C 2263.41845703125 -2093.43603515625 2263.319580078125 -2096.78125 2264.03515625 -2099.912841796875 C 2264.7958984375 -2103.242431640625 2266.4716796875 -2106.27099609375 2268.881103515625 -2108.671142578125 C 2272.2451171875 -2112.0322265625 2276.78466796875 -2113.883056640625 2281.66455078125 -2113.883056640625 C 2282.779052734375 -2113.883056640625 2283.89794921875 -2113.787109375 2285.00830078125 -2113.596435546875 L 2317.66943359375 -2146.150390625 C 2316.68603515625 -2152.201171875 2318.50341796875 -2158.144287109375 2322.688720703125 -2162.32177734375 C 2326.078857421875 -2165.69970703125 2330.636962890625 -2167.558837890625 2335.525146484375 -2167.558837890625 Z" stroke="none" fill="#000"/></g><g transform="translate(-2222.154 2210.086)" fill="none"><path d="M2270.6-2146.343l18.068,18.216a9.769,9.769,0,0,0,13.815.11l.409-.4a9.775,9.775,0,0,0,0-13.815l-18.067-18.226Zm24.7,14.115a1.5,1.5,0,0,1,0,2.128,1.5,1.5,0,0,1-2.141,0l-16.522-16.519a1.52,1.52,0,0,1,0-2.142,1.52,1.52,0,0,1,2.141,0Zm5.646-5.649a1.516,1.516,0,0,1,0,2.142,1.52,1.52,0,0,1-2.139,0l-16.522-16.533a1.5,1.5,0,0,1,0-2.128,1.517,1.517,0,0,1,2.142,0Z" stroke="none"/><path d="M 2284.825927734375 -2160.45556640625 L 2270.602294921875 -2146.342529296875 L 2288.669921875 -2128.126708984375 C 2292.483154296875 -2124.281982421875 2298.67578125 -2124.231201171875 2302.484619140625 -2128.016357421875 L 2302.893310546875 -2128.41455078125 C 2306.70458984375 -2132.203369140625 2306.70458984375 -2138.384033203125 2302.893310546875 -2142.229248046875 L 2284.825927734375 -2160.45556640625 M 2299.8828125 -2135.29443359375 C 2299.494140625 -2135.29443359375 2299.105224609375 -2135.442626953125 2298.808349609375 -2135.734619140625 L 2282.2861328125 -2152.26806640625 C 2281.693359375 -2152.84765625 2281.693359375 -2153.80224609375 2282.2861328125 -2154.396240234375 C 2282.87744140625 -2154.986572265625 2283.8349609375 -2154.986572265625 2284.42822265625 -2154.396240234375 L 2300.94775390625 -2137.87646484375 C 2301.538330078125 -2137.283447265625 2301.538330078125 -2136.325927734375 2300.94775390625 -2135.734619140625 C 2300.652587890625 -2135.439697265625 2300.267822265625 -2135.29443359375 2299.8828125 -2135.29443359375 M 2294.235107421875 -2129.64892578125 C 2293.846435546875 -2129.64892578125 2293.457763671875 -2129.800537109375 2293.159912109375 -2130.099853515625 L 2276.63818359375 -2146.61865234375 C 2276.0556640625 -2147.201171875 2276.04443359375 -2148.153564453125 2276.63818359375 -2148.760498046875 C 2277.228759765625 -2149.353515625 2278.18603515625 -2149.3427734375 2278.779052734375 -2148.760498046875 L 2295.30126953125 -2132.2275390625 C 2295.8935546875 -2131.645263671875 2295.8935546875 -2130.69287109375 2295.30126953125 -2130.099853515625 C 2295.005126953125 -2129.7978515625 2294.6201171875 -2129.64892578125 2294.235107421875 -2129.64892578125 M 2284.843505859375 -2164.69921875 L 2305.02392578125 -2144.34130859375 C 2307.427978515625 -2141.915771484375 2308.751708984375 -2138.705322265625 2308.751708984375 -2135.30078125 C 2308.751708984375 -2131.887939453125 2307.42236328125 -2128.686767578125 2305.00830078125 -2126.286865234375 L 2304.588134765625 -2125.877197265625 C 2302.202392578125 -2123.51220703125 2299.03173828125 -2122.2099609375 2295.658203125 -2122.2099609375 C 2293.984619140625 -2122.2099609375 2292.3515625 -2122.530517578125 2290.80419921875 -2123.162841796875 C 2289.20166015625 -2123.8173828125 2287.76708984375 -2124.77685546875 2286.539794921875 -2126.01416015625 L 2266.360107421875 -2146.359375 L 2284.843505859375 -2164.69921875 Z" stroke="none" fill="#000"/></g></g><rect width="110" height="95" transform="translate(1287 1607)" fill="none"/></g></svg>