<svg xmlns="http://www.w3.org/2000/svg" width="96.305" height="95.86" viewBox="0 0 96.305 95.86"><g transform="translate(2.999 3)"><g transform="translate(4.654 4.994)"><g transform="translate(-2266.926 2164.168)" fill="none"><path d="M2295.683-2129.033l6.19-6.138-17.153-17.3.19-2.907-11.412-8.789-6.572,6.518,8.7,11.483,2.9-.164Z" stroke="none"/><path d="M 2295.6826171875 -2129.033447265625 L 2301.87255859375 -2135.171630859375 L 2284.7197265625 -2152.471923828125 L 2284.90966796875 -2155.37939453125 L 2273.498046875 -2164.16845703125 L 2266.92578125 -2157.650146484375 L 2275.626953125 -2146.167236328125 L 2278.52734375 -2146.3310546875 L 2295.6826171875 -2129.033447265625 M 2295.6650390625 -2124.791015625 L 2277.34814453125 -2143.259765625 L 2274.200927734375 -2143.081787109375 L 2262.948974609375 -2157.93115234375 L 2273.2490234375 -2168.146728515625 L 2288.007568359375 -2156.780029296875 L 2287.801513671875 -2153.624755859375 L 2306.114990234375 -2135.153564453125 L 2295.6650390625 -2124.791015625 Z" stroke="none" fill="#000"/></g><g transform="translate(-2227.594 2203.886)" fill="none"><path d="M2287.313-2158.751l-.907-.91a3.8,3.8,0,0,0-5.371-.052l-9.663,9.59a3.808,3.808,0,0,0,0,5.374l.905.907Z" stroke="none"/><path d="M 2283.680419921875 -2160.798828125 C 2282.7216796875 -2160.798828125 2281.766845703125 -2160.4384765625 2281.03564453125 -2159.713134765625 L 2271.37255859375 -2150.123291015625 C 2269.902099609375 -2148.65283203125 2269.884765625 -2146.246337890625 2271.37255859375 -2144.749755859375 L 2272.277587890625 -2143.8427734375 L 2287.3134765625 -2158.7509765625 L 2286.406494140625 -2159.660888671875 C 2285.654052734375 -2160.41796875 2284.665283203125 -2160.798828125 2283.680419921875 -2160.798828125 M 2283.679931640625 -2163.798828125 L 2283.6806640625 -2163.798828125 C 2285.513916015625 -2163.798583984375 2287.23779296875 -2163.080322265625 2288.5341796875 -2161.77587890625 L 2291.561767578125 -2158.738525390625 L 2272.266357421875 -2139.60693359375 L 2269.2451171875 -2142.634765625 C 2266.60498046875 -2145.290283203125 2266.60791015625 -2149.601318359375 2269.251220703125 -2152.24462890625 L 2269.25927734375 -2152.252685546875 L 2278.92236328125 -2161.842529296875 C 2280.1943359375 -2163.104248046875 2281.8837890625 -2163.798828125 2283.679931640625 -2163.798828125 L 2283.679931640625 -2163.798828125 Z" stroke="none" fill="#000"/></g></g><g transform="translate(-2266.562 2164.559)" fill="none"><path d="M2342.88-2144.583l-5.972-6.008a3.8,3.8,0,0,1,.011-5.383l7.929-7.863a16.49,16.49,0,0,0-16.4,3.887,16.455,16.455,0,0,0-4.117,15.891l-37.144,36.839a16.384,16.384,0,0,0-15.907,3.991,16.462,16.462,0,0,0-4.027,16.377l7.941-7.876a3.8,3.8,0,0,1,5.368.05l5.96,6.01a3.8,3.8,0,0,1,0,5.368l-7.93,7.88a16.488,16.488,0,0,0,16.405-3.9,16.416,16.416,0,0,0,4.116-15.879l37.133-36.838a16.413,16.413,0,0,0,15.919-3.989,16.518,16.518,0,0,0,4.027-16.377l-7.942,7.876A3.792,3.792,0,0,1,2342.88-2144.583Zm-19.576,15.627-20.906,20.907a1.6,1.6,0,0,1-2.263,0,1.61,1.61,0,0,1,0-2.264l20.906-20.894a1.6,1.6,0,0,1,2.264,0A1.592,1.592,0,0,1,2323.3-2128.956Z" stroke="none"/><path d="M 2339.830322265625 -2164.55908203125 C 2335.695068359375 -2164.55908203125 2331.60546875 -2163.083251953125 2328.4443359375 -2159.94921875 C 2324.120849609375 -2155.655029296875 2322.933349609375 -2149.604248046875 2324.326904296875 -2144.05810546875 L 2287.182861328125 -2107.219482421875 C 2281.657470703125 -2108.6650390625 2275.59765625 -2107.529052734375 2271.275390625 -2103.228759765625 C 2266.8134765625 -2098.805908203125 2265.637939453125 -2092.528076171875 2267.24853515625 -2086.851318359375 L 2275.18994140625 -2094.727783203125 C 2276.672607421875 -2096.197998046875 2279.076171875 -2096.171875 2280.557861328125 -2094.677978515625 L 2286.518310546875 -2088.667724609375 C 2288.000244140625 -2087.171142578125 2288.000244140625 -2084.767822265625 2286.518310546875 -2083.2998046875 L 2278.58837890625 -2075.420166015625 C 2284.24169921875 -2073.771728515625 2290.532470703125 -2074.898193359375 2294.993408203125 -2079.321044921875 C 2299.31689453125 -2083.60400390625 2300.5068359375 -2089.651611328125 2299.109619140625 -2095.200439453125 L 2336.242919921875 -2132.0380859375 C 2341.780029296875 -2130.593994140625 2347.8271484375 -2131.7294921875 2352.162109375 -2136.027099609375 C 2356.611572265625 -2140.45166015625 2357.787841796875 -2146.73046875 2356.18896484375 -2152.404541015625 L 2348.247314453125 -2144.528076171875 C 2346.764892578125 -2143.0576171875 2344.349365234375 -2143.084228515625 2342.879638671875 -2144.582763671875 L 2336.90771484375 -2150.5908203125 C 2335.425537109375 -2152.08642578125 2335.425537109375 -2154.4912109375 2336.919189453125 -2155.973388671875 L 2344.84814453125 -2163.836181640625 C 2343.2080078125 -2164.31396484375 2341.51513671875 -2164.55908203125 2339.830322265625 -2164.55908203125 M 2301.2666015625 -2107.580322265625 C 2300.85791015625 -2107.580322265625 2300.448974609375 -2107.736572265625 2300.13427734375 -2108.048828125 C 2299.52099609375 -2108.676513671875 2299.5068359375 -2109.6884765625 2300.13427734375 -2110.313232421875 L 2321.039794921875 -2131.20703125 C 2321.666259765625 -2131.83349609375 2322.676513671875 -2131.83349609375 2323.303466796875 -2131.20703125 C 2323.919189453125 -2130.59375 2323.930908203125 -2129.581787109375 2323.303466796875 -2128.95556640625 L 2302.397705078125 -2108.048828125 C 2302.083740234375 -2107.736572265625 2301.67529296875 -2107.580322265625 2301.2666015625 -2107.580322265625 M 2339.830322265625 -2167.55908203125 C 2341.79736328125 -2167.55908203125 2343.767822265625 -2167.275634765625 2345.68701171875 -2166.716552734375 L 2350.576904296875 -2165.292236328125 L 2339.031494140625 -2153.84326171875 C 2338.71435546875 -2153.5283203125 2338.717041015625 -2153.027099609375 2339.03857421875 -2152.70263671875 L 2345.021240234375 -2146.68359375 C 2345.2275390625 -2146.47314453125 2345.4716796875 -2146.44189453125 2345.598876953125 -2146.44189453125 C 2345.743896484375 -2146.44189453125 2345.95458984375 -2146.479248046875 2346.134521484375 -2146.65771484375 L 2357.6943359375 -2158.123046875 L 2359.076416015625 -2153.21826171875 C 2360.02099609375 -2149.866455078125 2360.12158203125 -2146.359375 2359.367431640625 -2143.07568359375 C 2358.56640625 -2139.587646484375 2356.806396484375 -2136.41455078125 2354.27734375 -2133.89990234375 C 2352.44921875 -2132.08740234375 2350.3203125 -2130.698486328125 2347.946044921875 -2129.768310546875 C 2345.703125 -2128.889404296875 2343.306396484375 -2128.44384765625 2340.82275390625 -2128.44384765625 C 2339.61572265625 -2128.44384765625 2338.403076171875 -2128.550537109375 2337.199951171875 -2128.76171875 L 2302.37841796875 -2094.21728515625 C 2303.447021484375 -2087.842041015625 2301.535400390625 -2081.5791015625 2297.104736328125 -2077.189697265625 C 2293.53369140625 -2073.649169921875 2288.73486328125 -2071.69873046875 2283.593017578125 -2071.69873046875 C 2281.62939453125 -2071.69873046875 2279.6630859375 -2071.98193359375 2277.74853515625 -2072.5400390625 L 2272.866455078125 -2073.963623046875 L 2284.40380859375 -2085.427978515625 C 2284.711669921875 -2085.73291015625 2284.702392578125 -2086.23779296875 2284.386474609375 -2086.556884765625 L 2278.427734375 -2092.5654296875 C 2278.212890625 -2092.7822265625 2277.96533203125 -2092.814453125 2277.8369140625 -2092.814453125 C 2277.69287109375 -2092.814453125 2277.483154296875 -2092.77685546875 2277.302490234375 -2092.59765625 L 2265.75048828125 -2081.14013671875 L 2264.362548828125 -2086.032470703125 C 2263.41064453125 -2089.386962890625 2263.306396484375 -2092.896484375 2264.060791015625 -2096.181640625 C 2264.86181640625 -2099.670166015625 2266.625244140625 -2102.8427734375 2269.160888671875 -2105.35693359375 C 2272.698974609375 -2108.876220703125 2277.474365234375 -2110.814208984375 2282.607421875 -2110.814208984375 C 2283.813720703125 -2110.814208984375 2285.025390625 -2110.707763671875 2286.226806640625 -2110.496337890625 L 2321.058837890625 -2145.0419921875 C 2319.993408203125 -2151.415771484375 2321.904296875 -2157.681640625 2326.330322265625 -2162.07763671875 C 2329.89599609375 -2165.613037109375 2334.68994140625 -2167.55908203125 2339.830322265625 -2167.55908203125 Z" stroke="none" fill="#000"/></g><g transform="translate(-2218.937 2212.924)" fill="none"><path d="M2270.6-2145.536l19.1,19.257a10.327,10.327,0,0,0,14.6.117l.432-.421a10.334,10.334,0,0,0,0-14.6l-19.1-19.269Zm26.111,14.922a1.582,1.582,0,0,1,0,2.25,1.582,1.582,0,0,1-2.264,0l-17.466-17.463a1.607,1.607,0,0,1,0-2.264,1.607,1.607,0,0,1,2.263,0Zm5.969-5.972a1.6,1.6,0,0,1,0,2.264,1.606,1.606,0,0,1-2.262,0l-17.467-17.479a1.581,1.581,0,0,1,0-2.25,1.6,1.6,0,0,1,2.264,0Z" stroke="none"/><path d="M 2285.63916015625 -2160.45556640625 L 2270.6025390625 -2145.53564453125 L 2289.703125 -2126.2783203125 C 2293.734375 -2122.21435546875 2300.28076171875 -2122.159423828125 2304.3076171875 -2126.16162109375 L 2304.73974609375 -2126.58251953125 C 2308.768798828125 -2130.587890625 2308.768798828125 -2137.1220703125 2304.73974609375 -2141.18701171875 L 2285.63916015625 -2160.45556640625 M 2301.556884765625 -2133.855712890625 C 2301.14599609375 -2133.855712890625 2300.73486328125 -2134.012451171875 2300.421142578125 -2134.3212890625 L 2282.954345703125 -2151.7998046875 C 2282.32763671875 -2152.41259765625 2282.32763671875 -2153.421875 2282.954345703125 -2154.0498046875 C 2283.5791015625 -2154.673828125 2284.591552734375 -2154.673828125 2285.21875 -2154.0498046875 L 2302.682861328125 -2136.58544921875 C 2303.307373046875 -2135.95849609375 2303.307373046875 -2134.9462890625 2302.682861328125 -2134.3212890625 C 2302.37109375 -2134.009521484375 2301.964111328125 -2133.855712890625 2301.556884765625 -2133.855712890625 M 2295.58642578125 -2127.887451171875 C 2295.175537109375 -2127.887451171875 2294.764404296875 -2128.0478515625 2294.44970703125 -2128.3642578125 L 2276.9833984375 -2145.82763671875 C 2276.36767578125 -2146.443359375 2276.355712890625 -2147.4501953125 2276.9833984375 -2148.091796875 C 2277.608642578125 -2148.718994140625 2278.62060546875 -2148.70751953125 2279.246826171875 -2148.091796875 L 2296.713623046875 -2130.61376953125 C 2297.33984375 -2129.998046875 2297.33984375 -2128.9912109375 2296.713623046875 -2128.3642578125 C 2296.400390625 -2128.044921875 2295.993408203125 -2127.887451171875 2295.58642578125 -2127.887451171875 M 2285.65673828125 -2164.69921875 L 2306.870361328125 -2143.299072265625 C 2309.379638671875 -2140.767333984375 2310.761474609375 -2137.416015625 2310.761474609375 -2133.862548828125 C 2310.761474609375 -2130.30029296875 2309.3740234375 -2126.95947265625 2306.854736328125 -2124.455078125 L 2306.8330078125 -2124.433349609375 L 2306.4111328125 -2124.0224609375 C 2303.92138671875 -2121.553955078125 2300.612060546875 -2120.19482421875 2297.091064453125 -2120.19482421875 C 2295.34423828125 -2120.19482421875 2293.639404296875 -2120.529296875 2292.0244140625 -2121.189208984375 C 2290.351806640625 -2121.872802734375 2288.854248046875 -2122.874267578125 2287.5732421875 -2124.165771484375 L 2266.3603515625 -2145.552490234375 L 2285.65673828125 -2164.69921875 Z" stroke="none" fill="#000"/></g></g></svg>