<svg xmlns="http://www.w3.org/2000/svg" xmlns:xlink="http://www.w3.org/1999/xlink" width="214" height="124" viewBox="0 0 214 124"><defs><clipPath id="a"><rect width="214" height="124" transform="translate(345 483)"/></clipPath></defs><g transform="translate(-345 -483)" clip-path="url(#a)"><path d="M32.229,42.027c-2.824,0-4.237-2.219-3.531-4.741,1.513-5.245,11-13.013,17.451-13.013,4.741,0,4.338,4.237,1.614,7.767L46.25,33.755C40.8,39.1,35.658,42.027,32.229,42.027M55.329,6.62c-8.272,0-17.35,5.044-23,9.785l.4.605c8.877-6.153,21.083-10.188,24.512-4.136C59.061,16.1,56.035,22.558,51.7,27.6c1.009-2.219.3-6.557-5.649-6.557-9.886,0-29.354,13.114-29.354,26.53,0,5.346,3.732,8.877,9.886,8.877,16.442,0,38.736-26.933,38.736-40.551.1-4.741-2.724-9.28-9.987-9.28M76.512,42.027a2.817,2.817,0,0,1-2.219-.908,2.674,2.674,0,0,1-.4-2.522,5.241,5.241,0,0,1,4.943-3.631h5.245l-1.917,7.061ZM91.744,20.843a7.928,7.928,0,0,0-5.75-2.724H76.412L74.8,24.172h9.079l.908.1a2.248,2.248,0,0,1,1.311.706,2.863,2.863,0,0,1,.2,2.32l-.605,1.614h-5.75c-4.943,0-11.8,3.531-13.315,9.28a7.631,7.631,0,0,0,1.412,7.162c1.513,1.816,4.237,2.824,7.263,2.824h12l3.127-11.9,2.32-8.675c.908-3.43,0-5.548-1.009-6.759m66.073-2.724a11.69,11.69,0,0,0-6.96,2.219,9.417,9.417,0,0,0-3.732,5.649c-1.412,5.245,2.724,7.868,6.052,9.684,2.421,1.311,4.438,2.421,4.035,4.035-.3,1.21-.807,2.219-3.732,2.219H144.5l-1.614,6.052h9.987a11.268,11.268,0,0,0,7.061-2.118,10.875,10.875,0,0,0,3.833-6.254,6.6,6.6,0,0,0-1.412-6.557,16.725,16.725,0,0,0-4.943-3.43c-2.118-1.11-4.136-2.219-3.833-3.531a2.645,2.645,0,0,1,2.724-1.917h8.776l1.614-6.052h-8.877Zm-52.152,0a11.69,11.69,0,0,0-6.96,2.219,9.417,9.417,0,0,0-3.732,5.649c-1.412,5.245,2.724,7.868,6.052,9.684,2.421,1.311,4.438,2.421,4.035,4.035-.3,1.21-.807,2.219-3.732,2.219H92.35l-1.614,6.052h9.987a11.268,11.268,0,0,0,7.061-2.118,10.875,10.875,0,0,0,3.833-6.254,6.6,6.6,0,0,0-1.412-6.557,16.725,16.725,0,0,0-4.943-3.43c-2.118-1.11-4.136-2.219-3.833-3.531a2.645,2.645,0,0,1,2.724-1.917h8.776l1.614-6.052h-8.877Zm13.618,0-7.868,29.96h6.658l7.767-29.96Zm24.109,0c-11.6,0-17.653,7.767-19.57,14.929-2.32,8.574,2.219,14.929,10.592,14.929h5.548l1.614-6.052h-5.548c-3.127,0-7.364-2.421-5.649-8.877a12.347,12.347,0,0,1,11.8-8.877h3.531l1.614-6.052h-3.934Z" transform="translate(360.053 513.38)" fill="#0d3174"/><path d="M32.229,42.027c-2.824,0-4.237-2.219-3.531-4.741,1.513-5.245,11-13.013,17.451-13.013,4.741,0,4.338,4.237,1.614,7.767L46.25,33.755C40.8,39.1,35.658,42.027,32.229,42.027M55.329,6.62c-8.272,0-17.35,5.044-23,9.785l.4.605c8.877-6.153,21.083-10.188,24.512-4.136C59.061,16.1,56.035,22.558,51.7,27.6c1.009-2.219.3-6.557-5.649-6.557-9.886,0-29.354,13.114-29.354,26.53,0,5.346,3.732,8.877,9.886,8.877,16.442,0,38.736-26.933,38.736-40.551.1-4.741-2.724-9.28-9.987-9.28M76.512,42.027a2.817,2.817,0,0,1-2.219-.908,2.674,2.674,0,0,1-.4-2.522,5.241,5.241,0,0,1,4.943-3.631h5.245l-1.917,7.061ZM91.744,20.843a7.928,7.928,0,0,0-5.75-2.724H76.412L74.8,24.172h9.079l.908.1a2.248,2.248,0,0,1,1.311.706,2.863,2.863,0,0,1,.2,2.32l-.605,1.614h-5.75c-4.943,0-11.8,3.531-13.315,9.28a7.631,7.631,0,0,0,1.412,7.162c1.513,1.816,4.237,2.824,7.263,2.824h12l3.127-11.9,2.32-8.675c.908-3.43,0-5.548-1.009-6.759m66.073-2.724a11.69,11.69,0,0,0-6.96,2.219,9.417,9.417,0,0,0-3.732,5.649c-1.412,5.245,2.724,7.868,6.052,9.684,2.421,1.311,4.438,2.421,4.035,4.035-.3,1.21-.807,2.219-3.732,2.219H144.5l-1.614,6.052h9.987a11.268,11.268,0,0,0,7.061-2.118,10.875,10.875,0,0,0,3.833-6.254,6.6,6.6,0,0,0-1.412-6.557,16.725,16.725,0,0,0-4.943-3.43c-2.118-1.11-4.136-2.219-3.833-3.531a2.645,2.645,0,0,1,2.724-1.917h8.776l1.614-6.052h-8.877Zm-52.152,0a11.69,11.69,0,0,0-6.96,2.219,9.417,9.417,0,0,0-3.732,5.649c-1.412,5.245,2.724,7.868,6.052,9.684,2.421,1.311,4.438,2.421,4.035,4.035-.3,1.21-.807,2.219-3.732,2.219H92.35l-1.614,6.052h9.987a11.268,11.268,0,0,0,7.061-2.118,10.875,10.875,0,0,0,3.833-6.254,6.6,6.6,0,0,0-1.412-6.557,16.725,16.725,0,0,0-4.943-3.43c-2.118-1.11-4.136-2.219-3.833-3.531a2.645,2.645,0,0,1,2.724-1.917h8.776l1.614-6.052h-8.877Zm13.618,0-7.868,29.96h6.658l7.767-29.96Zm24.109,0c-11.6,0-17.653,7.767-19.57,14.929-2.32,8.574,2.219,14.929,10.592,14.929h5.548l1.614-6.052h-5.548c-3.127,0-7.364-2.421-5.649-8.877a12.347,12.347,0,0,1,11.8-8.877h3.531l1.614-6.052h-3.934Z" transform="translate(360.053 513.38)" opacity="0"/></g></svg>