<svg xmlns="http://www.w3.org/2000/svg" xmlns:xlink="http://www.w3.org/1999/xlink" width="214" height="124" viewBox="0 0 214 124"><defs><clipPath id="a"><rect width="214" height="124" transform="translate(599 483)"/></clipPath></defs><g transform="translate(-599 -483)" clip-path="url(#a)"><g transform="translate(613.169 515.101)"><path d="M125.637,21.787a.522.522,0,0,0,.527-.527V17.426a.535.535,0,0,0-.527-.527h-13a.522.522,0,0,0-.527.527v3.835a.522.522,0,0,0,.527.527h3.413a.522.522,0,0,1,.527.527V42.372a.522.522,0,0,0,.527.527h4.045a.522.522,0,0,0,.527-.527V22.314a.522.522,0,0,1,.527-.527ZM97.34,42.878a.522.522,0,0,0,.527-.527V17.426a.522.522,0,0,0-.527-.527H93.527a.535.535,0,0,0-.527.527V28.509c0,.295-.084.295-.19.042L88.2,17.4a.832.832,0,0,0-.716-.506h-3.6a.522.522,0,0,0-.527.527V42.351a.522.522,0,0,0,.527.527H87.69a.522.522,0,0,0,.527-.527V30.616c0-.295.084-.295.169-.042l4.783,11.8a.806.806,0,0,0,.7.485H97.34ZM73.489,32.385c0-.295.063-.337.358-.337h3.561a.535.535,0,0,0,.527-.527v-3.75a.522.522,0,0,0-.527-.527H73.847c-.295,0-.358-.063-.358-.358V22.124c0-.295.063-.337.358-.337h6.131a.488.488,0,0,0,.527-.485V17.426a.522.522,0,0,0-.527-.527h-11.1a.522.522,0,0,0-.527.527V42.351a.522.522,0,0,0,.527.527h11.1a.522.522,0,0,0,.527-.527V38.5a.522.522,0,0,0-.527-.527H73.826c-.295,0-.358-.063-.358-.358V32.385Zm-15.887.19c0-.295.084-.295.169-.021l3.856,9.84a.778.778,0,0,0,.7.506h4.172a.351.351,0,0,0,.358-.485l-4.93-12.558a1.592,1.592,0,0,1,.021-.99L66.368,17.4a.33.33,0,0,0-.337-.485H61.859a.758.758,0,0,0-.7.485l-3.35,9.144c-.105.274-.19.253-.19-.021v-9.1A.522.522,0,0,0,57.1,16.9H53.262a.522.522,0,0,0-.527.527V42.351a.522.522,0,0,0,.527.527H57.1a.522.522,0,0,0,.527-.527V32.575Zm104.084,0c0-.295.084-.295.169-.021l3.856,9.84a.778.778,0,0,0,.7.506h4.172a.34.34,0,0,0,.337-.485l-4.93-12.558a1.592,1.592,0,0,1,.021-.99L170.431,17.4a.33.33,0,0,0-.337-.485h-4.172a.758.758,0,0,0-.7.485l-3.35,9.144c-.105.274-.169.253-.169-.021v-9.1a.522.522,0,0,0-.527-.527h-3.835a.522.522,0,0,0-.527.527V42.351a.522.522,0,0,0,.527.527h3.835a.522.522,0,0,0,.527-.527V32.575ZM33.246,17.426a.522.522,0,0,0-.527-.527H28.885a.522.522,0,0,0-.527.527V42.351a.522.522,0,0,0,.527.527h3.835a.522.522,0,0,0,.527-.527Zm74.8,10.514c-1.538-1.538-3.139-2.76-3.139-4.193a1.946,1.946,0,0,1,1.833-1.959h2.908a.522.522,0,0,0,.527-.527V17.426a.522.522,0,0,0-.527-.527h-3.6c-3.982,0-6.173,2.781-6.131,6.679.021,3.182,1.875,5.352,4.467,7.775,1.475,1.348,2.676,2.465,2.676,4.277a2.132,2.132,0,0,1-2.276,2.339h-4.361a.535.535,0,0,0-.527.527V42.33a.522.522,0,0,0,.527.527h5.752c4.34.084,5.942-3.561,5.942-7.29,0-3.582-1.833-5.331-4.066-7.627M23.68,29.415a.368.368,0,0,1-.147-.232.425.425,0,0,1,.169-.274,5.152,5.152,0,0,0,1.475-3.771V22.124c-.042-3.666-1.285-5.2-5.331-5.2H12.914a.522.522,0,0,0-.527.527V42.372a.522.522,0,0,0,.527.527H20.2c3.814,0,5.288-2.718,5.288-6.532V34.24c0-2.528-.379-3.793-1.812-4.825m-6.447-7.522c0-.295.063-.358.337-.358h1.2c1.1,0,1.559.822,1.559,2.95,0,2.36-.632,2.739-1.559,2.739h-1.2c-.295,0-.337-.063-.337-.358ZM19.15,38.264H17.612c-.295,0-.358-.063-.358-.358v-5.5c0-.295.063-.358.358-.358h1.517c1.18,0,1.5,1.032,1.517,2.992.042,2.613-.379,3.224-1.5,3.224m31.436,4.13L46.415,32.133h.063a3.242,3.242,0,0,0,.4-.169,4.883,4.883,0,0,0,2.592-4.7V22.44c0-4.614-2.7-5.52-6.047-5.52H36.975a.522.522,0,0,0-.527.527v24.9a.522.522,0,0,0,.527.527h3.814a.522.522,0,0,0,.527-.527V32.575c0-.295.084-.295.169-.021l3.9,9.84a.778.778,0,0,0,.7.506h4.172a.351.351,0,0,0,.337-.506M44.708,24.526c.021,2.613-.4,3.224-1.517,3.224H41.674c-.295,0-.358-.063-.358-.358v-5.5c0-.295.063-.358.358-.358h1.517c1.18,0,1.5,1.032,1.517,2.992" fill="#00338d" fill-rule="evenodd"/><path d="M190.221,42.906c-7.564,0-8.491-5.436-8.491-13.042,0-7.585.948-12.937,8.491-12.937h1.707a.523.523,0,0,1,.548.506v3.835a.522.522,0,0,1-.527.527h-1.728c-2.971,0-3.455,1.391-3.455,8.07,0,6.721.485,8.112,3.455,8.112h1.707a.522.522,0,0,1,.527.527v3.835a.522.522,0,0,1-.527.527h-1.707Zm-18.2-25.979c7.564,0,8.07,5.352,8.07,12.937s-.527,13.042-8.07,13.042c-7.564,0-8.07-5.457-8.07-13.042-.021-7.606.506-12.937,8.07-12.937m0,21.091c2.971,0,3.034-1.454,3.034-8.175,0-6.679-.063-8.323-3.034-8.323s-3.034,1.643-3.034,8.323c-.021,6.721.042,8.175,3.034,8.175m34.028-8.512a2.423,2.423,0,1,1,2.423,2.423A2.359,2.359,0,0,1,206.044,29.506Zm4.4,0a1.981,1.981,0,1,0-1.981,2A1.932,1.932,0,0,0,210.448,29.506ZM207.6,30.833a.077.077,0,0,1-.084-.084V28.242a.077.077,0,0,1,.084-.084h1.011c.59,0,.927.295.927.8a.753.753,0,0,1-.527.737l.548,1.053c.021.042,0,.084-.042.084h-.358a.108.108,0,0,1-.105-.084l-.506-.99h-.485c-.042,0-.042.021-.042.042v.927a.077.077,0,0,1-.084.084H207.6Zm1.454-1.875c0-.232-.147-.358-.442-.358h-.569c-.042,0-.042.021-.042.042V29.3a.045.045,0,0,0,.042.042h.569c.316,0,.442-.147.442-.379Z" transform="translate(-37.615 -0.007)" fill="#00338d"/></g><g transform="translate(613.169 515.101)" opacity="0"><path d="M125.637,21.787a.522.522,0,0,0,.527-.527V17.426a.535.535,0,0,0-.527-.527h-13a.522.522,0,0,0-.527.527v3.835a.522.522,0,0,0,.527.527h3.413a.522.522,0,0,1,.527.527V42.372a.522.522,0,0,0,.527.527h4.045a.522.522,0,0,0,.527-.527V22.314a.522.522,0,0,1,.527-.527ZM97.34,42.878a.522.522,0,0,0,.527-.527V17.426a.522.522,0,0,0-.527-.527H93.527a.535.535,0,0,0-.527.527V28.509c0,.295-.084.295-.19.042L88.2,17.4a.832.832,0,0,0-.716-.506h-3.6a.522.522,0,0,0-.527.527V42.351a.522.522,0,0,0,.527.527H87.69a.522.522,0,0,0,.527-.527V30.616c0-.295.084-.295.169-.042l4.783,11.8a.806.806,0,0,0,.7.485H97.34ZM73.489,32.385c0-.295.063-.337.358-.337h3.561a.535.535,0,0,0,.527-.527v-3.75a.522.522,0,0,0-.527-.527H73.847c-.295,0-.358-.063-.358-.358V22.124c0-.295.063-.337.358-.337h6.131a.488.488,0,0,0,.527-.485V17.426a.522.522,0,0,0-.527-.527h-11.1a.522.522,0,0,0-.527.527V42.351a.522.522,0,0,0,.527.527h11.1a.522.522,0,0,0,.527-.527V38.5a.522.522,0,0,0-.527-.527H73.826c-.295,0-.358-.063-.358-.358V32.385Zm-15.887.19c0-.295.084-.295.169-.021l3.856,9.84a.778.778,0,0,0,.7.506h4.172a.351.351,0,0,0,.358-.485l-4.93-12.558a1.592,1.592,0,0,1,.021-.99L66.368,17.4a.33.33,0,0,0-.337-.485H61.859a.758.758,0,0,0-.7.485l-3.35,9.144c-.105.274-.19.253-.19-.021v-9.1A.522.522,0,0,0,57.1,16.9H53.262a.522.522,0,0,0-.527.527V42.351a.522.522,0,0,0,.527.527H57.1a.522.522,0,0,0,.527-.527V32.575Zm104.084,0c0-.295.084-.295.169-.021l3.856,9.84a.778.778,0,0,0,.7.506h4.172a.34.34,0,0,0,.337-.485l-4.93-12.558a1.592,1.592,0,0,1,.021-.99L170.431,17.4a.33.33,0,0,0-.337-.485h-4.172a.758.758,0,0,0-.7.485l-3.35,9.144c-.105.274-.169.253-.169-.021v-9.1a.522.522,0,0,0-.527-.527h-3.835a.522.522,0,0,0-.527.527V42.351a.522.522,0,0,0,.527.527h3.835a.522.522,0,0,0,.527-.527V32.575ZM33.246,17.426a.522.522,0,0,0-.527-.527H28.885a.522.522,0,0,0-.527.527V42.351a.522.522,0,0,0,.527.527h3.835a.522.522,0,0,0,.527-.527Zm74.8,10.514c-1.538-1.538-3.139-2.76-3.139-4.193a1.946,1.946,0,0,1,1.833-1.959h2.908a.522.522,0,0,0,.527-.527V17.426a.522.522,0,0,0-.527-.527h-3.6c-3.982,0-6.173,2.781-6.131,6.679.021,3.182,1.875,5.352,4.467,7.775,1.475,1.348,2.676,2.465,2.676,4.277a2.132,2.132,0,0,1-2.276,2.339h-4.361a.535.535,0,0,0-.527.527V42.33a.522.522,0,0,0,.527.527h5.752c4.34.084,5.942-3.561,5.942-7.29,0-3.582-1.833-5.331-4.066-7.627M23.68,29.415a.368.368,0,0,1-.147-.232.425.425,0,0,1,.169-.274,5.152,5.152,0,0,0,1.475-3.771V22.124c-.042-3.666-1.285-5.2-5.331-5.2H12.914a.522.522,0,0,0-.527.527V42.372a.522.522,0,0,0,.527.527H20.2c3.814,0,5.288-2.718,5.288-6.532V34.24c0-2.528-.379-3.793-1.812-4.825m-6.447-7.522c0-.295.063-.358.337-.358h1.2c1.1,0,1.559.822,1.559,2.95,0,2.36-.632,2.739-1.559,2.739h-1.2c-.295,0-.337-.063-.337-.358ZM19.15,38.264H17.612c-.295,0-.358-.063-.358-.358v-5.5c0-.295.063-.358.358-.358h1.517c1.18,0,1.5,1.032,1.517,2.992.042,2.613-.379,3.224-1.5,3.224m31.436,4.13L46.415,32.133h.063a3.242,3.242,0,0,0,.4-.169,4.883,4.883,0,0,0,2.592-4.7V22.44c0-4.614-2.7-5.52-6.047-5.52H36.975a.522.522,0,0,0-.527.527v24.9a.522.522,0,0,0,.527.527h3.814a.522.522,0,0,0,.527-.527V32.575c0-.295.084-.295.169-.021l3.9,9.84a.778.778,0,0,0,.7.506h4.172a.351.351,0,0,0,.337-.506M44.708,24.526c.021,2.613-.4,3.224-1.517,3.224H41.674c-.295,0-.358-.063-.358-.358v-5.5c0-.295.063-.358.358-.358h1.517c1.18,0,1.5,1.032,1.517,2.992" fill-rule="evenodd"/><path d="M190.221,42.906c-7.564,0-8.491-5.436-8.491-13.042,0-7.585.948-12.937,8.491-12.937h1.707a.523.523,0,0,1,.548.506v3.835a.522.522,0,0,1-.527.527h-1.728c-2.971,0-3.455,1.391-3.455,8.07,0,6.721.485,8.112,3.455,8.112h1.707a.522.522,0,0,1,.527.527v3.835a.522.522,0,0,1-.527.527h-1.707Zm-18.2-25.979c7.564,0,8.07,5.352,8.07,12.937s-.527,13.042-8.07,13.042c-7.564,0-8.07-5.457-8.07-13.042-.021-7.606.506-12.937,8.07-12.937m0,21.091c2.971,0,3.034-1.454,3.034-8.175,0-6.679-.063-8.323-3.034-8.323s-3.034,1.643-3.034,8.323c-.021,6.721.042,8.175,3.034,8.175m34.028-8.512a2.423,2.423,0,1,1,2.423,2.423A2.359,2.359,0,0,1,206.044,29.506Zm4.4,0a1.981,1.981,0,1,0-1.981,2A1.932,1.932,0,0,0,210.448,29.506ZM207.6,30.833a.077.077,0,0,1-.084-.084V28.242a.077.077,0,0,1,.084-.084h1.011c.59,0,.927.295.927.8a.753.753,0,0,1-.527.737l.548,1.053c.021.042,0,.084-.042.084h-.358a.108.108,0,0,1-.105-.084l-.506-.99h-.485c-.042,0-.042.021-.042.042v.927a.077.077,0,0,1-.084.084H207.6Zm1.454-1.875c0-.232-.147-.358-.442-.358h-.569c-.042,0-.042.021-.042.042V29.3a.045.045,0,0,0,.042.042h.569c.316,0,.442-.147.442-.379Z" transform="translate(-37.615 -0.007)"/></g></g></svg>