<svg xmlns="http://www.w3.org/2000/svg" xmlns:xlink="http://www.w3.org/1999/xlink" width="214" height="124" viewBox="0 0 214 124"><defs><clipPath id="a"><rect width="214" height="124" transform="translate(1107 1203)"/></clipPath></defs><g transform="translate(-1107 -1203)" clip-path="url(#a)"><path d="M126.522,45.8h-4.4l3.493-13.477h-3.473a.943.943,0,0,0-.888.71l-3.433,13.3a.953.953,0,0,0,.967,1.3h9.629c1.441,0,1.914-.316,2.21-1.105l.572-1.618a12.9,12.9,0,0,1-4.676.888ZM77.015,40.29a.943.943,0,0,0-.888.71l-1.322,5.13a5.953,5.953,0,0,1-1.4.158c-2.841,0-4.933-2.684-3.828-6.906,1.1-4.262,4.085-5.781,6.788-5.781a5.863,5.863,0,0,1,4.262,1.7l.355-1.4a.965.965,0,0,0-.592-1.283,12.2,12.2,0,0,0-4.2-.631c-5.071,0-9.392,2.585-10.556,7.143-1.48,5.7,2.21,8.781,7.577,8.781a19.592,19.592,0,0,0,4.874-.71c.395-.1.592-.335.71-.829l1.579-6.1H77.015Zm77.21-7.972h-9.55a.943.943,0,0,0-.888.71l-3.769,14.6h3.1a1.3,1.3,0,0,0,1.184-.947l1.539-5.979h6.176a.792.792,0,0,0,.888-.612l.434-1.145h-7.024l1.263-4.913h3.749a6.854,6.854,0,0,1,3.65.651l.414-1.381c.178-.651-.039-.987-1.164-.987ZM101.088,32c-4.3,0-8.465,2.269-9.747,7.2-1.519,5.9,2.289,8.721,7.34,8.721,4.341,0,8.465-2.269,9.747-7.2C109.908,35.022,106.139,32,101.088,32ZM98.621,46.368c-2.762,0-4.4-2.328-3.216-6.906,1.085-4.163,3.493-5.9,5.762-5.9,2.762,0,4.38,2.466,3.2,7.044C103.357,44.394,101.048,46.368,98.621,46.368Zm1.736-31.531-1.6,5.86a11.266,11.266,0,0,1-1.421.079c-3.137,0-2.782-.947-1.46-6.058C97.26,9.41,98.049,8.443,100,8.443c1.874,0,1.894,1.263,1.421,2.881H106.2c.77-3,.257-5.643-5.327-5.643-6.216,0-7.912,1.3-9.905,9.057-1.874,7.222-1.243,9.136,5.466,9.136a29.462,29.462,0,0,0,6.452-.592l2.249-8.426h-4.775v-.02Zm11.385,5.8c-.631,0-.848-.2-.73-.691L112.1,15.7h6.393l.73-2.782h-6.393l.73-2.822a1.693,1.693,0,0,1,1.736-1.362h5.111l.73-2.782H113.7c-3.078,0-4.006.552-5.209,5.189l-2.21,8.485c-.671,2.841.178,4.084,2.486,4.084h6.413a2.483,2.483,0,0,0,2.466-1.7l.533-1.362h-6.433v-.02Zm73.066,0c-.631,0-.849-.2-.73-.691l1.085-4.242h6.393l.73-2.782h-6.393l.73-2.822a1.693,1.693,0,0,1,1.736-1.362h5.111l.73-2.782h-7.439c-3.078,0-4.005.552-5.209,5.189l-2.21,8.485c-.671,2.841.158,4.084,2.486,4.084h6.413a2.483,2.483,0,0,0,2.466-1.7l.533-1.362h-6.432v-.02ZM83.7,5.937H77.311L72.851,23.163a.393.393,0,0,0,.375.533h5.7c7.163,0,8.366-1.362,10.32-8.958,1.7-6.59.651-8.8-5.544-8.8Zm-4.1,14.72H78.3L81.376,8.72c.395,0,.552-.02,1.519-.02,2.782,0,2.763.908,1.44,6.038C83.013,19.907,82.244,20.657,79.6,20.657ZM173.147,5.9c-3.69,0-5.387.079-6.393.04L162.3,23.163a.393.393,0,0,0,.375.533h4.282L170.819,8.72c.395,0,.987-.039,1.6-.039,2.072,0,2.348.73,1.8,2.861l-3,11.622a.393.393,0,0,0,.375.533h4.282l3.137-12.155C180.093,7.338,178.258,5.9,173.147,5.9Zm-37,.04-.73,2.881h4.755c.039,0,.039.059,0,.1a4.044,4.044,0,0,0-1.44,2.23l-3.118,12.017a.4.4,0,0,0,.395.533h4.578l3.848-14.878h2.348a2.453,2.453,0,0,0,2.565-1.7l.454-1.184H136.151ZM69.616,23.7,74.075,6.47a.393.393,0,0,0-.375-.533H69.181L64.722,23.163a.393.393,0,0,0,.375.533Zm87.51-18.015c-5.387,0-7.715.967-9.826,9.116-1.835,7.084-.355,9.116,5.111,9.116,5.564,0,7.754-1.144,9.826-9.116C163.735,9.035,163.44,5.681,157.125,5.681Zm-3.946,15.272c-2.052,0-2.348-.75-.927-6.275,1.184-4.6,2.328-6.216,4.163-6.216,2.052,0,2.269,1.1.947,6.216C156.06,19.73,154.777,20.953,153.179,20.953ZM29.166,14.935l2.782-9.747a2.767,2.767,0,0,1,2.506-1.914h8.485a.14.14,0,0,1,.079.256A94.626,94.626,0,0,0,29.4,15.073.141.141,0,0,1,29.166,14.935Zm6.709,5.86,2.762-9.629a.148.148,0,0,0-.237-.158,104.136,104.136,0,0,0-12,12.431.15.15,0,0,0,.1.257H38.42c5.032,0,7.774-1.559,8.781-5.268.809-3.039-.77-5.091-3.315-5.624-.039,0-.079-.1,0-.118,2.151-.375,4.3-1.223,5.071-4.361.829-3.394-1.756-5.249-4.736-5.051L39.663,19.217A2.263,2.263,0,0,1,37.611,20.8H35.875Zm25.888-4.223a3.371,3.371,0,0,0-.592-1.223c-.04-.04-.04-.1.02-.118a5.465,5.465,0,0,0,3.946-4.1c.75-2.881-1.066-5.189-5.683-5.189H52.627L48.167,23.163a.393.393,0,0,0,.375.533h4.282L56.691,8.72c.414,0,.809-.02,1.8-.02a1.736,1.736,0,0,1,1.894,2.387,3.523,3.523,0,0,1-3.512,2.822h-.631l1.776,8.6a1.393,1.393,0,0,0,1.6,1.184H63.42l-1.657-7.123Zm58.149,1.1c-1.815,4.321.552,6.294,5.347,6.294,4.38,0,6.827-1.046,7.853-5.071a4.2,4.2,0,0,0-.71-3.788c-1.638-1.776-4.795-2.111-5.9-3.157a1.835,1.835,0,0,1-.395-1.894,2.209,2.209,0,0,1,2.348-1.8c1.973,0,2.032,1.223,1.539,2.664h4.262c1.006-3.019-.316-5.387-5.328-5.387-4.223,0-6.492,1.657-7.3,4.815A4.853,4.853,0,0,0,122,13.534c1.164,1.973,4.223,2.23,5.92,3.413a1.642,1.642,0,0,1,.572,1.973,2.438,2.438,0,0,1-2.6,2.19c-1.421,0-2.269-.829-1.46-3.414h-4.518v-.019Z" transform="translate(1103.718 1239.407)"/></g></svg>