<?xml version="1.0" encoding="UTF-8"?><svg id="Layer_1" xmlns="http://www.w3.org/2000/svg" width="240" height="38" viewBox="0 0 238.2 35.8"><defs><style>.cls-1{fill:#fff;}</style></defs><path class="cls-1" d="M7.1,15.6c-1.3,2.7-2.7,5.8-2.3,8.4,1.2,5.8,6.8,2.3,9-1.5,1.2,0,2.3-.3,3.3-1-.3,1.4.2,2.6,1.2,3.2,2.7,1.5,4.5-2.3,5.5-3.9,0,1.8,1,4,3.1,3.7,4-.9,5.6-7.4,5.6-10.1.2,0,.5,0,.8,0,.3,1.1.4,2.3.4,3.5,0,8.7-7.1,15.8-15.8,15.8S2.1,26.6,2.1,17.9s0-.5,0-.8c1.3,0,3.6-.9,4.9-1.5M9.8,17.3c1.4-1.4,3.5-1.5,3,.8,0,1.5-2.2,4.6-2.5,4.9-.7.8-1.9,1.9-2.8,1.8-.3,0-.6-.2-.7-.5-.7-1.8,1.6-5.9,2.8-6.8h0s.2-.2.2-.2ZM30.4,14.4c0,1.9-1.8,7.1-3.7,7.5-.5,0-.7-.5-.8-1-.3-1.9.1-2.6.8-3.9.2-.3.3-.7.5-1.1.4-.9,0-2.2-1-2-.8.1-1,.5-1.4,1.4-1.7,3.5-4.1,7.1-4.8,7.2-.8-.8.9-5.8,1.6-7.5.6-1.4,1.5-1.8,1.4-2.4,0-.5-.9-1.3-1.7-1.2-.7,0-1.3.6-2.4,3.2-.5,1-1,2.9-1.4,4.7-.5.5-1.5,1.2-2.7,1.3.9-2.3,1.2-4-.3-5.7-1.6-1.6-3.3-.5-4.8.9,1.4-2.9,2.4-4.7,3.9-6.8.6-.8,0-1.9-1-1.9-1.2,0-1.3.5-2.8,3.3-1.9,3.5-5.3,3.7-7.2,4.3C4,7.5,10.3,2.1,17.9,2.1s12.5,4.2,14.7,10.2c-.5,0-1,0-1.6-.1-1,.2-.8,1.4-.7,2.2M30.6,5.2c-3.2-3.2-7.7-5.2-12.7-5.2S8.5,2,5.2,5.2C2,8.5,0,13,0,17.9s2,9.4,5.2,12.7c3.2,3.2,7.7,5.2,12.7,5.2s9.4-2,12.7-5.2c3.2-3.2,5.2-7.7,5.2-12.7s-2-9.4-5.2-12.7"/><path class="cls-1" d="M57.3,23.8h4.1c1.8,0,2.8-.9,2.8-2.3s-1-2.3-2.8-2.3h-4.1v4.6ZM60.8,16.2c1.8,0,2.9-.7,2.9-2.1s-1-2.1-2.9-2.1h-3.5v4.3h3.5ZM53.8,8.9h7.4c3.9,0,6,1.7,6,4.8s-1.3,3.3-2.5,3.9c1.8.6,3.1,2.1,3.1,4.3,0,3.2-2.3,5-6.1,5h-7.9V8.9Z"/><path class="cls-1" d="M77.7,17.1c-.4,0-.7,0-1.1,0-1.8,0-3.2,1.1-3.2,3.2v6.7h-3.5v-13.2h3.5v1.9c.6-1.2,1.9-1.9,3.5-1.9s.6,0,.9,0v3.4Z"/><path class="cls-1" d="M82.9,26.9h-3.5v-13.2h3.5v13.2ZM79.3,8.9h3.6v3.3h-3.6v-3.3Z"/><path class="cls-1" d="M101.6,23.9v2.9c-.6.1-1.4.2-2.3.2-2.7,0-4.1-.9-4.1-3.6v-6.8h-5.4v6.1c0,1.1.6,1.3,1.7,1.3s.7,0,1.2,0v2.9c-.6.1-1.4.2-2.3.2-2.7,0-4.1-.9-4.1-3.6v-6.8h-1.8v-2.9h1.8v-3.8h3.5v3.8h5.4v-3.8h3.5v3.8h2.7v2.9h-2.7v6.1c0,1.1.6,1.3,1.7,1.3s.7,0,1.2,0"/><path class="cls-1" d="M110.8,20.8l-2.6.5c-1.2.2-2,.6-2,1.7s.7,1.4,1.7,1.4,2.9-.8,2.9-2.3v-1.4ZM102.8,23.2c0-2.6,2.1-3.7,4.8-4.2l3.3-.6v-.2c0-1.1-.6-1.8-2-1.8s-2,.6-2.3,1.8l-3.3-.6c.6-2.2,2.6-4,5.7-4s5.3,1.5,5.3,4.6v5.4c0,.7.3.9,1.1.8v2.6c-2.2.3-3.6-.1-4.2-1.2-.9.9-2.2,1.5-3.9,1.5-2.6,0-4.5-1.6-4.5-3.9"/><path class="cls-1" d="M120.3,26.9h-3.5v-13.2h3.5v13.2ZM116.7,8.9h3.6v3.3h-3.6v-3.3Z"/><path class="cls-1" d="M122.6,13.7h3.5v1.4c.7-.9,1.9-1.6,3.6-1.6,2.8,0,4.4,1.9,4.4,4.7v8.7h-3.5v-7.7c0-1.5-.6-2.5-2.1-2.5s-2.4.9-2.4,2.6v7.6h-3.5v-13.2Z"/><polygon class="cls-1" points="154.2 8.9 157.3 21.3 160.4 8.9 164.1 8.9 159.3 26.9 155.7 26.9 152.5 14.8 149.3 26.9 145.7 26.9 140.9 8.9 144.7 8.9 147.9 21.3 151 8.9 154.2 8.9"/><path class="cls-1" d="M166.6,31.4c-.7,0-.9,0-1.4,0v-2.8c.4,0,.6,0,1,0,.9,0,1.4-.3,1.8-1.2l.4-1.1-4.7-12.7h3.6l3,8.7,2.9-8.7h3.5l-5.2,13.9c-.9,2.3-2.1,3.8-5,3.8"/><path class="cls-1" d="M178.2,13.7h3.5v1.4c.7-.9,1.9-1.6,3.6-1.6,2.8,0,4.4,1.9,4.4,4.7v8.7h-3.5v-7.7c0-1.5-.6-2.5-2.1-2.5s-2.4.9-2.4,2.6v7.6h-3.5v-13.2Z"/><path class="cls-1" d="M193.2,31.4c-.7,0-.9,0-1.4,0v-2.8c.4,0,.6,0,1,0,.9,0,1.4-.3,1.8-1.2l.4-1.1-4.7-12.7h3.6l3,8.7,2.9-8.7h3.5l-5.2,13.9c-.9,2.3-2.1,3.8-5,3.8"/><path class="cls-1" d="M211.1,20.8l-2.6.5c-1.2.2-2,.6-2,1.7s.7,1.4,1.7,1.4,2.9-.8,2.9-2.3v-1.4ZM203,23.2c0-2.6,2.1-3.7,4.8-4.2l3.3-.6v-.2c0-1.1-.6-1.8-2-1.8s-2,.6-2.3,1.8l-3.3-.6c.6-2.2,2.6-4,5.7-4s5.3,1.5,5.3,4.6v5.4c0,.7.3.9,1.1.8v2.6c-2.2.3-3.6-.1-4.2-1.2-.9.9-2.2,1.5-3.9,1.5-2.6,0-4.5-1.6-4.5-3.9"/><path class="cls-1" d="M224.9,17.1c-.4,0-.7,0-1.1,0-1.8,0-3.2,1.1-3.2,3.2v6.7h-3.5v-13.2h3.5v1.9c.6-1.2,1.9-1.9,3.5-1.9s.6,0,.9,0v3.4Z"/><path class="cls-1" d="M231.8,16.4c-2,0-3,1.6-3,3.8s1.1,3.9,3,3.9,2.9-1.3,2.9-3.5v-.7c0-2.3-1.3-3.5-2.9-3.5M225.2,20.3c0-3.7,2.1-6.8,5.7-6.8s2.9.7,3.7,1.6v-6.2h3.5v18h-3.5v-1.4c-.8,1-2,1.6-3.7,1.6-3.6,0-5.7-3.1-5.7-6.9"/></svg>