<?xml version="1.0" encoding="UTF-8"?><svg id="Layer_1" xmlns="http://www.w3.org/2000/svg"  width="214" height="124" viewBox="0 0 214 124"><defs><style>.cls-1{fill:#1d1d1b;}</style></defs><path class="cls-1" d="M179.4,77.9c.1,0,.2,0,.3,0,0,0,.2,0,.3,0,0,0,.1,0,.2-.2,0,0,0-.2,0-.3s0-.2,0-.2c0,0,0-.1-.2-.1,0,0-.1,0-.2,0,0,0-.2,0-.2,0h-.6v1h.5ZM179.6,76.5c.4,0,.6,0,.8.2.2.1.3.4.3.7s0,.5-.2.6c-.2.1-.4.2-.6.2l.9,1.4h-.5l-.8-1.3h-.5v1.3h-.5v-3.1h1.2ZM177.4,79c.1.3.3.5.5.7.2.2.4.4.7.5.3.1.6.2.9.2s.6,0,.9-.2c.3-.1.5-.3.7-.5.2-.2.4-.4.5-.7s.2-.6.2-.9,0-.6-.2-.9c-.1-.3-.3-.5-.5-.7-.2-.2-.4-.4-.7-.5-.3-.1-.6-.2-.9-.2s-.6,0-.9.2c-.3.1-.5.3-.7.5-.2.2-.4.4-.5.7-.1.3-.2.6-.2.9s0,.6.2.9ZM176.9,77c.1-.3.3-.6.6-.8.2-.2.5-.4.9-.6.3-.1.7-.2,1-.2s.7,0,1,.2c.3.1.6.3.8.6.2.2.4.5.6.8.1.3.2.7.2,1s0,.7-.2,1.1-.3.6-.6.8c-.2.2-.5.4-.8.6-.3.1-.7.2-1,.2s-.7,0-1-.2c-.3-.1-.6-.3-.9-.6-.2-.2-.4-.5-.6-.8-.1-.3-.2-.7-.2-1.1s0-.7.2-1Z"/><path class="cls-1" d="M104.7,75c-.6.5-1.4.8-2.1.8-.9,0-1.7-.5-1.7-1.8,0-3.2,4.4-6.2,7.4-6.1-.7,2.6-1.2,5-3.6,7.1M160.5,75.3c-4.3-1.2-6.4-3.9-7.3-6.3,1.4-1.2,3.1-2.2,4.8-3.3,1-.7,1.3-1.3,1.7-2.4.5-1.2,1-3,1-3.9,0-.6,0-1.1-.9-1.1-.8,0-3.5,1.8-4.2,2.3-3.8,2.5-7,5.7-9.7,9.2,1.3-5,2.7-12.5,3.3-16.3.2-1.2.5-2.9-.1-4-.5-.9-2-2.6-3.1-3.2-1.1-.6-1.7.1-1.9,1.1-.7,3.6-1.2,5.6-1.8,8.6-.9,4.2-1.6,7.6-3.6,12.3-1.1,2.7-3.5,7.4-6.3,7.4-2.7,0-1.7-6.4-1.7-8.2,0-.6-.1-2.1-1.6-2.5-4.9-1.1-5.7-2.7-6.7-2.5-.6.1-1,.7-1.2,1.5-1,3.2-1.5,6.2-3.4,9.1-.9,1.3-2.5,2.9-3.8,2.9-1.3,0-1.7-1.1-1.7-2.3,0-3.2.9-6.4,1.3-8.2.3-1.4-.4-1.6-1.1-1.8-.9-.3-2-.3-2.4-.3-3.8,0-7.4,1.2-10.3,3.7-1.2,1-2.2,2.2-3.2,3.5-1.1,1.3-4.4,5.4-6.4,5.4-1.4,0-1.5-1.5-1.5-2.6,0-4.7,2.3-11.8,4-16.1,1.1-2.8,2.3-5.4,2.7-6.9.3-1.3,0-2.4-.7-3.3-.9-1.2-2-2.1-2.9-2.6-.7-.3-1.3-.1-1.7.5-.7,1-1.7,3.1-2.1,3.9-3,6.4-5.2,13.8-5.1,20.9,0,3.8.4,10.7,5.6,10.7,2.9,0,5.4-1.7,7.2-3.8.4,2.4,2.3,3.8,5,3.8,3,0,5.7-1.7,7.5-4,.6,2.5,2.6,4,5.1,4,6.1,0,9.8-6.8,11.4-11.8.2.1.5.2.5.2,0,.6,0,1.5,0,2.2,0,4,1,9.4,6.1,9.4,4.4,0,7.3-4.1,9.3-7.5h.1c-.4,2.3-.8,4.2-1,6.5,0,1,1.4.9,2,.9,3.2,0,3-.7,3.9-3.4.6-1.8,1.9-3.1,3.2-4.3.7,1.4,2.1,3.8,4.3,5.6,1.3,1.1,3.2,2.1,4.9,2.1.7,0,1.1,0,1.6-.5,1.1-.9,2-2.8,2.1-3.4,0-.6-.4-1.1-1-1.2"/><path class="cls-1" d="M176.9,71.8c.2,2.9-2,5.1-5,6.7-3.1,1.7-6.8,2.6-9.5,2.4-.6,0-1-.4-.8-1.3.1-.8.4-1.5.7-2.1.4-.8,1-1.3,2.2-1.5.7,0,2.2-.1,3.5-.5,1.5-.5,3-1.1,3-2.3,0-2.2-9.5-.9-9.5-5.1s7.1-6.3,9.8-7.1c1.2-.3,2.7-.5,3.2-.5s.9.4.8,1c-.3,1.3-.9,2.8-2.3,3.2-.6.2-4,.8-5.1,1.4-.3.2-.5.4-.5.6,0,.3.4.5,1,.6,2.4.6,8.4.9,8.6,4.5"/><path class="cls-1" d="M81,80.4c-1,0-1.9-.1-2.8-.2-3.3-.4-6.4-.7-9.4-.7-6.1,0-10.9.6-16.3,1.4-4.2.6-7.8,1.1-11.1,1.2-4.6.1-9.5-.8-9.5-6.4s7.4-14.8,14.3-20.3c6.7-5.3,14.1-9.1,18.9-11,3.2-1.3,7.1-2.4,9.5-2.4s2,2.1.3,5c-1.6,2.8-2.3,3.5-4.6,3.8-3.9.5-9.6,1-20.3,9.1-6.1,4.6-11.6,11-11.5,14.4,0,2.1,1.6,2.8,3.5,2.8,2.8,0,6-.6,10-1.3,6.3-1.1,14.2-2.8,20.8-2.8s3.5.2,5,.6c1.2.3,1.9,1,2.7,1.9.6.8,1.2,1.7,1.6,2.6.4.8.7,1.5.5,2-.2.3-.5.5-1.4.5Z"/></svg>