<svg xmlns="http://www.w3.org/2000/svg" xmlns:xlink="http://www.w3.org/1999/xlink" width="214" height="124" viewBox="0 0 214 124"><defs><clipPath id="a"><rect width="214" height="124" transform="translate(1360 483)"/></clipPath></defs><g transform="translate(-1360 -483)" clip-path="url(#a)"><g transform="translate(1335.037 503.144)"><path d="M50.511,15.889c55.566,0,106.591-.215,162.174-.215,0,18.45.429,32.789.429,51.239H50.511ZM71.089,59.655c1,2.449,7.08,5.363,9.654-1.5a73.786,73.786,0,0,0,.232-7.795l-16.913.232-.018,4.327,5.31.268-5.077,2.771L64.3,62.8Zm4.2-2.02c-1.538,0-1.931-2.378-1.931-2.378l3.933-.018C77.275,55.239,77.15,57.635,75.29,57.635Zm45.143-.662L112.906,46.1A8.275,8.275,0,0,1,103.9,48c-3.683-1.448-4.952-9.3-1.806-11.728a8.846,8.846,0,0,1,11.281.089l5.936-11c-11.013-8.492-23.6-4.04-28.373,1.52-4.13,4.809-7.116,12.193-5.453,18.343,2.5,9.261,8.456,15.125,16.019,17.2C112.924,65.555,120.433,56.973,120.433,56.973ZM151.541,61.5l-.465-12.676-11.907-.179-.286-27.479-14.392.268.072,40.065h26.978Zm18.683.054.072-40.262-14.553.018.072,40.083Zm22.187-13.784,10.763-.2L202.62,37.2l-10.441-.411.3-4.166L204.6,32.8,204.5,21.556l-27.211-.3.161,40.083,14.75.322.215-13.891ZM80.94,44.834l-.107-6.007L64.009,34.607l.018,4.684,2,.608-.054,3.164-1.877.751L64.081,48.5,80.94,44.834ZM69.194,40.7l5.274,1-5.149.626ZM59.5,37.593l-4.523,3.9,4.577,4.4ZM72.734,31c2.414,3.576,7.008,2.02,8.135-1.269a48.711,48.711,0,0,0,.054-8.224L64.009,21.36s-.089,7.4.179,8.4c1.377,4.184,6.83,4.863,8.546,1.234Zm-3.218-2.378c-1.627,0-1.7-2.431-1.7-2.431l3.057-.018C70.874,26.151,70.445,28.618,69.516,28.618Zm6.347-.161c-.858-.018-1.341-2.217-1.341-2.217l2.7-.018S77.221,28.493,75.862,28.457Z" transform="translate(0.24 0.446)"/><path d="M47.757,13.2H214.472V68.529H47.757ZM211.4,16.253H50.832V65.365s89.66.107,160.583.089v-49.2ZM63.186,56.98l4.362-2.092-4.452.018v-5.56H80.814l.036,2.95c.036,3.325-.089,4.863-.518,6.132-.84,2.539-2.592,3.7-5.56,3.7a5.313,5.313,0,0,1-4.523-2.574l-7.026,3.522Zm7.4,1.591a2.3,2.3,0,0,1,.375.626,4.612,4.612,0,0,0,2.11,1.984A6.787,6.787,0,0,0,77.363,61a4.786,4.786,0,0,0,2.02-2.02c.644-1.341.733-2.11.733-5.614V50.186H63.794v4.04l6.24.125-6.1,3.218-.018,4.38c-.018-.018,4.4-2.36,6.669-3.379ZM72.3,54.906l.036-.554h4.738l-.018.662a2.243,2.243,0,0,1-2.253,2.378A2.419,2.419,0,0,1,72.3,54.906Zm2.521,1.806A1.467,1.467,0,0,0,76.255,55l-3.164-.018C73.108,55,73.18,56.765,74.825,56.712ZM104.413,63a21.346,21.346,0,0,1-7.473-2.181,23.755,23.755,0,0,1-4.47-3,21.446,21.446,0,0,1-8.1-12.8,25.707,25.707,0,0,1-.286-6.651,21.276,21.276,0,0,1,27.98-17.753,20.691,20.691,0,0,1,4.97,2.431c1.9,1.269,2.449,1.859,2.02,2.128-.215.125-.125.465.179.751a.84.84,0,0,1,.286.429c0,.179-6.383,10.369-6.722,10.727-.215.215-.215.215-.7-.25a7.954,7.954,0,0,0-4.166-2.02,6.573,6.573,0,0,0-7.33,5.113,6.142,6.142,0,0,0,8.957,6.937,5.876,5.876,0,0,0,1.949-1.466,10.094,10.094,0,0,1,1.055-.965,2.051,2.051,0,0,1,.518.644,2.427,2.427,0,0,0,.5.644,1.465,1.465,0,0,0,.411-.3c.286-.268.483-.143.483-.143l7.1,11.281a28.943,28.943,0,0,1-2.914,2.664,25.766,25.766,0,0,1-5.524,2.771,23.609,23.609,0,0,1-4.38.983A29.478,29.478,0,0,1,104.413,63Zm3.79-1.824a24.25,24.25,0,0,0,9.762-4.434c.554-.429.948-.822.948-.948,0-.232-6.168-9.744-6.418-9.922-.143-.089-.3.018-.733.411a7.3,7.3,0,0,1-2.485,1.591A7.886,7.886,0,1,1,104.431,32.9a9.715,9.715,0,0,1,3.933,0,8.9,8.9,0,0,1,2.771,1.359,1.816,1.816,0,0,0,.751.411c.125-.054,6.007-9.243,6.15-9.619-1.269-1.931-5.65-3.737-8.886-4.291A21.112,21.112,0,0,0,96.511,22.3a21.5,21.5,0,0,0-10.1,10.459c-1.395,3.361-2.968,12.819,2.217,19.952,4.166,5.739,10.441,10.387,19.523,8.474h.054Zm16.555,1.251c-.072-.018-.143-.179-.143-.322,0-.518-1.251-.787-1.251-.787l-.107-41.192,15.429.054.054.644.054.644.465.054.465.054.107,25.941,10.942.143s.465-.072.465.822c0,.465.733.572.733.572l.089,13.355s-27.014.143-27.3.036v-.018Zm25.494-13.874-12.282-.107-.125-27.479-13.748.018V60.377s14.66.143,26.228.143l-.072-11.961Zm5.864,13.82a.784.784,0,0,1-.161-.447c-.018-.358-.089-.429-.322-.465a6.7,6.7,0,0,0-1.037-.018l.054-41.3L170.1,20.1l.054.268a5.417,5.417,0,0,1,.089.661c.018.375.054.411.465.447a.591.591,0,0,1,.5.393L171.1,62.325l-14.982.054Zm13.141-41.37H155.474V60.394l13.838.143-.054-39.529ZM177.8,62.433a1.9,1.9,0,0,1-.179-.5c-.036-.393-.054-.411-.572-.447a2.269,2.269,0,0,1-.662-.179l-.054-41.1h28.015l.054.644.054.644.465.054.465.054V33.523l-12.282.107v2.2l9.636.179a1.984,1.984,0,0,1,.161.7c0,.572,0,.572.393.572a.776.776,0,0,1,.518.161c.2,3.9.072,10.781.072,10.781l-10.8.143-.179,14.017Zm13.391-16.019L201.9,46.36l.054-9.547-10.709-.054-.054-5.042,12.247-.143.072-10.441H177.16s-.089,39.225.018,39.332c4.934.107,14,.018,14,.018l.054-14.07Zm-128.08,2-.072-5.721,2.217-.465.018-2.646-2.128-.5-.089-5.65L80.689,37.85l.143,6.615L63.114,48.416Zm17-4.487-.089-5.453L63.758,34.31l.036,4.309,2.038.5.018,3.594-2.092.626.036,4.255,16.323-3.665Zm-11.8-1.645.018-2.628,7.706,1.43Zm4.63-1.216-3.969-.59.054.894Zm-19.756.072,6.6-6.418L59.843,47.5,53.192,41.14Zm5.31-3.522-3.576,3.54,3.558,3.54Zm8.886-4.309a4.944,4.944,0,0,1-3.647-2.682c-.626-1.269-.7-1.913-.7-6.293,0-3.486.018-4.023.018-4.023l17.771.107s.054,1.091.018,3.969a20.714,20.714,0,0,1-.25,4.487c-.822,2.861-2.664,4.362-5.22,4.2a4.043,4.043,0,0,1-3.2-1.9A4.441,4.441,0,0,1,67.387,33.309Zm2.253-.858c1.734-.7,1.877-1.681,2.521-2.914.751,1.341,1.663,2.771,3.5,2.789a3.8,3.8,0,0,0,2.4-.661,4.934,4.934,0,0,0,1.734-2.557c.3-.93.3-.948.322-4.452v-3.54H63.794l-.018,3.522c-.036,3.826.018,4.416.536,5.507A4.12,4.12,0,0,0,66.9,32.469,5.668,5.668,0,0,0,69.64,32.451ZM66.8,26.086l.018-.8,3.808-.018v.822c0,1.43-.465,2.181-1.77,2.235A1.988,1.988,0,0,1,66.8,26.086Zm2.038,1.591c1.341,0,1.108-1.627,1.108-1.627l-2.414-.018c-.018,0-.215,1.645,1.305,1.645Zm4.756-1.716.036-.679h3.361l.036.644c-.018,1.287-.447,2.163-1.627,2.2C74.11,28.16,73.591,27.123,73.591,25.961Zm2.789,0H74.253s-.072,1.627,1.144,1.645C76.559,27.606,76.38,25.961,76.38,25.961Z" transform="translate(0.849 0.993)" fill="#0d0707"/></g></g></svg>