<svg xmlns="http://www.w3.org/2000/svg" xmlns:xlink="http://www.w3.org/1999/xlink" width="214" height="124" viewBox="0 0 214 124"><defs><clipPath id="a"><rect width="214" height="124" transform="translate(853 771)"/></clipPath></defs><g transform="translate(-853 -771)" clip-path="url(#a)"><g transform="translate(824.658 807.909)"><path d="M69.877,49.777c.315-.1.581-.169.823-.266,0-.073-.024-.169-.024-.242-.242-.073-.508-.121-.823-.194A6.342,6.342,0,0,1,69.877,49.777Z" transform="translate(-3.501 -14.693)" fill="#fff"/><path d="M69.886,49.777v-.7c.315.073.557.145.823.194,0,.1.024.169.024.242-.266.073-.533.169-.847.266Z" transform="translate(-3.51 -14.693)"/><path d="M202.778,9.459a25.046,25.046,0,0,0-4.043-.291q-22.586-.036-45.147-.024h-63.5a10.386,10.386,0,0,0-4.115.7c-2.59,1.041-3.946,3.123-4.817,5.665-3.123,9.126-6.294,18.228-9.417,27.355a9.584,9.584,0,0,0-.508,2.711,3.455,3.455,0,0,0,2.856,3.558,6.8,6.8,0,0,0,1.573.145H184.622c.436,0,.847,0,1.283-.024a10.787,10.787,0,0,0,7.286-2.953c.775-.8,3.1-6.657,3.171-6.875l7.262-20.552c.629-1.816,1.331-3.631,1.791-5.5.557-2.227-.387-3.558-2.638-3.922Z" transform="translate(-3.865 -4.15)"/><path d="M173.1,49.558c-23.7,0-50.812,0-78.36-.024H74.767a9.607,9.607,0,0,1-2.13-.218,6.062,6.062,0,0,1-4.89-6.149,11.082,11.082,0,0,1,.654-3.486q2.513-7.354,5.059-14.694l1.767-5.107c.871-2.518,1.743-5.035,2.59-7.553,1.259-3.631,3.292-5.979,6.27-7.214A13.023,13.023,0,0,1,89.2,4.265c7.867,0,15.856.024,23.6.048,7.819.024,15.9.048,23.845.048h16.049l19.124-.218c7.625,0,16.655,0,26.023.024a28.244,28.244,0,0,1,4.454.339,5.808,5.808,0,0,1,4.164,2.421,5.775,5.775,0,0,1,.605,4.7c-.412,1.622-.968,3.171-1.5,4.672l-.024.1c-.121.315-.218.629-.339.944-1.864,5.3-3.752,10.675-5.592,15.856l-1.67,4.7c-.073.218-.7,1.816-1.38,3.389-1.428,3.341-1.961,4.043-2.4,4.454a13.32,13.32,0,0,1-8.957,3.728c-.46.024-.92.048-1.477.048H173.1v.048ZM89.147,6.759a11.054,11.054,0,0,0-4.212.605c-2.348.968-3.922,2.784-4.914,5.713q-1.893,5.453-3.752,10.917c-1.864,5.4-3.776,10.966-5.664,16.437a9.534,9.534,0,0,0-.508,2.784,3.665,3.665,0,0,0,3.05,3.8,7.766,7.766,0,0,0,1.622.169H184.452a3.437,3.437,0,0,0,.533-.024c3.292-.242,5.664-1.186,7.432-3a15.953,15.953,0,0,0,1.549-2.856l.145-.339H78.374l.9-2.881h116.1l.048-.169a2.809,2.809,0,0,1,.242-.653.075.075,0,0,0,.024-.048c2.227-6.294,4.5-12.733,6.681-18.979l.581-1.646q.178-.538.387-1.065c.508-1.452,1.041-2.929,1.428-4.454A3.5,3.5,0,0,0,204.5,8.26a3.7,3.7,0,0,0-2.566-1.4,24.978,24.978,0,0,0-4.091-.266H195.1c-3.873,0-7.771,0-11.644.024-3.873,0-7.771.024-11.644.024-3.2,0-6.439.024-9.562.048s-6.367.048-9.562.048H89.147v.024Z" transform="translate(-2.945 -2.83)" fill="#fff"/><path d="M171.687,4.332c7.625,0,16.679,0,26.023.024a27.615,27.615,0,0,1,4.406.339A5.583,5.583,0,0,1,206.11,7.02a5.536,5.536,0,0,1,.581,4.5,45.813,45.813,0,0,1-1.5,4.672l-.024.1c-.121.315-.218.629-.339.944-1.864,5.326-3.776,10.7-5.616,15.9l-1.646,4.648c-.073.218-.7,1.816-1.38,3.365-1.428,3.292-1.961,3.994-2.348,4.382a13.141,13.141,0,0,1-8.811,3.655c-.436.024-.92.048-1.453.048h-10.6c-23.772,0-50.4,0-78.626-.024H74.615A9.162,9.162,0,0,1,72.533,49a5.826,5.826,0,0,1-4.7-5.907,11.309,11.309,0,0,1,.629-3.413q2.513-7.354,5.059-14.695l.605-1.79,1.162-3.316,2.614-7.553c1.21-3.558,3.22-5.882,6.125-7.069a13.032,13.032,0,0,1,5.035-.823c7.867,0,15.856.024,23.6.048,7.819.024,15.9.048,23.844.048h16.05l9.562-.1,9.562-.1m1.307,43.017h11.353a3.924,3.924,0,0,0,.557-.024c3.365-.242,5.786-1.21,7.6-3.074a14.353,14.353,0,0,0,1.6-2.9l.315-.678H78.585l.75-2.4h116.1l.1-.339c.121-.387.194-.557.218-.629a.187.187,0,0,0,.024-.073c2.227-6.294,4.478-12.709,6.657-18.93l.605-1.694q.178-.538.387-1.065a46.014,46.014,0,0,0,1.428-4.478,3.748,3.748,0,0,0-.315-3,3.766,3.766,0,0,0-2.736-1.5,25.246,25.246,0,0,0-4.115-.291H194.95c-3.873,0-7.819,0-11.644.024-3.825,0-7.771.024-11.644.024-3.2,0-6.439.024-9.562.048s-6.366.048-9.562.048h-63.5a11.168,11.168,0,0,0-4.309.629c-2.421.993-4.043,2.856-5.059,5.858-1.259,3.631-2.493,7.286-3.752,10.918-1.864,5.4-3.776,10.966-5.665,16.461a10.059,10.059,0,0,0-.533,2.856,3.9,3.9,0,0,0,3.244,4.043,6.957,6.957,0,0,0,1.67.169h98.355m-1.307-43.5-9.562.1-9.562.1H136.489c-15.807,0-31.639-.1-47.447-.1a13.65,13.65,0,0,0-5.2.847c-3.026,1.234-5.132,3.631-6.415,7.359-1.259,3.631-2.493,7.262-3.752,10.893-1.864,5.4-3.776,10.966-5.665,16.461a11.786,11.786,0,0,0-.654,3.558,6.3,6.3,0,0,0,5.084,6.391,9.978,9.978,0,0,0,2.2.218c34.254,0,68.943.024,98.331.024h10.6c.436,0,.944,0,1.477-.048a13.582,13.582,0,0,0,9.126-3.8c.436-.436.993-1.162,2.445-4.527.678-1.573,1.307-3.171,1.4-3.413l1.646-4.648c1.84-5.2,3.752-10.6,5.616-15.9.121-.339.242-.7.363-1.041.533-1.5,1.089-3.074,1.5-4.7a6.035,6.035,0,0,0-.629-4.89,6.074,6.074,0,0,0-4.333-2.542,28.881,28.881,0,0,0-4.5-.339h-26Zm1.307,43.017q-49.166,0-98.331-.024A8.446,8.446,0,0,1,73.09,46.7a3.455,3.455,0,0,1-2.856-3.558,9.422,9.422,0,0,1,.508-2.711c3.1-9.126,6.27-18.228,9.393-27.355.872-2.518,2.2-4.5,4.793-5.568a10.813,10.813,0,0,1,4.115-.581h63.5c6.367,0,12.757-.1,19.124-.1,7.771,0,15.517-.048,23.288-.048h2.736a28.108,28.108,0,0,1,4.043.266c2.276.363,3.2,1.67,2.663,3.9-.46,1.864-1.162,3.68-1.791,5.5-2.421,6.851-4.842,13.774-7.262,20.625a3.529,3.529,0,0,0-.266.726H78.972l-1.041,3.365H193.644a12.868,12.868,0,0,1-1.5,2.784,10.763,10.763,0,0,1-7.286,2.929,3.743,3.743,0,0,1-.533.024h-.751c-3.51-.024-7.044-.024-10.579-.024Z" transform="translate(-2.84 -2.752)"/><g transform="translate(77.771 6.285)"><path d="M129.918,35.63c1.84-5.326,3.631-10.554,5.422-15.735H139c-.024.291-.024.508-.024.751,1.912-1.21,3.776-1.743,5.447.412a6.743,6.743,0,0,1,3.316-1.331,3.184,3.184,0,0,1,3.849,3.728,6.048,6.048,0,0,1-.315,1.307c-1.162,3.437-2.348,6.875-3.534,10.312-.073.194-.145.363-.242.581h-3.631q.135-.475.291-.944c1.041-3.147,2.106-6.27,3.147-9.393a3.885,3.885,0,0,0,.242-1.017c.1-1.065-.412-1.5-1.452-1.259a2.209,2.209,0,0,0-1.695,1.549c-1.186,3.51-2.4,7.02-3.583,10.53-.048.169-.121.315-.194.533h-3.68a8.734,8.734,0,0,1,.291-.944c1.065-3.074,2.13-6.149,3.171-9.247a5.393,5.393,0,0,0,.291-1.38c.048-.7-.339-1.065-1.041-1.065a2.154,2.154,0,0,0-2.179,1.622c-1.138,3.341-2.276,6.681-3.389,10.046-.121.339-.218.653-.339.993-1.259-.049-2.469-.049-3.825-.049ZM105.032,16.337c-1.138.605-2.276,1.186-3.437,1.791-.194-.484-.315-.92-.533-1.356A3.112,3.112,0,0,0,96.777,15.2a9.865,9.865,0,0,0-4.043,3.607A16.3,16.3,0,0,0,89.951,29.07a7.155,7.155,0,0,0,.944,2.808,2.206,2.206,0,0,0,2.953,1.041,8.493,8.493,0,0,0,1.162-.533c.363-.218.7-.484,1.138-.8.654,1.114,1.307,2.179,1.985,3.341-.339.266-.654.557-.993.8a10.073,10.073,0,0,1-4.7,1.864,5.16,5.16,0,0,1-5.011-2.251A11.162,11.162,0,0,1,85.4,29.216c-.266-4.285,1.21-8.085,3.413-11.644a14.873,14.873,0,0,1,5.713-5.64,6.961,6.961,0,0,1,8.5.9,7.787,7.787,0,0,1,2.009,3.51Zm57.275,4.236c.121-.266.218-.484.339-.726h3.728c-1.791,5.277-3.558,10.482-5.326,15.711h-3.534c.024-.266.048-.533.073-.63-.775.315-1.573.751-2.445,1.017a2.563,2.563,0,0,1-2.856-1.041,5.1,5.1,0,0,1-1.21-3.558,15.165,15.165,0,0,1,3.486-9.175,8.963,8.963,0,0,1,3.728-2.59,3.4,3.4,0,0,1,3.583.629A2.178,2.178,0,0,0,162.307,20.573Zm-2.13,4.527c-.024-.194-.024-.412-.048-.605-.169-1.186-.872-1.549-1.912-.992a4.742,4.742,0,0,0-1.259,1.041,11.671,11.671,0,0,0-2.421,4.866,5.2,5.2,0,0,0-.024,1.937,1.1,1.1,0,0,0,1.574.9,2.485,2.485,0,0,0,.847-.484,11.21,11.21,0,0,0,3.244-6.657Zm2.735,10.6c1.816-5.326,3.558-10.555,5.35-15.783h3.752c-.048.242-.073.436-.121.654.073-.024.145,0,.218-.048a5.976,5.976,0,0,1,3.123-.944,3.056,3.056,0,0,1,3.074,4.019c-1.283,3.728-2.542,7.432-3.825,11.16-.1.291-.218.557-.339.871h-3.607c.145-.484.266-.944.412-1.38q1.529-4.364,3.026-8.739a2.115,2.115,0,0,0,.121-.363c.145-.7.315-1.428-.315-1.961a1.869,1.869,0,0,0-2.058-.024,2.663,2.663,0,0,0-1.4,1.767q-1.642,4.883-3.316,9.756c-.121.339-.218.653-.339.993C165.406,35.7,164.244,35.7,162.912,35.7Zm-32.462-6.56h-8.085a4.591,4.591,0,0,0,.194,2.735c.218.46.629.775,1.089.581a15.007,15.007,0,0,0,1.961-1.017,4.056,4.056,0,0,0,.629-.653h3.607a5.545,5.545,0,0,1-.291.557,12.428,12.428,0,0,1-3.873,3.825c-3.389,1.985-6.512.484-7.02-3.437a10.672,10.672,0,0,1,1.452-6.584,11.038,11.038,0,0,1,5.229-5.108c3.219-1.428,5.18-.145,6.125,2.978A8.481,8.481,0,0,1,130.45,29.143Zm-2.251-3a14.733,14.733,0,0,0,0-1.791c-.194-1.477-1.089-1.937-2.4-1.21a6.89,6.89,0,0,0-2.615,3H128.2Z" transform="translate(-85.369 -10.899)" fill="#fff" stroke="#d8d8d8" stroke-miterlimit="10" stroke-width="0.412"/><path d="M117.805,25.183a12.564,12.564,0,0,1-.266,1.622,15.061,15.061,0,0,1-4.454,7.6,7.61,7.61,0,0,1-3.631,1.888,3.533,3.533,0,0,1-3.8-1.5,5.951,5.951,0,0,1-1.138-4.043,12.335,12.335,0,0,1,4.817-9.465,7.886,7.886,0,0,1,4.261-1.5,3.141,3.141,0,0,1,3.026,1.549,7.008,7.008,0,0,1,1.186,3.849Zm-3.558.387a6.554,6.554,0,0,0-.1-.968,1.418,1.418,0,0,0-2.033-1.235,5.216,5.216,0,0,0-1.864,1.186,8.209,8.209,0,0,0-2.3,4.382,5.37,5.37,0,0,0-.073,1.864c.266,1.816,1.4,2.3,2.953,1.307.073-.048.121-.073.194-.121a9.783,9.783,0,0,0,3.22-6.415Zm9.683-13.532h3.752c-2.687,7.989-5.374,15.9-8.037,23.869h-3.752C118.58,27.919,121.243,20,123.93,12.038Z" transform="translate(-90.42 -11.2)" fill="#fff" stroke="#d8d8d8" stroke-miterlimit="10" stroke-width="0.412"/></g><path d="M224.687,37.261c-3.9,0-7.407-3.2-8.739-7.989L219.555,27a.475.475,0,0,0,.218-.315.562.562,0,0,0-.073-.387.476.476,0,0,0-.412-.218.646.646,0,0,0-.291.073l-3.317,2.106a14.281,14.281,0,0,1-.315-3.026,12.052,12.052,0,0,1,.073-1.356h3.922a.508.508,0,0,0,0-1.017h-3.776a14.285,14.285,0,0,1,1.234-3.994l2.2,1.259a.488.488,0,0,0,.266.073.525.525,0,0,0,.508-.629.576.576,0,0,0-.218-.315l-2.251-1.428a8.226,8.226,0,0,1,14.767,0l-2.251,1.428a.475.475,0,0,0-.218.315.556.556,0,0,0,.533.654.409.409,0,0,0,.242-.073l2.179-1.307a14.279,14.279,0,0,1,1.234,3.994h-3.776a.508.508,0,0,0,0,1.017h3.922a12.058,12.058,0,0,1,.073,1.356,13.941,13.941,0,0,1-.315,2.953L230.4,26.077a.488.488,0,0,0-.266-.073.526.526,0,0,0-.508.63.5.5,0,0,0,.218.315l3.607,2.276c-1.331,4.817-4.841,8.037-8.763,8.037Zm-4.769-1.937h8.545V34.307h-8.545Zm1.4-6.2a.616.616,0,0,0-.63.629v4.26h7.238V30.071c0-.9-.508-.993-.726-.993-.1,0-.145.024-.194.024h-5.689Zm1.428-.8,1.695.073,1.67-.073V26.561a4.827,4.827,0,0,0,2.058-1.38l.024-.024v-6.1c.1,0,.218.024.387.024h.194c.169,0,.678-.048.7-.291,0-.169-.242-.242-.484-.266a1.59,1.59,0,0,1-1.065-.751l-.024-.073h-.654a2.116,2.116,0,0,0-.242-.533h.629L227.593,17a5.036,5.036,0,0,0-.339-.823,1.447,1.447,0,0,0-.533-.194c-.1-.024-.218-.073-.291-.1a3.774,3.774,0,0,0-.291-.581l-.024-.073-1.21-.024-1.259.048-.024.073c-.169.363-.242.533-.291.605a.746.746,0,0,1-.266.048c-.387.073-.508.121-.557.169a4.619,4.619,0,0,0-.339.847l-.048.169h.629a2.123,2.123,0,0,0-.242.533h-.653l-.048.048a2.5,2.5,0,0,1-1.283.775c-.436.073-.629.169-.629.315,0,.169.266.218.484.242h.218c.218,0,.436-.024.581-.024v6.028a.645.645,0,0,0,.121.533,2.689,2.689,0,0,0,1.452.944v1.767Z" transform="translate(-41.921 -5.227)" fill="#fff"/><path d="M224.653,13.366a8.609,8.609,0,0,1,7.238,4.43l-2.155,1.356a.6.6,0,0,0-.266.387.645.645,0,0,0,.629.8.487.487,0,0,0,.315-.1l2.082-1.259a14.111,14.111,0,0,1,1.138,3.7h-3.655a.629.629,0,1,0,0,1.259h3.8a10.112,10.112,0,0,1,.048,1.234,13.481,13.481,0,0,1-.266,2.76l-3.147-1.985a.556.556,0,0,0-.339-.1.666.666,0,0,0-.533.291.57.57,0,0,0-.073.484.6.6,0,0,0,.291.387l3.534,2.227c-1.332,4.672-4.769,7.795-8.618,7.795A7.606,7.606,0,0,1,220,35.37h8.545V34.111h-8.787v1.065a11.957,11.957,0,0,1-3.7-5.931l3.534-2.227a.668.668,0,0,0,.291-.387.592.592,0,0,0-.073-.46.658.658,0,0,0-.508-.291.684.684,0,0,0-.363.1l-3.147,2.033a14.034,14.034,0,0,1-.266-2.832c0-.46.024-.823.048-1.235h3.8a.629.629,0,1,0,0-1.259H215.72a13.259,13.259,0,0,1,1.138-3.7l2.082,1.186a.556.556,0,0,0,.339.1.666.666,0,0,0,.533-.29.57.57,0,0,0,.073-.484.6.6,0,0,0-.291-.387l-2.155-1.356a8.624,8.624,0,0,1,7.214-4.381m-1.477,2.445c-.048.024-.145.024-.194.048-.412.073-.533.121-.629.218a3.382,3.382,0,0,0-.363.871l-.121.315h.605a1.492,1.492,0,0,0-.121.291h-.605l-.073.1a2.284,2.284,0,0,1-1.186.726c-.363.048-.726.145-.726.436,0,.145.121.315.581.363h.218a2.631,2.631,0,0,0,.46-.024v5.882a.794.794,0,0,0,.121.605,2.59,2.59,0,0,0,1.428.968v1.816h.242l1.573.073,1.525-.073h.242V26.607a4.734,4.734,0,0,0,2.033-1.4l.048-.073V19.152h.46c.363-.024.8-.1.823-.412.024-.291-.363-.363-.581-.387a1.5,1.5,0,0,1-.968-.678l-.073-.121h-.629a1.484,1.484,0,0,0-.121-.291h.605l-.121-.315a3.394,3.394,0,0,0-.363-.871,1.513,1.513,0,0,0-.581-.242,2.282,2.282,0,0,1-.218-.073c-.048-.1-.121-.266-.266-.557l-.073-.121h-.145l-1.162-.024-1.162.048h-.145l-.073.121c-.122.291-.218.46-.267.581m3.8,13.169h-5.689a.719.719,0,0,0-.751.751v4.382h7.48V30.045a1.246,1.246,0,0,0-.291-.9.767.767,0,0,0-.557-.218c-.1.024-.169.024-.194.048m-2.324-15.856a8.9,8.9,0,0,0-7.553,4.745l2.348,1.477a.372.372,0,0,1,.121.533.366.366,0,0,1-.339.169.71.71,0,0,1-.218-.048l-2.3-1.331a13.862,13.862,0,0,0-1.307,4.285h3.922a.387.387,0,1,1,0,.775h-4.019a14.393,14.393,0,0,0-.073,1.477,15.445,15.445,0,0,0,.339,3.219l3.462-2.2a.39.39,0,0,1,.218-.073.352.352,0,0,1,.315.169.388.388,0,0,1-.121.533l-3.68,2.324c1.307,4.745,4.793,8.158,8.884,8.158,4.115,0,7.6-3.413,8.884-8.158l-3.68-2.324a.373.373,0,0,1-.121-.533.366.366,0,0,1,.339-.169.71.71,0,0,1,.218.048l3.462,2.179a14.754,14.754,0,0,0,.339-3.147c0-.533-.024-.944-.073-1.477H230a.387.387,0,1,1,0-.775h3.922a14.542,14.542,0,0,0-1.307-4.285l-2.3,1.38a.448.448,0,0,1-.169.048.459.459,0,0,1-.363-.194.418.418,0,0,1,.121-.557l2.348-1.477a9.026,9.026,0,0,0-7.6-4.769Zm-2.421,3.9s.266-.726.315-.8c.073-.073.823-.194.823-.218,0-.048.291-.654.291-.654l1.162-.048,1.162.024s.291.581.291.605c0,.048.75.218.823.29a5.954,5.954,0,0,1,.315.8h-.678a2.564,2.564,0,0,1,.363.775h.678a1.683,1.683,0,0,0,1.162.8c.775.121.194.291-.218.315h-.194a2.6,2.6,0,0,1-.508-.048v6.173a4.641,4.641,0,0,1-2.082,1.38v1.743l-1.525.073-1.574-.073V26.414c-1.815-.629-1.549-1.38-1.549-1.38V18.885a5.641,5.641,0,0,1-.7.048h-.218c-.412-.024-.605-.194.145-.315a2.579,2.579,0,0,0,1.355-.8h.678a2.086,2.086,0,0,1,.363-.775h-.678v-.024Zm-1.452,16.873v-4.14a.5.5,0,0,1,.508-.508H227a.59.59,0,0,1,.169-.024c.218,0,.605.121.605.871v3.825h-7v-.024ZM220,35.177V34.4h8.3v.775Z" transform="translate(-41.886 -5.201)" fill="#d8d8d8"/><path d="M225.372,27.509c-.29,0-.533-.145-.533-.412V21.336a.6.6,0,0,1,.533-.581H229.2c.266,0,.726.315.726.581V27.1c0,.242-.436.412-.726.412h-3.825Z" transform="translate(-44.422 -7.216)" fill="#fff"/><path d="M229.2,20.964c.242,0,.484.169.484.339v5.761a.5.5,0,0,1-.484.412h-3.825c-.218,0-.29-.218-.29-.412V21.327c0-.194.073-.339.29-.339H229.2m0-.266h-3.825a.521.521,0,0,0-.533.581v5.761c0,.339.169.654.533.654H229.2a.735.735,0,0,0,.726-.654V21.327A.713.713,0,0,0,229.2,20.722Z" transform="translate(-44.422 -7.207)" fill="#e8eaea"/><path d="M77.932,53.161A1.961,1.961,0,1,1,79.893,51.2,1.984,1.984,0,0,1,77.932,53.161Zm0-3.7A1.743,1.743,0,1,0,79.675,51.2,1.736,1.736,0,0,0,77.932,49.457Z" transform="translate(-5.116 -14.737)" fill="#fff"/><path d="M77.747,50.5a3.31,3.31,0,0,1,.508-.048.824.824,0,0,1,.605.169.585.585,0,0,1,.169.412.552.552,0,0,1-.387.533.484.484,0,0,1,.315.412,3.712,3.712,0,0,0,.169.581h-.291q-.036-.109-.145-.508c-.073-.29-.169-.387-.412-.412h-.266v.92h-.266V50.5Zm.266.968h.266c.291,0,.484-.169.484-.387,0-.266-.194-.387-.484-.387a.752.752,0,0,0-.266.024Z" transform="translate(-5.585 -15.058)" fill="#fff"/></g></g></svg>