<svg xmlns="http://www.w3.org/2000/svg" xmlns:xlink="http://www.w3.org/1999/xlink" width="214" height="124" viewBox="0 0 214 124"><defs><clipPath id="a"><rect width="214" height="124" transform="translate(853 483)"/></clipPath></defs><g transform="translate(-853 -483)" clip-path="url(#a)"><g transform="translate(873.619 528.232)"><path d="M9.13,5.435H31.8l-4.056,5.613H13.055Zm27.708.78-3.483,4.834,3.926,5.72-4.029,5.614-7.746.1-3.924,5.38H36.267l7.875-11.1ZM16.98,16.768h7.07l-8.083,11.1H9.13Z" transform="translate(0)"/><path d="M54.207,5.54h6.939l7.876,11.229L61.146,28.1H54.31l7.85-11.333Zm29.606-.1-15.7,22.432h6.733L87.19,10.477ZM89.868,14.4l-5.484,7.876h4.367L92.676,28h6.862Zm.806-8.968H97.51l15.7,22.432h-6.836Zm13.672,0h6.966l6.057,8.76-3.484,4.938Zm24.59.1L116.693,23.058,120.176,28l8.76-12.788L131.744,19l3.353-4.7Zm24.8-.1h-6.967L134.55,23.163,137.9,28Zm6.835.1L144.739,27.867H151.6l12.347-17.493Zm6.057,8.759-5.485,8.084H165.4L169.432,28h6.732Z" transform="translate(-12.533)"/></g></g></svg>