<?xml version="1.0" encoding="UTF-8"?>
<svg id="Layer_1" xmlns="http://www.w3.org/2000/svg" version="1.1" width="214" height="124" viewBox="0 0 214 124">
  <!-- Generator: Adobe Illustrator 29.0.1, SVG Export Plug-In . SVG Version: 2.1.0 Build 192)  -->
  <path d="M62.9,50.2c-.3-.6-1.1-1.1-1.8-1.1h-1.4c-.7,0-1.5.5-1.8,1.1l-11.2,23.6c-.3.6,0,1.1.7,1.1h2.6c1,0,1.5-.5,1.8-1,.3-.6.9-1.8,1-2.1.2-.3.7-.6,1.3-.6h12.1c.7,0,1.1.1,1.3.6.1.3.8,1.4,1.1,2,.3.6.8,1.1,1.8,1.1h3.8c.7,0,1-.5.7-1-.2-.5-12-23.7-12-23.7h0ZM55.8,67.6c-.7,0-1-.5-.7-1.2l4.4-9.5c.3-.6.8-.6,1.1,0l4.3,9.5c.3.6,0,1.2-.7,1.2h-8.3,0ZM149.7,50.4v23.4c0,.6.6,1.1,1.3,1.1h3.1c.7,0,1.3-.4,1.3-1.1v-23.4c0-.7-.5-1.3-1.1-1.3h-3.2c-.7,0-1.3.4-1.3,1.3ZM98.2,65.1c-.4-.6-.2-1.2.5-1.4,0,0,2.7-.8,3.9-1.9,1.3-1.1,1.9-2.8,1.9-5s-.2-2.6-.7-3.6c-.5-1-1.2-1.8-2.1-2.4-.9-.6-2-1.1-3.3-1.3-1.3-.3-3-.4-3-.4-.7,0-1.8,0-2.5,0h-12.7c-.7,0-1.3.6-1.3,1.3v23.4c0,.7.6,1.1,1.3,1.1h3c.7,0,1.3-.4,1.3-1.1,0,0,0-9.3,0-9.3s0,0,0,0,5.7,0,5.7,0c.7,0,1.6.5,2,1l5.9,8.4c.6.7,1.1,1,1.8,1h3.9c.7,0,.8-.7.6-1-.2-.3-6.2-8.8-6.2-8.8h0ZM95.8,60.3c-.8.2-1.7.2-1.7.2-.7,0-1.8,0-2.5,0h-5.9c-.7,0-1.3-.6-1.3-1.3v-4.7c0-.7.6-1.3,1.3-1.3h5.9c.7,0,1.8,0,2.5,0,0,0,.9,0,1.7.2.8.2,1.4.4,1.9.8.5.3.8.7,1,1.2.2.4.3.9.3,1.5s-.1,1-.3,1.5c-.2.4-.5.8-1,1.2-.5.3-1.1.6-1.9.8h0ZM187.4,49.1c-.7,0-1.3.5-1.3,1.1s0,15,0,15c0,.7-.4.9-.9.4l-14.9-15.5c-.5-.5-1.2-.9-2.1-.9h-2.8c-.9,0-1.3.5-1.3,1v23.9c0,.5.5.9,1.1.9h2.8c.7,0,1.2-.4,1.2-1s0-15.8,0-15.8c0-.7.4-.9.9-.4l15.5,16.3c.5.5,1.1.9,2.2.9h2.1c.7,0,1.3-.6,1.3-1.3v-23.3c0-.7-.6-1.3-1.3-1.3h-2.6,0ZM126.6,63.7c-.3.6-.9.6-1.2,0l-7.3-13.5c-.3-.6-.9-1.1-1.8-1.1h-3.9c-.7,0-1.3.6-1.3,1.3v23.4c0,.7.5,1.2,1.3,1.2h2.5c.7,0,1.2-.4,1.2-1.1s0-17,0-17,9.1,17,9.1,17c.3.6,1.1.6,1.5,0,0,0,9.1-17,9.2-17s0,16.5,0,17,.5,1.1,1.2,1.1h2.8c.7,0,1.3-.3,1.3-1.3v-23.3c0-.7-.6-1.3-1.3-1.3h-3.8c-1,0-1.5.5-1.9,1.1l-7.5,13.5h0ZM14.3,62c0,12.6,12.8,13.3,15.4,13.3,8.5,0,12.1-2.3,12.3-2.4.5-.3,1.2-.9,1.2-2.1v-8.7c0-.8-.6-1.5-1.4-1.5h-10.7c-.8,0-1.3.7-1.3,1.5v.9c0,.8.5,1.5,1.3,1.5h6.2c.6,0,1.1.5,1.1,1.1,0,0,0,3.8,0,4.1-1.2.5-6.8,2.1-11.3,1.1-6.5-1.6-7-6.9-7-8.6s.4-8.1,8.4-8.8c6.4-.6,10.7,2.1,10.7,2.1.8.4,1.5.1,2-.7,0,0,.8-1.6.8-1.6.3-.7.2-1.4-.6-1.9,0,0-4.6-2.5-11.6-2.5-15,0-15.4,12-15.4,13.4ZM197.5,69.5c1.6,0,2.9,1.3,2.9,2.9s-1.3,2.9-2.9,2.9-2.9-1.3-2.9-2.9,1.3-2.9,2.9-2.9ZM197.5,75c1.3,0,2.4-1.1,2.4-2.5s-1-2.5-2.4-2.5-2.4,1.1-2.4,2.5,1,2.5,2.4,2.5ZM196.4,70.7h1.3c.8,0,1.2.3,1.2,1s-.4,1-.9,1l1,1.5h-.6l-1-1.5h-.5v1.5h-.6v-3.5ZM196.9,72.2h.7c.4,0,.7,0,.7-.5s-.4-.5-.7-.5h-.7v1Z"/>
</svg>