<svg xmlns="http://www.w3.org/2000/svg" xmlns:xlink="http://www.w3.org/1999/xlink" width="214" height="124" viewBox="0 0 214 124"><defs><clipPath id="a"><rect width="214" height="124" transform="translate(1107 627)"/></clipPath></defs><g transform="translate(-1107 -627)" clip-path="url(#a)"><g transform="translate(1109.446 632.41)"><path d="M68.045,89.472a32.373,32.373,0,0,1-15.071-5.356A34.418,34.418,0,0,1,42.735,73.2a33.725,33.725,0,0,1-4.612-18.027,32.913,32.913,0,0,1,10.1-22.4,31.717,31.717,0,0,1,16.017-8.6,38.168,38.168,0,0,1,10.813-.355A41.109,41.109,0,0,1,82.9,25.624a37.687,37.687,0,0,1,12.182,8.11,38.766,38.766,0,0,1,4.173,5.474,30.55,30.55,0,0,1,2.839,6.116c0,.186-1.69.22-9.394.22H83.318L82.1,44.513A17.443,17.443,0,0,0,67.03,40.239a15.5,15.5,0,0,0-8.245,4.613,17.288,17.288,0,0,0-4.292,7.721,12.316,12.316,0,0,0-.456,4.376,10.938,10.938,0,0,0,.473,4.224,18.28,18.28,0,0,0,9.107,11.151c2.45,1.3,3.48,1.521,6.792,1.5a17.13,17.13,0,0,0,4.427-.372,14.112,14.112,0,0,0,9.428-6.589,7.754,7.754,0,0,0,.76-1.5c0-.169-2.332-.22-11.574-.22-9.191,0-11.573-.051-11.573-.22s1.926-5.93,4.207-12.536l.642-1.858,18.416-.051,18.416-.034.118.862a58.181,58.181,0,0,1-.152,9.191,32.907,32.907,0,0,1-9.749,19.65A33.552,33.552,0,0,1,68.045,89.472Z" transform="translate(0)" fill="#161616"/><path d="M121.535,89.246a8.974,8.974,0,0,1,.355-.98,2.249,2.249,0,0,1,.862-1.234,37.128,37.128,0,0,0,5.39-4.612,36.576,36.576,0,0,0,9.968-20.984,56.254,56.254,0,0,0,0-9.546c-.2-1.284-.777-4.139-1.25-6.167-.2-.912-.2-.963.507-2.872.389-1.064,1.842-5.1,3.244-8.954,1.386-3.853,2.585-7.147,2.636-7.3.118-.287.828-.3,11.844-.3h11.726v9.6c0,5.271.05,12.266.118,15.544l.1,5.947,1.926-4.933q1.693-4.332,3.379-8.668c.794-2.044,1.69-4.359,2.011-5.153q1.124-2.918,2.264-5.829,1.04-2.706,2.095-5.406l.405-1.014,11.76-.051,11.759-.034v63.02H184.69l.068-16.2c.034-8.921,0-16.118-.068-16.017-.051.118-1.1,2.788-2.331,5.947s-2.568,6.623-2.99,7.687c-1.25,3.227-2.315,5.964-3.937,10.137-.845,2.18-1.926,4.984-2.416,6.2l-.879,2.247h-20.7V73.144c0-9.106-.068-16.067-.153-15.932-.118.2-5.221,13.787-11.539,30.716l-.524,1.385h-8.836C125.522,89.313,121.535,89.279,121.535,89.246Z" transform="translate(-31.611 -1.024)" fill="#161616"/><path d="M212.668,123.258a3.438,3.438,0,0,1-2.2-3.295,3.275,3.275,0,0,1,1.487-2.957,3.4,3.4,0,0,1,4.257.287,3.6,3.6,0,0,1-.439,5.643A4.329,4.329,0,0,1,212.668,123.258Zm2.484-.761a3.576,3.576,0,0,0,1.031-.879,3.091,3.091,0,0,0,.034-3.294,2.8,2.8,0,1,0-1.065,4.173Z" transform="translate(-65.3 -35.154)" fill="#161616"/><path d="M213.464,120.794v-2.027h1.014a5.753,5.753,0,0,1,1.6.237c.54.237.591.321.591.912a1.267,1.267,0,0,1-.253.879c-.237.2-.237.253,0,.507a1.615,1.615,0,0,1,.253.9c0,.574-.034.625-.507.625-.405,0-.507-.068-.507-.355,0-.541-.321-1-.676-1-.287,0-.338.118-.338.676,0,.658-.017.676-.591.676h-.591Zm2.027-.422c.27-.321-.051-.76-.524-.76-.236,0-.321.118-.321.507s.084.507.321.507A.814.814,0,0,0,215.492,120.372Z" transform="translate(-66.433 -36.053)" fill="#161616"/></g></g></svg>