<svg xmlns="http://www.w3.org/2000/svg" xmlns:xlink="http://www.w3.org/1999/xlink" width="214" height="124" viewBox="0 0 214 124"><defs><clipPath id="a"><rect width="214" height="124" transform="translate(853 483)"/></clipPath></defs><g transform="translate(-853 -483)" clip-path="url(#a)"><g transform="translate(858.104 502.347)"><g transform="translate(48.258 43.141)"><path d="M96.718,66.225h-6.1L83.332,83.169q-.88,2.215-1.673,4.463c0-.382.034-.767.034-1.149,0-1.118-.034-2.233-.139-3.313L80.125,66.225h-6.45l-7.74,16.944c-.662,1.466-1.22,3-1.779,4.5.036-.94.105-1.882.105-2.892,0-.558,0-1.118-.036-1.674L63.284,66.19H57.008l1.778,30.578h7.043L73.394,79.93A46.624,46.624,0,0,0,75.1,75.4q-.062,1.236-.07,2.475c0,.7.036,1.429.07,2.126l1.185,16.8h7.391L97.137,66.223h-.419Zm13.074.071c-10.669,0-14.468,8.82-14.468,16.385,0,4.742,1.848,7.146,5.474,7.146,3.138,0,6-2.058,8.577-6.1-.7,2.2-1.221,3.938-1.533,5.335l-.07.315h6l.035-.21c.732-4.531,1.569-8.925,2.859-15.584l1.256-6.52-.245-.034a35.659,35.659,0,0,0-7.883-.731Zm-1.01,4.948a9.3,9.3,0,0,1,2.2.279c-.07.314-.208,1.184-.208,1.184-.872,4.533-4.778,11.751-7.776,11.751-.663,0-1.464-.313-1.464-2.824.034-4.042,1.986-10.39,7.251-10.39Zm21.825-14.922h-5.788l-6.275,33.018h6.066l6.275-33.018ZM152.224,68.49l-4.777-3.172s-8.192,8.786-9.2,9.866c.278-1.5,3.591-18.9,3.591-18.9H135.8l-6.275,33.018h6.066s1.778-9.169,2.024-10.528c.558,1.289,4.428,10.528,4.428,10.528h7.285s-5.823-11.82-5.961-12.133c.208-.21,8.856-8.683,8.856-8.683Z" transform="translate(-57.008 -56.288)" fill="#073a93"/><path d="M193.136,69.392c-7.286,0-12.761,6.8-12.761,15.794,0,5.265,2.581,7.74,8.089,7.74a23.024,23.024,0,0,0,8.365-1.464l.174-.069V86.511l-.348.139a17.426,17.426,0,0,1-6.379,1.325c-2.964,0-3.8-.7-3.8-3.068l.1-1.289a.721.721,0,0,1,.036-.208c9.134-.315,13.98-3.208,13.98-8.368-.035-1.712-.767-5.65-7.46-5.65Zm-5.823,9.727c.977-3.172,2.893-5.056,5.2-5.056,1.325,0,2.021.595,2.021,1.708C194.53,77.83,192.23,78.909,187.313,79.119Zm30.3-9.727c-3.382-.558-5.649,1.6-7.775,5.229a36.193,36.193,0,0,0,1.184-4.5l.071-.279h-5.928l-.036.209c-.486,3-1.359,7.67-1.917,10.563l-2.3,11.891h6.066l.977-5.02c1.081-5.507,3.522-10.251,6.031-11.751a2.794,2.794,0,0,1,2.231-.383l.245.071,1.326-6-.174-.036Z" transform="translate(-86.695 -59.42)" fill="#073a93"/></g><path d="M36.717,28.373H31.033L27.371,47.686c-.419,2.267-1.429,3.243-3.346,3.243a5.205,5.205,0,0,1-1.988-.383l-.383-.175-1.01,5.195.348.071a15.3,15.3,0,0,0,3.208.313c4.88,0,7.809-2.546,8.749-7.6l3.768-19.977Zm11.959,6.659c-8.89,0-12.9,7.322-12.9,14.573,0,4.289,1.673,6.45,4.95,6.45,2.614,0,4.986-1.673,7.146-4.775-.487,1.6-.87,2.859-1.116,3.938l-.1.42h5.613l.036-.313c.663-4.045,1.4-7.985,2.546-13.982l1.08-5.649-.348-.07a36.118,36.118,0,0,0-6.9-.592Zm.907,4.846c-.069.383-.174.907-.174.907-.837,4.392-4.289,10.249-6.73,10.249-.348,0-1.15,0-1.15-2.37,0-3.487,1.708-9,6.241-9A10.165,10.165,0,0,1,49.583,39.878Zm35.7-5.439-.14.278s-5.577,11.331-6.379,13c-.105-1.184-.175-2.405-.35-3.554l-1.359-8.786H71.374l.07-.315L71.06,35c-2.824-.454-4.811,1.289-6.415,3.73.315-1.08.557-2.022.732-2.929l.069-.418H59.973L58.23,44.968,56.171,55.6h5.613l.872-4.533c.941-4.847,3.068-8.959,5.266-10.249a2.3,2.3,0,0,1,1.848-.314l.384.1,1.01-4.568L74.51,55.6h5.752l10.53-19.489-5.509-1.673Zm12.412.942H92.5L88.63,55.6h5.613l3.87-20.221Zm14.329-.1A15.981,15.981,0,0,0,108.642,35c-5.4,0-8.751,2.544-8.751,6.693,0,2.789,1.744,4.219,3.173,5.335,1.01.8,1.883,1.5,1.883,2.475,0,1.673-2.021,1.846-2.893,1.846a9.557,9.557,0,0,1-2.859-.522l-.384-.139-1.045,5.019.383.071a23.229,23.229,0,0,0,3.489.277c6.379,0,9.273-3.625,9.273-7.007,0-2.651-1.78-4.184-3.208-5.4-1.01-.872-1.848-1.605-1.848-2.476,0-1.5,1.675-1.743,2.684-1.743a8.245,8.245,0,0,1,2.51.383l.349.1,1.08-4.567-.453-.071Z" transform="translate(0 -6.43)" fill="#073a93"/><path d="M231.874,61.236a2.368,2.368,0,0,1-2.3,2.407,2.143,2.143,0,0,1-2.091-2.2,2.338,2.338,0,0,1,2.3-2.372,2.136,2.136,0,0,1,2.091,2.162Zm.837-.036a2.824,2.824,0,0,0-2.894-2.893,3.229,3.229,0,0,0-3.206,3.244,2.864,2.864,0,0,0,2.894,2.892A3.3,3.3,0,0,0,232.71,61.2ZM231,60.435c0-.419-.277-.7-.976-.7h-1.045l-.593,3.207h.661l.244-1.326h.105l.488,1.326h.767l-.384-1.008a2.381,2.381,0,0,0-.208-.42A1.148,1.148,0,0,0,231,60.435Zm-.767.1a.607.607,0,0,1-.661.594h-.21l.174-.87h.313c.277,0,.383.069.383.276Z" transform="translate(-49.563 -13.633)"/><path d="M99.522,1.653l5.963,2.127,38.246,16.63s-5.893,1.01-7.705,1.185a38.819,38.819,0,0,0-10.112-7.182C120.651,11.8,99.522,1.653,99.522,1.653Zm54.007,21.964c-11.052,10.877-24.788,1.6-27.788-.208C137,33.623,157.328,38.853,168.031,47.57c-4.882-7.985-19.42-11.262-21.372-17.363A20.769,20.769,0,0,0,153.529,23.616Z" transform="translate(-18.981)" fill="#0589b4"/><path d="M170.576,18.6c-6.9-4.776-4.463-12.691-.87-14.294a63.184,63.184,0,0,0-22.9,4.706C142.233,11,135.47,11.622,128.184,9.6,119.5,7.2,99.523,1.653,99.523,1.653c15.376,6,35.039,12.587,41.106,13.143a1.927,1.927,0,0,0,1.219,1.951,1.829,1.829,0,0,0,2.475-.7,1.472,1.472,0,0,0-.035-1.325c2.3.105,4.568.7,5.927,2.65,2.789,3.938,7.253-.315,10.495,5.126,3.068,5.09,7.357,1.045,10.214,6.484,2.72,5.2,6.555,1.638,8.716,8.053,2.091,6.1,4.743,1.534,7.148,7.5,1.916,4.741,3.52,1.255,6.449,6.38C188.916,35.958,181,25.814,170.576,18.6Z" transform="translate(-18.981)" fill="#073a93"/><path d="M175.345,34.893a11.812,11.812,0,0,0,3.033,1.848c1.394.627,3.068,1.289,4.917,1.986q3.258,1.172,6.554,2.232c7.845,2.579,19.873,6.694,20.954,8.4A197.508,197.508,0,0,0,189.22,43.33c-2.963-.594-5.927-1.15-8.681-1.674-.872-.139-1.708-.315-2.51-.453q-3.987-.693-7.984-1.326c2.127-.661,4.358-3.241,5.3-4.984Z" transform="translate(-35.951 -7.999)" fill="#0589b4"/></g></g></svg>