<?xml version="1.0" encoding="UTF-8"?>
<svg id="Layer_1" xmlns="http://www.w3.org/2000/svg" version="1.1" width="214" height="124" viewBox="0 0 214 124">
  <!-- Generator: Adobe Illustrator 29.0.1, SVG Export Plug-In . SVG Version: 2.1.0 Build 192)  -->
  <defs>
    <style>
      .st0 {
        fill: #231f20;
      }
    </style>
  </defs>
  <path class="st0" d="M173.3,56.4c-28.3,3.5-68.7-6.5-65.7-17.2,1-3.7,7-7,18.1-7.9-18.7,1.3-30.4,3-42.9,9.5,0,0-12.1,5.7-16,14.5,10.8-3.4,17.7-3.7,27.3-4,30.2-.9,70.1,14.4,67.2,28.8-1,4.9-6.1,9.7-13.6,12.6,50.3-3.7,48.1-43.4,48.1-43.4-5.4,4.2-9.3,5.5-22.5,7.1Z"/>
  <g>
    <path class="st0" d="M65.8,68c-8.1,0-15.6,3.9-19,10.7-3.5,6.9.2,10.7,8.3,10.7,8.1,0,15.6-3.9,19-10.8,3.4-6.9-.2-10.7-8.3-10.7ZM66.9,78.7c-1.6,3.2-5.2,6.2-9.6,6.2-4.3,0-5-3-3.4-6.2,1.6-3.2,5.2-6.2,9.6-6.2s5,3,3.3,6.2Z"/>
    <polygon class="st0" points="106.1 84.6 108 80.9 117.5 80.8 119.7 76.4 110.2 76.4 112 72.8 123.4 72.8 125.6 68.3 107.1 68.3 96.7 89.1 115.2 89 117.5 84.6 106.1 84.6"/>
    <path class="st0" d="M116.5,89.1h7.9s5.7-6,5.7-6h8.4l-.5,5.9h7.6c.2-6.8.3-13.9.9-20.7h-8.6c-7.1,7-14.1,14-21.3,20.7ZM139.8,72.8l-.5,6h-5.3l5.8-6h0Z"/>
    <path class="st0" d="M98.2,68.3l-13.7,13.1,1-13.1h-7.4c-.4,6.2-1.1,18.8-1.4,20.7h8.2c4.3-4.3,16.3-16.4,20.7-20.7h-7.5Z"/>
    <polygon class="st0" points="51.5 68.3 44.1 68.3 31.8 76.4 35.8 68.3 28.6 68.3 18.2 89 25.4 89 31 78 34.8 89 42.1 89 38 77.7 51.5 68.3"/>
  </g>
</svg>