<svg xmlns="http://www.w3.org/2000/svg" xmlns:xlink="http://www.w3.org/1999/xlink" width="214" height="124" viewBox="0 0 214 124"><defs><clipPath id="a"><rect width="214" height="124" transform="translate(1107 771)"/></clipPath></defs><g transform="translate(-1107 -771)" clip-path="url(#a)"><g transform="translate(1115.477 798.533)"><path d="M68.73,62.363a17.2,17.2,0,0,1-1.376-1.311c-.387-.409-1.043-1.107-1.462-1.548-5.213-5.493-6.17-6.546-6.288-6.966-.183-.6-.011-1.054.838-2.107,3.1-3.838,3.16-3.9,3.5-3.365.161.236.806,1.946,3.827,9.965,1.548,4.128,1.989,5.579,1.763,5.8C69.461,62.912,69.193,62.75,68.73,62.363Z" transform="translate(-9.227 -8.215)" fill="#0182c0"/><path d="M47.853,33.378a.767.767,0,0,1-.538-.806c0-.817-.043-.752,4.5-6.267.924-1.118,2.58-3.128,3.676-4.461s2.73-3.311,3.633-4.407,2.956-3.58,4.558-5.536c5.643-6.847,5.514-6.708,5.859-6.837.226-.086.312-.075.419.075.2.279.108.677-1.591,6.278-.538,1.742-1.086,3.558-1.226,4.031s-.548,1.806-.9,2.956c-2.032,6.654-2.182,7.213-2.139,7.955a2.639,2.639,0,0,0,.785,1.86c.677.7.957.774,6.987,1.9.591.118,2.214.43,3.6.7s4.289.828,6.45,1.247c5,.957,5.643,1.139,4.719,1.322-.419.075-38.569.075-38.795-.011Z" transform="translate(-6.828 -0.008)" fill="#e94a37"/><path d="M29.48,63.8c-.129-.344-.161-.236,2.677-9.61.484-1.623,1.43-4.73,2.085-6.9,1.333-4.407,1.387-4.762.935-5.729a3.34,3.34,0,0,0-1.516-1.494c-.2-.086-1.505-.376-2.881-.645s-4.375-.838-6.686-1.29-5.59-1.075-7.31-1.408c-4.149-.8-4.805-.989-3.913-1.172.183-.032,8.944-.064,19.468-.064,20.413,0,19.607-.022,19.8.484.269.7-.1,1.387-1.784,3.44C46.8,43.732,37.477,55.04,34.328,58.867c-1.946,2.365-3.719,4.483-3.924,4.708-.408.419-.817.516-.924.226ZM184.424,15.923c0-.075.032-.108.075-.075a.129.129,0,0,1,0,.15C184.456,16.03,184.424,16,184.424,15.923ZM62.663,4.99a.129.129,0,0,1,.151,0c.032.043,0,.075-.075.075S62.631,5.033,62.663,4.99Z" transform="translate(0)" fill="#96c93e"/><g transform="translate(34.22 15.471)"><path d="M99.208,37.141V18.6h11.459l4.665,9.739c2.569,5.353,4.708,9.761,4.751,9.782a2.5,2.5,0,0,0,.505-.839c.226-.494.817-1.709,1.3-2.72s2.4-5.009,4.268-8.89l3.4-7.073h11.47V55.684l-3.838-.022-3.848-.032.032-1.666c.086-4.891.451-21.811.516-24.111a19.783,19.783,0,0,0-.021-2.655,7.323,7.323,0,0,0-.774,1.322c-4.482,8.761-6.6,12.9-9.18,17.919q-1.587,3.1-3.181,6.2a4.425,4.425,0,0,1-.678,1.129c-.032-.043-3.107-6.138-6.826-13.544-6.428-12.814-6.761-13.458-6.794-13-.032.494.559,24.036.677,26.874l.065,1.581H99.208Zm60.412,18.468a32.383,32.383,0,0,1-4.579-.742,13.56,13.56,0,0,1-7.707-6.192c-1.86-3.225-2.741-8.331-2.333-13.48.57-7.138,2.967-11.867,7.256-14.308a17.525,17.525,0,0,1,6.1-1.989c1.4-.226,1.7-.236,14.953-.269,9.363-.032,13.523-.011,13.491.065-.032.107-1.526,1.344-6.127,5.063L179.1,25.037l-9.4.032-9.385.043-.806.236a6.268,6.268,0,0,0-2.967,1.677c-1.011,1.01-1.569,2.193-2.236,4.687a19.244,19.244,0,0,0-.645,5.7,17.969,17.969,0,0,0,1.29,7.514,5.593,5.593,0,0,0,3.612,3.515c1.43.505,2.43.581,7.7.581h4.859V40.2l-5.16-.021-5.16-.032,1.1-.924q1.464-1.234,2.924-2.473c1-.849,2.236-1.9,2.741-2.322l.924-.785h10.7V55.684l-9.535-.022C164.393,55.652,159.889,55.63,159.621,55.609Z" transform="translate(-51.233 -18.147)" fill="#919191"/><path d="M172.426,40.772V25.959l3.977-3.332c2.193-1.827,4.02-3.343,4.085-3.365s.1,6.783.1,18.135V55.574h-8.17ZM44.517,31.742c-.215-.075-.344-.4-1.849-4.386-2.967-7.869-3.031-8.051-3.1-8.7l-.054-.624.258.129A15.07,15.07,0,0,1,41.228,19.5c1.526,1.537,6.4,6.7,6.632,7.052a1.316,1.316,0,0,1-.064,1.408c-.29.43-2.967,3.73-3.074,3.795A.345.345,0,0,1,44.517,31.742ZM184.991,20.1V18.81h-.484c-.355,0-.484-.043-.484-.161s.193-.161,1.129-.161,1.129.032,1.129.161-.129.161-.484.161h-.484V20.1c0,1.075-.022,1.29-.161,1.29s-.161-.215-.161-1.29Zm1.828-.161V18.488h.3c.269,0,.322.075.72,1.075a6.425,6.425,0,0,0,.494,1.075,5.418,5.418,0,0,0,.473-1.086c.387-1.01.419-1.075.688-1.043l.279.032.032,1.43c.022,1.354.022,1.419-.183,1.419s-.226-.086-.247-1.15l-.032-1.161-.441,1.129a3.3,3.3,0,0,1-.591,1.129,3.255,3.255,0,0,1-.57-1.1,4.553,4.553,0,0,0-.516-1.107,3.962,3.962,0,0,0-.086,1.129c0,.935-.032,1.129-.161,1.129S186.819,21.154,186.819,19.939Z" transform="translate(-39.518 -18.036)" fill="#919191"/></g></g></g></svg>