<svg xmlns="http://www.w3.org/2000/svg" xmlns:xlink="http://www.w3.org/1999/xlink" width="214" height="124" viewBox="0 0 214 124"><defs><clipPath id="a"><rect width="214" height="124" transform="translate(1360 483)"/></clipPath></defs><g transform="translate(-1360 -483)" clip-path="url(#a)"><g transform="translate(1386 525.687)"><path d="M16.634.424c0,.041-.259.068-.641.068S15.35.519,15.35.56s-.18.067-.405.067c-.315,0-.405.023-.405.1s-.09.1-.405.1c-.225,0-.405.03-.405.068s-.152.068-.338.068c-.255,0-.338.025-.338.1s-.079.1-.3.1c-.167,0-.3.03-.3.067s-.1.068-.233.068a.419.419,0,0,0-.274.068.353.353,0,0,1-.243.067c-.116,0-.217.043-.239.1s-.127.1-.268.1-.229.03-.229.068-.106.068-.236.068c-.165,0-.237.03-.237.1s-.064.1-.169.1-.169.03-.169.067-.076.068-.169.068-.169.03-.169.068-.074.067-.164.067a.431.431,0,0,0-.265.1.392.392,0,0,1-.241.1c-.077,0-.14.03-.14.068s-.058.068-.128.068a.186.186,0,0,0-.167.1.2.2,0,0,1-.176.1c-.075,0-.137.03-.137.067s-.043.068-.1.068A.134.134,0,0,0,8.177,3c-.033.1-.749.092-.783-.009-.013-.039-.127-.071-.254-.071s-.231-.03-.231-.068-.1-.067-.229-.067-.244-.039-.268-.1-.128-.1-.277-.1c-.131,0-.239-.03-.239-.068s-.1-.068-.229-.068-.244-.038-.268-.1-.124-.1-.244-.1-.2-.03-.2-.067-.107-.068-.237-.068-.236-.03-.236-.068-.1-.067-.229-.067-.244-.039-.268-.1-.124-.1-.239-.1A.351.351,0,0,1,3.5,1.707a.419.419,0,0,0-.274-.068c-.162,0-.233-.031-.233-.1s-.071-.1-.236-.1c-.13,0-.236-.03-.236-.067S2.414,1.3,2.284,1.3s-.236-.03-.236-.068-.1-.067-.229-.067-.244-.039-.268-.1C1.5.942.427.915.427,1.037A.38.38,0,0,1,.162,1.3C.11,1.3.089,6.566.089,19.366c0,15.4.014,18.064.094,18.064a.16.16,0,0,1,.133.1c.059.154,9.97.154,9.97,0a.1.1,0,0,1,.1-.1c.09,0,.1-1.268.1-11.007,0-7.293.023-11.007.068-11.007s.068-.234.068-.567c0-.441.022-.575.1-.605s.1-.135.1-.345c0-.169.03-.306.067-.306s.068-.059.068-.131a.225.225,0,0,1,.068-.173.422.422,0,0,0,.067-.274c0-.162.031-.233.1-.233s.1-.06.1-.135.03-.135.068-.135.068-.043.068-.094a.16.16,0,0,1,.1-.133.171.171,0,0,0,.1-.148.794.794,0,0,1,.236-.338.811.811,0,0,0,.236-.332c0-.056.03-.1.068-.1s.068-.045.068-.1a.1.1,0,0,1,.086-.1.311.311,0,0,0,.184-.135.311.311,0,0,1,.181-.135.586.586,0,0,0,.252-.169.612.612,0,0,1,.239-.169c.039,0,.071-.045.071-.1s.06-.1.135-.1.135-.03.135-.067.076-.068.169-.068.169-.027.169-.06.076-.079.169-.1.169-.072.169-.109.076-.066.169-.066.169-.03.169-.068.062-.068.137-.068a.2.2,0,0,0,.176-.1c.027-.068.134-.1.335-.1.163,0,.3-.03.3-.067s.18-.068.405-.068.405-.03.405-.068a4.114,4.114,0,0,1,1.148-.067,4.114,4.114,0,0,1,1.148.067c0,.039.2.068.473.068s.473.029.473.068.152.067.338.067c.255,0,.338.025.338.1s.071.1.237.1c.13,0,.236.03.236.068s.106.068.236.068c.165,0,.237.03.237.1s.064.1.169.1.169.03.169.067.069.068.153.068a.421.421,0,0,1,.28.169.407.407,0,0,0,.221.169,1.187,1.187,0,0,1,.39.3,1.341,1.341,0,0,0,.369.3.074.074,0,0,1,.074.074,1.341,1.341,0,0,0,.3.369,1.187,1.187,0,0,1,.3.39.407.407,0,0,0,.169.221.421.421,0,0,1,.169.28c0,.084.03.153.068.153s.067.062.067.137a.2.2,0,0,0,.1.176c.063.024.1.127.1.268s.03.229.068.229.068.106.068.236c0,.165.03.237.1.237s.1.109.1.574c0,.338.028.574.067.574s.068,3.738.068,11.079c0,11.622-.008,11.273.265,11.273.04,0,.072.045.072.1,0,.089.593.1,4.93.1s4.93-.012,4.93-.1c0-.056.032-.1.072-.1.273,0,.265.344.265-11.171,0-7.274-.023-10.978-.068-10.978a2.675,2.675,0,0,1-.067-.912c0-.765-.016-.912-.1-.912s-.1-.109-.1-.574c0-.338-.028-.574-.068-.574s-.068-.18-.068-.405c0-.315-.022-.405-.1-.405s-.1-.09-.1-.405c0-.225-.03-.405-.067-.405s-.068-.107-.068-.237-.03-.236-.068-.236-.067-.118-.067-.262a.516.516,0,0,0-.1-.346.312.312,0,0,1-.1-.211c0-.07-.03-.127-.068-.127s-.068-.107-.068-.239c0-.15-.038-.253-.1-.277s-.1-.127-.1-.268c0-.126-.03-.229-.067-.229s-.068-.059-.068-.131a.224.224,0,0,0-.068-.173.227.227,0,0,1-.067-.173.119.119,0,0,0-.1-.131c-.063,0-.1-.064-.1-.169s-.03-.169-.068-.169-.068-.076-.068-.169-.038-.169-.1-.169-.1-.062-.1-.154a.353.353,0,0,0-.135-.251.319.319,0,0,1-.135-.208.407.407,0,0,0-.169-.238.423.423,0,0,1-.169-.28c0-.091-.041-.153-.1-.153a.1.1,0,0,1-.1-.086.311.311,0,0,0-.135-.184.312.312,0,0,1-.135-.184,2.016,2.016,0,0,0-.405-.491,2.362,2.362,0,0,1-.405-.473.07.07,0,0,0-.073-.067.38.38,0,0,1-.265-.265.073.073,0,0,0-.073-.073.913.913,0,0,1-.3-.236.811.811,0,0,0-.332-.236c-.056,0-.1-.03-.1-.068s-.045-.068-.1-.068-.1-.032-.1-.072c0-.114-.181-.265-.317-.265a.406.406,0,0,1-.25-.169.406.406,0,0,0-.222-.169.5.5,0,0,1-.243-.138,1.4,1.4,0,0,0-.633-.335c-.05,0-.091-.03-.091-.068s-.076-.067-.169-.067-.169-.038-.169-.1-.064-.1-.169-.1-.169-.03-.169-.068-.106-.068-.236-.068c-.165,0-.236-.03-.236-.1s-.064-.1-.169-.1-.169-.03-.169-.067-.106-.068-.236-.068-.236-.03-.236-.068-.1-.067-.229-.067c-.141,0-.244-.039-.268-.1s-.135-.1-.345-.1c-.169,0-.306-.03-.306-.068S24.748.829,24.6.829a.631.631,0,0,1-.376-.1c-.069-.069-.239-.1-.535-.1-.244,0-.434-.03-.434-.067s-.225-.068-.54-.068-.54-.028-.54-.068A22.319,22.319,0,0,0,19.4.357a22.314,22.314,0,0,0-2.769.067m126.75,0c0,.04-.236.068-.574.068s-.574.028-.574.068-.2.067-.473.067c-.375,0-.472.021-.472.1s-.09.1-.405.1c-.225,0-.405.03-.405.068s-.152.068-.338.068c-.255,0-.338.025-.338.1s-.071.1-.236.1c-.13,0-.237.03-.237.067s-.135.068-.3.068a.593.593,0,0,0-.342.068.353.353,0,0,1-.242.067c-.116,0-.217.043-.24.1s-.126.1-.268.1c-.126,0-.229.03-.229.068s-.076.068-.169.068-.169.038-.169.1-.071.1-.236.1c-.13,0-.237.03-.237.067s-.076.068-.169.068-.169.03-.169.068-.062.067-.137.067a.2.2,0,0,0-.176.1.222.222,0,0,1-.2.1c-.089,0-.162.03-.162.068s-.061.068-.135.068-.135.045-.135.1-.064.1-.169.1-.169.03-.169.067-.073.068-.163.068-.176.038-.192.084c-.034.1-.747.09-.782-.015-.013-.038-.127-.069-.254-.069s-.231-.03-.231-.068-.1-.067-.229-.067c-.141,0-.244-.039-.268-.1s-.128-.1-.277-.1c-.131,0-.239-.03-.239-.068s-.106-.068-.236-.068c-.165,0-.236-.03-.236-.1s-.071-.1-.237-.1c-.13,0-.236-.03-.236-.067s-.107-.068-.236-.068-.237-.03-.237-.068-.1-.067-.229-.067c-.141,0-.244-.039-.268-.1s-.128-.1-.277-.1c-.131,0-.239-.03-.239-.068s-.106-.068-.236-.068c-.165,0-.236-.03-.236-.1s-.071-.1-.237-.1c-.13,0-.236-.03-.236-.067s-.107-.068-.236-.068-.237-.03-.237-.068-.1-.067-.229-.067c-.141,0-.244-.039-.268-.1-.057-.148-1.124-.148-1.124,0,0,.056-.032.1-.072.1-.276,0-.265-.732-.265,18.131s-.011,18.131.265,18.131c.04,0,.072.045.072.1,0,.089.593.1,4.93.1s4.93-.012,4.93-.1c0-.056.032-.1.072-.1.274,0,.265.363.265-11.509,0-7.5.023-11.316.068-11.316s.067-.152.067-.338c0-.255.025-.338.1-.338s.1-.071.1-.237c0-.13.03-.236.068-.236s.068-.1.068-.229.038-.244.1-.268a.2.2,0,0,0,.1-.176c0-.076.03-.137.067-.137s.068-.063.068-.14c0-.15.146-.333.265-.333.04,0,.072-.062.072-.137a1.032,1.032,0,0,1,.3-.433,1.341,1.341,0,0,0,.3-.369.074.074,0,0,1,.074-.074,1.341,1.341,0,0,0,.369-.3,1.187,1.187,0,0,1,.39-.3.407.407,0,0,0,.221-.169.421.421,0,0,1,.28-.169c.084,0,.153-.03.153-.068s.062-.067.137-.067a.2.2,0,0,0,.176-.1.222.222,0,0,1,.2-.1c.089,0,.162-.03.162-.068s.092-.068.2-.068.221-.042.244-.1.127-.1.268-.1.229-.03.229-.067.2-.068.473-.068.472-.029.472-.068a9.832,9.832,0,0,1,2.3,0c0,.039.2.068.473.068s.472.029.472.068.152.067.338.067c.255,0,.338.025.338.1s.071.1.236.1c.13,0,.237.03.237.068s.073.068.162.068a.221.221,0,0,1,.2.1.2.2,0,0,0,.176.1c.075,0,.137.03.137.067s.076.068.169.068.169.03.169.068.061.067.135.067.135.045.135.1.032.1.071.1a.612.612,0,0,1,.239.169.586.586,0,0,0,.252.169.311.311,0,0,1,.181.135.311.311,0,0,0,.184.135.081.081,0,0,1,.086.073.38.38,0,0,0,.265.265c.04,0,.073.069.073.154a.354.354,0,0,0,.135.251.311.311,0,0,1,.135.184.1.1,0,0,0,.1.086c.063,0,.1.064.1.169s.03.169.068.169.068.061.068.135.045.135.1.135.1.064.1.169.03.169.067.169.068.106.068.236.03.236.068.236.067.19.067.434c0,.3.032.466.1.535.09.089.1,1.438.1,11.316,0,7.431.023,11.214.068,11.214s.068.076.068.169.038.169.1.169a.1.1,0,0,1,.1.1c0,.154,9.91.154,9.97,0a.16.16,0,0,1,.133-.1c.08,0,.094-1.727.094-11.581,0-10.249-.011-11.581-.1-11.581s-.1-.116-.1-.641c0-.383-.027-.642-.067-.642s-.068-.214-.068-.506-.028-.506-.068-.506-.067-.168-.067-.374c0-.269-.028-.384-.1-.412s-.1-.134-.1-.335c0-.163-.03-.3-.068-.3s-.068-.138-.068-.306c0-.209-.032-.318-.1-.345s-.1-.127-.1-.268-.03-.229-.067-.229-.068-.106-.068-.236-.03-.237-.068-.237-.067-.076-.067-.169-.038-.169-.1-.169-.1-.071-.1-.236c0-.13-.03-.237-.068-.237s-.068-.076-.068-.169-.038-.169-.1-.169-.1-.064-.1-.169-.03-.169-.067-.169-.068-.041-.068-.091c0-.135-.2-.517-.275-.517-.034,0-.062-.046-.062-.1s-.03-.1-.068-.1-.068-.057-.068-.126a.408.408,0,0,0-.169-.252.409.409,0,0,1-.169-.251c0-.136-.152-.317-.265-.317-.04,0-.072-.063-.072-.14,0-.15-.146-.333-.265-.333a.073.073,0,0,1-.073-.073.922.922,0,0,0-.236-.3.917.917,0,0,1-.236-.3,1.1,1.1,0,0,0-.469-.469.918.918,0,0,1-.3-.236.922.922,0,0,0-.3-.236.075.075,0,0,1-.073-.076,1.148,1.148,0,0,0-.523-.464.079.079,0,0,1-.085-.068c0-.037-.045-.068-.1-.068s-.1-.03-.1-.068-.047-.067-.1-.067a.513.513,0,0,1-.261-.169.519.519,0,0,0-.3-.169c-.083,0-.144-.043-.144-.1s-.06-.1-.135-.1-.135-.03-.135-.067-.076-.068-.169-.068-.169-.03-.169-.068-.076-.067-.169-.067-.169-.038-.169-.1-.064-.1-.169-.1-.169-.03-.169-.068-.073-.068-.162-.068a.222.222,0,0,1-.2-.1c-.023-.059-.124-.1-.244-.1s-.2-.03-.2-.067-.107-.068-.237-.068-.236-.03-.236-.068-.106-.067-.236-.067c-.165,0-.237-.031-.237-.1s-.082-.1-.338-.1c-.186,0-.338-.03-.338-.068s-.134-.068-.3-.068c-.2,0-.309-.032-.335-.1s-.142-.1-.408-.1a.815.815,0,0,1-.411-.067,1.465,1.465,0,0,0-.578-.068c-.312,0-.536-.028-.536-.068A23.4,23.4,0,0,0,146.22.357a23.4,23.4,0,0,0-2.836.067M42.43,1.363c0,.033-.076.079-.169.1l-.169.042V13.222c0,7.765.023,11.715.068,11.715s.068.26.068.644c0,.51.021.652.1.682s.1.153.1.5c0,.265.029.466.067.466s.068.152.068.338.03.338.068.338.067.137.067.3c0,.225.026.3.1.3s.1.082.1.338c0,.186.03.338.068.338s.068.092.068.205.042.221.1.244a.222.222,0,0,1,.1.2c0,.089.03.162.067.162s.068.107.068.237.03.236.068.236.067.076.067.169.038.169.1.169.1.071.1.237c0,.13.03.236.068.236s.068.056.068.126a.408.408,0,0,0,.169.252.421.421,0,0,1,.169.28c0,.084.03.153.068.153s.067.062.067.137a.2.2,0,0,0,.1.176.187.187,0,0,1,.1.167c0,.07.03.128.068.128s.068.045.068.1a.1.1,0,0,0,.1.1c.058,0,.1.061.1.141a.761.761,0,0,0,.236.37.926.926,0,0,1,.236.3,1.448,1.448,0,0,0,.3.38,1.622,1.622,0,0,1,.3.368.068.068,0,0,0,.073.06.38.38,0,0,1,.265.265.071.071,0,0,0,.068.072,1.377,1.377,0,0,1,.36.3.934.934,0,0,0,.438.3c.081,0,.147.031.147.068a.988.988,0,0,0,.5.472c.061,0,.111.03.111.067s.045.068.1.068.1.03.1.068.061.067.135.067.135.045.135.1a.1.1,0,0,0,.1.1c.056,0,.1.03.1.068s.076.068.169.068.169.038.169.1.06.1.135.1.135.03.135.067.076.068.169.068.169.03.169.068.076.067.169.067.169.038.169.1.064.1.169.1.169.03.169.068.107.068.237.068c.165,0,.236.03.236.1s.071.1.236.1c.13,0,.237.03.237.067s.106.068.236.068.236.03.236.068.122.067.27.067c.195,0,.27.028.27.1s.079.1.3.1c.167,0,.3.03.3.068s.177.068.4.068c.291,0,.408.027.437.1s.154.1.514.1c.271,0,.475.029.475.067a2.842,2.842,0,0,0,.945.068,2.842,2.842,0,0,1,.945.068,5.864,5.864,0,0,0,1.384.067,5.864,5.864,0,0,0,1.384-.067,3.034,3.034,0,0,1,.979-.068,3.038,3.038,0,0,0,.979-.068c0-.038.2-.067.473-.067.375,0,.472-.021.472-.1s.09-.1.405-.1c.225,0,.405-.03.405-.068s.18-.068.405-.068c.315,0,.405-.022.405-.1s.083-.1.338-.1c.186,0,.338-.03.338-.067s.106-.068.236-.068.237-.03.237-.068.119-.067.265-.067a.623.623,0,0,0,.367-.1.5.5,0,0,1,.309-.1c.114,0,.207-.03.207-.068s.076-.068.169-.068.169-.038.169-.1.071-.1.237-.1c.13,0,.236-.03.236-.067s.076-.068.169-.068.169-.03.169-.068.074-.067.164-.067a.431.431,0,0,0,.265-.1.392.392,0,0,1,.241-.1c.077,0,.14-.03.14-.068s.062-.068.137-.068a.2.2,0,0,0,.176-.1.188.188,0,0,1,.167-.1c.07,0,.128-.03.128-.067s.065-.068.144-.068a.516.516,0,0,0,.3-.169c.184-.2.66-.242.728-.067.022.058.124.1.239.1a.353.353,0,0,1,.243.067.419.419,0,0,0,.274.068c.128,0,.233.03.233.068s.106.067.236.067c.165,0,.236.031.236.1s.071.1.237.1c.13,0,.236.03.236.068s.1.068.229.068.244.038.268.1.124.1.244.1.2.03.2.067.122.068.27.068.27.03.27.068.106.067.236.067c.165,0,.236.031.236.1s.071.1.237.1c.13,0,.236.03.236.068s.1.068.229.068.244.038.268.1a.2.2,0,0,0,.176.1c.076,0,.137.03.137.067s.106.068.236.068.237.03.237.068.152.067.337.067c.255,0,.338.025.338.1s.071.1.237.1.236-.03.236-.1.06-.1.14-.1a.339.339,0,0,0,.333-.333c0-.079.044-.14.1-.14.09,0,.1-2.023.1-17.8,0-15.756-.012-17.8-.1-17.835a.222.222,0,0,1-.1-.2c0-.127-.036-.162-.169-.162-.093,0-.169-.03-.169-.067S75.086,1.3,71.922,1.3c-4.956,0-5.048.007-5.048.258a.073.073,0,0,1-.068.077c-.045,0-.067,3.794-.067,11.246,0,9.934-.012,11.25-.1,11.284-.073.028-.1.141-.1.4a.777.777,0,0,1-.068.4.419.419,0,0,0-.068.274c0,.162-.031.233-.1.233s-.1.071-.1.236c0,.13-.03.236-.067.236s-.068.076-.068.169-.03.169-.068.169-.067.061-.067.135-.045.135-.1.135a.1.1,0,0,0-.1.1c0,.056-.03.1-.068.1s-.068.076-.068.169-.032.169-.07.169a.856.856,0,0,0-.4.4.072.072,0,0,1-.073.07.38.38,0,0,0-.265.265c0,.04-.023.073-.051.073a.968.968,0,0,0-.422.4c0,.042-.046.077-.1.077s-.1.03-.1.068-.062.068-.137.068a.2.2,0,0,0-.176.1.188.188,0,0,1-.167.1c-.07,0-.128.03-.128.067s-.046.068-.1.068-.1.03-.1.068-.074.067-.164.067a.431.431,0,0,0-.265.1.392.392,0,0,1-.241.1c-.077,0-.14.03-.14.068s-.107.068-.237.068c-.165,0-.236.03-.236.1s-.09.1-.405.1c-.225,0-.405.03-.405.067a6.379,6.379,0,0,1-1.452.068A6.381,6.381,0,0,1,58.3,29.6c0-.037-.177-.067-.4-.067-.291,0-.408-.027-.437-.1s-.135-.1-.345-.1c-.168,0-.306-.03-.306-.068s-.107-.068-.237-.068c-.165,0-.236-.03-.236-.1s-.064-.1-.169-.1S56,28.958,56,28.921s-.076-.068-.169-.068-.169-.03-.169-.068-.047-.067-.1-.067a.513.513,0,0,1-.261-.169.519.519,0,0,0-.3-.169c-.079,0-.144-.034-.144-.077a.968.968,0,0,0-.422-.4c-.028,0-.051-.033-.051-.073a.38.38,0,0,0-.265-.265.072.072,0,0,1-.073-.07.856.856,0,0,0-.4-.4c-.039,0-.07-.076-.07-.169s-.03-.169-.068-.169-.068-.056-.068-.126a.41.41,0,0,0-.169-.252.388.388,0,0,1-.169-.347c0-.121-.03-.22-.068-.22s-.067-.076-.067-.169-.038-.169-.1-.169c-.079,0-.1-.09-.1-.405,0-.225-.03-.405-.068-.405a2.5,2.5,0,0,1-.068-.88c0-.72-.018-.887-.1-.919s-.1-1.278-.1-10.634c0-7.018-.023-10.595-.067-10.595a.07.07,0,0,1-.068-.072c0-.266,0-.265-5.026-.265-2.785,0-4.833.026-4.833.06M84.82,1.4a.286.286,0,0,0-.118.167.073.073,0,0,1-.068.077c-.045,0-.067,3.793-.067,11.243s.023,11.243.067,11.243a2.152,2.152,0,0,1,.068.81,2.151,2.151,0,0,0,.068.81c.038,0,.067.2.067.475,0,.36.025.484.1.514s.1.145.1.437c0,.22.03.4.068.4s.068.168.068.374c0,.27.028.385.1.412s.1.127.1.268.03.229.067.229.068.106.068.236.03.237.068.237.067.106.067.236c0,.165.031.236.1.236s.1.071.1.233a.419.419,0,0,0,.068.274.225.225,0,0,1,.068.173.119.119,0,0,0,.1.131c.07,0,.1.071.1.233a.422.422,0,0,0,.067.274.225.225,0,0,1,.068.173c0,.072.027.131.06.131s.079.076.1.169.072.169.109.169.066.045.066.1.03.1.068.1.068.061.068.135.045.135.1.135.1.064.1.169.03.169.067.169.068.045.068.1.03.1.068.1.067.061.067.135.045.135.1.135a.1.1,0,0,1,.1.1c0,.056.03.1.068.1s.068.046.068.1a.811.811,0,0,0,.236.332.913.913,0,0,1,.236.3.073.073,0,0,0,.073.073.373.373,0,0,1,.265.275,3.758,3.758,0,0,0,.887.874,1.377,1.377,0,0,1,.359.3.967.967,0,0,0,.434.3c.079,0,.143.032.143.072a.359.359,0,0,0,.3.265.36.36,0,0,1,.3.265c0,.04.062.072.138.072a.52.52,0,0,1,.286.138,1.4,1.4,0,0,0,.633.335c.05,0,.091.03.091.068s.076.067.169.067.169.038.169.1.071.1.237.1c.13,0,.236.03.236.068s.063.068.14.068a.392.392,0,0,1,.241.1.432.432,0,0,0,.265.1c.09,0,.164.03.164.067s.106.068.236.068.237.03.237.068.152.067.338.067c.255,0,.338.025.338.1s.079.1.3.1c.167,0,.3.03.3.068s.139.068.309.068a.664.664,0,0,1,.41.1c.072.072.247.1.6.1.29,0,.5.028.5.067a2.487,2.487,0,0,0,.878.068,2.488,2.488,0,0,1,.878.068,15.7,15.7,0,0,0,2.9,0,2.668,2.668,0,0,1,.912-.068,2.667,2.667,0,0,0,.912-.068c0-.039.226-.067.543-.067.42,0,.551-.023.581-.1s.145-.1.437-.1c.22,0,.4-.03.4-.068s.137-.068.3-.068c.225,0,.3-.026.3-.1s.082-.1.338-.1c.186,0,.338-.03.338-.067s.137-.068.3-.068.3-.03.3-.068.107-.067.239-.067c.15,0,.253-.038.277-.1s.127-.1.268-.1c.126,0,.229-.03.229-.068s.107-.068.237-.068c.165,0,.236-.03.236-.1s.064-.1.169-.1.169-.03.169-.067.107-.068.237-.068.236-.03.236-.068.062-.067.137-.067a.2.2,0,0,0,.176-.1.222.222,0,0,1,.2-.1c.089,0,.162-.03.162-.068s.061-.068.135-.068.135-.045.135-.1.064-.1.169-.1.169-.03.169-.067.076-.068.169-.068.169-.027.169-.06.076-.079.169-.1.169-.072.169-.109c0-.1.4-.077.516.035a.425.425,0,0,0,.261.1.274.274,0,0,1,.2.067.347.347,0,0,0,.24.068c.109,0,.2.03.2.068s.122.067.27.067c.195,0,.27.028.27.1s.071.1.236.1c.13,0,.236.03.236.068s.1.068.229.068c.141,0,.244.038.268.1s.124.1.244.1.205.03.205.067.106.068.236.068.236.03.236.068.122.067.27.067c.195,0,.27.028.27.1s.071.1.236.1c.13,0,.236.03.236.068s.1.068.229.068c.141,0,.244.038.268.1s.124.1.244.1.205.03.205.067.106.068.236.068.236.03.236.068.122.067.27.067c.195,0,.27.028.27.1s.071.1.236.1.236-.03.236-.1.071-.1.237-.1c.191,0,.236-.026.236-.135,0-.074.03-.135.068-.135s.067-6.044.067-18-.023-18-.067-18a.073.073,0,0,1-.068-.077c0-.252-.091-.256-5.048-.258-2.774,0-4.811.023-4.811.058s-.076.079-.169.1-.169.09-.169.147a.353.353,0,0,1-.1.206c-.089.089-.1,1.455-.1,11.475,0,7.537-.023,11.374-.067,11.374s-.068.137-.068.3-.03.3-.068.3-.067.073-.067.162a.222.222,0,0,1-.1.2c-.059.023-.1.124-.1.244s-.03.205-.068.205-.068.076-.068.169-.038.169-.1.169a.1.1,0,0,0-.1.1c0,.056-.03.1-.067.1s-.068.061-.068.135-.03.135-.068.135-.067.045-.067.1a.1.1,0,0,1-.1.1c-.056,0-.1.06-.1.135s-.03.135-.068.135-.068.046-.068.1-.032.1-.072.1c-.079,0-.265.167-.265.237s-.187.236-.265.236a.07.07,0,0,0-.072.068.078.078,0,0,1-.085.067.643.643,0,0,0-.267.169.629.629,0,0,1-.277.169.406.406,0,0,0-.222.169.421.421,0,0,1-.28.169c-.084,0-.153.03-.153.068s-.062.067-.137.067a.2.2,0,0,0-.176.1c-.024.063-.127.1-.268.1s-.229.03-.229.068-.107.068-.236.068c-.165,0-.237.03-.237.1s-.082.1-.338.1c-.186,0-.338.03-.338.067a17.093,17.093,0,0,1-3.039,0c0-.037-.178-.067-.4-.067-.291,0-.408-.027-.437-.1s-.128-.1-.277-.1c-.131,0-.239-.03-.239-.068s-.1-.068-.229-.068c-.141,0-.244-.038-.268-.1s-.124-.1-.243-.1-.2-.03-.2-.067-.069-.068-.153-.068a.421.421,0,0,1-.28-.169.406.406,0,0,0-.222-.169.629.629,0,0,1-.277-.169.643.643,0,0,0-.267-.169.078.078,0,0,1-.085-.067.07.07,0,0,0-.072-.068c-.079,0-.265-.166-.265-.236s-.187-.237-.265-.237c-.04,0-.072-.045-.072-.1s-.03-.1-.068-.1-.068-.061-.068-.135-.045-.135-.1-.135a.1.1,0,0,1-.1-.1c0-.056-.03-.1-.067-.1s-.068-.061-.068-.135-.03-.135-.068-.135-.067-.046-.067-.1a.1.1,0,0,0-.1-.1c-.063,0-.1-.064-.1-.169s-.03-.169-.068-.169-.068-.107-.068-.237c0-.165-.03-.236-.1-.236s-.1-.071-.1-.236c0-.13-.03-.237-.067-.237s-.068-.214-.068-.506-.028-.506-.068-.506S95.1,20.358,95.1,12.956c0-9.84-.012-11.183-.1-11.273a.35.35,0,0,1-.1-.149c0-.219-.194-.227-5.1-.227a38.921,38.921,0,0,0-4.98.09" transform="translate(-0.022 -0.087)" fill-rule="evenodd"/><path fill-rule="evenodd"/><path fill-rule="evenodd"/><path fill-rule="evenodd"/><path fill-rule="evenodd"/></g></g></svg>