<?xml version="1.0" encoding="UTF-8"?><svg id="Layer_1" xmlns="http://www.w3.org/2000/svg" width="214" height="124" viewBox="0 0 214 124"><defs><style>.cls-1{fill:#2d2a26;}</style></defs><path class="cls-1" d="M58.3,68.8c0,4.9-4.4,7.1-9.1,7.1s-8.1-1.6-9.9-3.7l3.7-2.8c1.1,1.6,3.3,2.5,5.9,2.5s4-1.3,4-2.4c0-3.4-12.6-.6-12.6-8.3s4-6.5,9-6.5,7.5,2.5,8.4,3.7l-3.4,3.2c-.6-1.3-2.2-2.9-5.1-2.9-2.3,0-3.8.8-3.8,2,0,3.5,12.9.5,12.9,8.1h0Z"/><path class="cls-1" d="M78.9,55.2h-6.4l-7.8,7.6v-14.7h-4.9v27.3h4.9v-6.3l2.8-2.7,6.1,9.1h6l-8.7-12.3,7.9-7.9Z"/><path class="cls-1" d="M80.5,65.7v9.7h4.9v-9.8c0-4.4,3-5.9,6.4-5.9v-5c-2.9,0-6,.6-8.2,2.7-3.4,3.2-3.1,8.3-3.1,8.3h0Z"/><path class="cls-1" d="M110.8,72c0,2.1.5,3,.8,3.4h-5.2c-.3-.5-.5-1.3-.5-1.8-1.9,1.5-4.1,2.3-6.7,2.3-3.9,0-6.9-2.4-6.9-6.3s3.2-5.7,6.2-6.3l2.1-.4c1.8-.4,4.1-.8,5.3-1.2v-.6c0-2-1.7-2.6-3.9-2.6s-3.8.8-3.8,3l-4.9-.2c0-4.8,4.2-6.6,8.7-6.6s8.8.9,8.8,6.6v10.7h0ZM105.9,65.3c-.6.3-1.5.6-2.3.7l-2.7.6c-1.9.4-3.4.9-3.4,2.8s1.4,2.5,3.2,2.5,5.3-1.1,5.3-3.7v-2.9h0Z"/><path class="cls-1" d="M133.7,71.4c-3.4,0-5-3-5-6.1s1.8-6.1,5.3-6.1,3.7,1.2,4.3,3.2l4.3-2c-1.3-3-3.7-5.7-8.6-5.7s-10.5,4.5-10.5,10.6,3.8,10.6,10.1,10.6,7.9-3.2,9.3-6.2l-4.2-2.2c-.8,1.8-2,3.9-5,3.9h0Z"/><path class="cls-1" d="M155.3,54.8c-2.8,0-4.8,1.1-5.9,2.5h0v-9.1h-4.9v27.3h4.9v-10.4c0-2.5,1.1-5.6,4.8-5.6s3.6,1.2,3.6,4v12h4.9v-13.4c0-5.9-4-7.3-7.5-7.3h0Z"/><path class="cls-1" d="M173.4,74.2h-7.4v1.2h8.5v-3.8h-1.1v2.6Z"/><path class="cls-1" d="M166,67.5l8.5-1.7v1.2l-1.9.4v2l1.9.4v1.2l-8.5-1.7v-1.7h0ZM167.5,68.4l4,.8v-1.5l-4,.8Z"/><path class="cls-1" d="M174.6,62.9v1.7h-8.5v-1.7c0-1.5.2-2.7,2.3-2.7s1.7.5,1.8,1.2c0-.8.6-1.3,1.9-1.3,2,0,2.5,1,2.5,2.8ZM169.6,62.9c0-.8-.1-1.5-1.2-1.5s-1.2.6-1.2,1.5v.5h2.4v-.5h0ZM173.4,62.9c0-1-.2-1.6-1.4-1.6s-1.3.7-1.3,1.6v.5h2.7v-.5h0Z"/><path class="cls-1" d="M168,58.8c2.5,0,2.8-3,4.5-3s1,.4,1,.9-.5.9-1,.9h-.7v1.2h.7c1,0,2.1-.6,2.1-2.2s-.8-2.1-2.1-2.1c-2.4,0-2.8,3-4.5,3s-1-.3-1-.9.6-.8,1-.8h.7v-1.2h-.7c-1,0-2.1.5-2.1,2s.8,2.1,2.1,2.1h0Z"/><path class="cls-1" d="M118.8,57.8h-4.9v13c0,3.1,1.4,4.9,5.4,4.9s2.7-.2,3.9-.5v-4c-.7,0-1.5.2-2.2.2-1.9,0-2.2-.9-2.2-2.5v-11.1Z"/><path class="cls-1" d="M118.8,48.1h-4.9v4.9h4.9v-4.9Z"/><path class="cls-1" d="M123.8,53h-4.9v4.9h4.9v-4.9Z"/><path class="cls-1" d="M167.6,53.2c0,.4-.3.8-.8.8s-.8-.3-.8-.8.3-.8.8-.8.8.3.8.8ZM166.2,53.2c0,.4.3.6.6.6s.6-.3.6-.6-.3-.6-.6-.6-.6.3-.6.6ZM166.5,53.7v-.9h.3c.2,0,.3,0,.3.2s-.1.2-.2.2l.3.4h-.1l-.2-.4h-.2v.4h-.1ZM166.8,53.2c.1,0,.3,0,.3-.2s-.1-.1-.2-.1h-.2v.3h.1Z"/></svg>