<svg xmlns="http://www.w3.org/2000/svg" xmlns:xlink="http://www.w3.org/1999/xlink" width="214" height="124" viewBox="0 0 214 124"><defs><clipPath id="a"><rect width="214" height="124" transform="translate(599 483)"/></clipPath></defs><g transform="translate(-599 -483)" clip-path="url(#a)"><g transform="translate(615.748 511.001)"><path d="M71.251,70.585c.184,0,.221.085.209.223L71.2,72.97c-.124,1.008-.775,1.893-2.929,1.893-1.894,0-2.535-.749-2.535-1.633a2.932,2.932,0,0,1,.025-.308l.58-4.723c.123-1.009.766-1.894,2.916-1.894,1.892,0,2.534.75,2.534,1.66,0,.073-.014.184-.027.294l-.051.479a.22.22,0,0,1-.255.236h-.714c-.16,0-.208-.088-.2-.236l.036-.343a1.209,1.209,0,0,0,.013-.21c0-.528-.394-.86-1.4-.86-1.092,0-1.587.406-1.673,1.07l-.53,4.316c-.009.086-.024.174-.024.245,0,.556.382.886,1.4.886,1.133,0,1.586-.392,1.673-1.058l.147-1.178H68.73c-.162,0-.209-.076-.2-.237l.064-.562c.012-.163.1-.223.255-.223h2.4m1.8-.331c.122-1.01.858-1.686,2.642-1.686,1.549,0,2.285.579,2.285,1.464a1.552,1.552,0,0,1-.011.222l-.356,2.928c-.124,1.005-.85,1.682-2.633,1.682-1.561,0-2.3-.591-2.3-1.476a1.461,1.461,0,0,1,.01-.206l.36-2.927Zm3.748.1V70.23c0-.468-.38-.7-1.192-.7-.921,0-1.326.293-1.39.824l-.343,2.729a.575.575,0,0,0-.012.135c0,.469.355.689,1.2.689.922,0,1.328-.3,1.389-.824l.345-2.729m5.3-1.661.112-.886c.122-1.006.83-1.681,2.6-1.681h.123c.161,0,.234.059.209.231l-.06.518a.247.247,0,0,1-.272.244h-.087c-.929,0-1.31.3-1.37.814l-.1.761h1.2c.171,0,.244.062.221.222l-.061.492c-.024.173-.1.247-.258.247h-1.2l-.917,7.374c-.023.175-.084.249-.243.249h-.722c-.157,0-.217-.074-.194-.249L82,69.652h-.722c-.17,0-.231-.074-.206-.247l.048-.429c.012-.162.085-.222.256-.236l.648-.048h.072m6.37,5.459a3.549,3.549,0,0,1-2.1.714c-1.045,0-1.587-.54-1.587-1.391a2.608,2.608,0,0,1,.026-.283l.368-2.949a1.708,1.708,0,0,1,1.908-1.67,2.985,2.985,0,0,1,1.992.735l.076-.392c.029-.174.083-.248.252-.248h.654c.123,0,.22.063.2.248l-.689,5.606c-.025.173-.1.245-.26.245h-.662c-.134,0-.2-.062-.2-.245l.026-.369Zm-2.485-1.131a.852.852,0,0,0-.012.171c0,.358.222.629.836.629a3.318,3.318,0,0,0,1.746-.629l.369-2.936a2.479,2.479,0,0,0-1.585-.639.9.9,0,0,0-1.021.8l-.332,2.607m9.148-4.206-.075.58c-.022.172-.1.221-.273.231a4.03,4.03,0,0,0-1.988.777l-.5,4.118c-.024.173-.085.245-.256.245H91.3c-.164,0-.225-.072-.2-.245l.7-5.621c.022-.16.085-.234.246-.234h.663c.16,0,.221.074.212.234l-.038.531a3.107,3.107,0,0,1,2.013-.849c.171,0,.249.061.223.232m.151,5.719c-.022.17-.083.232-.245.232h-.737c-.159,0-.222-.062-.195-.232l.11-.985a.224.224,0,0,1,.258-.232h.747c.162,0,.211.072.186.232l-.123.985m8.871-8.128c.16,0,.234.058.209.235l-.072.553c-.024.172-.1.235-.259.235H100.5l-.319,2.495h3.317c.162,0,.237.061.209.235l-.072.566a.232.232,0,0,1-.257.231h-3.309l-.454,3.566c-.025.173-.074.245-.247.245h-.749c-.158,0-.237-.072-.209-.245l.97-7.869c.026-.172.1-.246.258-.246h4.513m4.977,5.347a.22.22,0,0,1-.247.221h-3.343L105.4,73.02c-.015.124-.029.211-.029.258,0,.418.3.676,1.144.676.935,0,1.263-.319,1.326-.786l.026-.2a.242.242,0,0,1,.269-.234h.615c.16,0,.209.087.2.234l-.026.211c-.123,1.005-.689,1.682-2.481,1.682-1.563,0-2.214-.58-2.214-1.452a1.46,1.46,0,0,1,.011-.23l.359-2.928c.12-1.01.772-1.686,2.541-1.686,1.527,0,2.179.579,2.179,1.451a1.312,1.312,0,0,1-.014.235l-.184,1.5h0Zm-3.479-.651H108.1l.1-.738a1.3,1.3,0,0,0,.01-.194c0-.42-.291-.692-1.143-.692-.923,0-1.265.334-1.326.825l-.1.8m9.367.651a.217.217,0,0,1-.243.221h-3.344l-.136,1.046c-.011.124-.023.211-.023.258,0,.418.293.676,1.141.676.936,0,1.266-.319,1.329-.786l.023-.2a.243.243,0,0,1,.27-.234h.617c.159,0,.21.087.2.234l-.026.211c-.123,1.005-.689,1.682-2.484,1.682-1.562,0-2.212-.58-2.212-1.452a1.731,1.731,0,0,1,.01-.23l.359-2.928c.121-1.01.775-1.686,2.545-1.686,1.524,0,2.175.579,2.175,1.451a1.283,1.283,0,0,1-.014.235l-.184,1.5h0Zm-3.478-.651h2.457l.1-.738a1.243,1.243,0,0,0,.011-.194c0-.42-.292-.692-1.142-.692-.92,0-1.267.334-1.326.825l-.1.8m5.656,3.418c-.025.173-.086.245-.257.245h-.728c-.16,0-.22-.072-.194-.245l1-8.1c.024-.17.1-.247.259-.247h.723c.16,0,.208.077.186.247l-.985,8.1m3.545-1.058a1.646,1.646,0,0,1,.026-.272l.368-2.949a1.71,1.71,0,0,1,1.906-1.673,2.988,2.988,0,0,1,1.993.738l.073-.392c.036-.174.086-.248.247-.248h.663c.171,0,.211.1.195.248L125.4,75.59c-.126,1.007-.813,1.685-2.645,1.685h-1.7c-.162,0-.246-.074-.223-.232l.061-.521a.243.243,0,0,1,.271-.23h1.7c.945,0,1.3-.309,1.363-.825l.161-1.291a3.427,3.427,0,0,1-2.054.688c-1.056,0-1.6-.553-1.6-1.4m1.217-.518a2.144,2.144,0,0,0-.023.237c0,.366.221.637.835.637a3.283,3.283,0,0,0,1.747-.629l.368-2.936a2.514,2.514,0,0,0-1.585-.639c-.7,0-.971.368-1.019.8l-.322,2.532m5.483-2.691c.124-1.01.862-1.686,2.646-1.686,1.547,0,2.284.579,2.284,1.464a1.484,1.484,0,0,1-.011.222L132,73.181c-.12,1.005-.848,1.682-2.629,1.682-1.56,0-2.3-.591-2.3-1.476a1.213,1.213,0,0,1,.012-.206l.354-2.927Zm3.753.1V70.23c0-.468-.384-.7-1.2-.7-.918,0-1.326.293-1.387.824l-.343,2.729a.484.484,0,0,0-.014.135c0,.469.357.689,1.206.689.92,0,1.327-.3,1.391-.824l.344-2.729m2.443-.1c.125-1.01.862-1.686,2.646-1.686,1.549,0,2.287.579,2.287,1.464a1.441,1.441,0,0,1-.011.222l-.358,2.928c-.121,1.005-.848,1.682-2.631,1.682-1.56,0-2.3-.591-2.3-1.476a1.28,1.28,0,0,1,.012-.206l.356-2.927Zm3.752.1V70.23c0-.468-.378-.7-1.193-.7-.923,0-1.327.293-1.39.824l-.343,2.729a.484.484,0,0,0-.014.135c0,.469.357.689,1.207.689.922,0,1.33-.3,1.39-.824l.343-2.729m5.754,3.8a3.436,3.436,0,0,1-2.092.714c-1.043,0-1.586-.54-1.586-1.39,0-.086.014-.183.025-.284l.371-2.949a1.709,1.709,0,0,1,1.907-1.67,3.063,3.063,0,0,1,1.953.7l.345-2.855c.024-.17.1-.247.258-.247h.722c.163,0,.223.087.2.247l-1,8.1c-.021.173-.1.245-.256.245h-.664c-.162,0-.2-.072-.2-.245Zm-2.46-1.18a1.589,1.589,0,0,0-.025.22c0,.358.233.629.836.629a3.342,3.342,0,0,0,1.749-.629l.366-2.936a2.516,2.516,0,0,0-1.586-.639c-.7,0-.973.368-1.021.8l-.319,2.558m5.622,1.562c-.024.17-.084.232-.244.232h-.739c-.16,0-.221-.062-.2-.232l.111-.985a.225.225,0,0,1,.258-.232h.75c.159,0,.208.072.184.232l-.125.985m2.08-6.987c0,.04-.018.059-.058.059h-.167c-.038,0-.051-.018-.05-.059l.106-.849a.643.643,0,0,1-.046.1l-.307.539a.093.093,0,0,1-.08.051h-.123a.066.066,0,0,1-.066-.051l-.19-.545a.465.465,0,0,1-.011-.1l-.113.858c0,.04-.017.059-.056.059h-.158c-.037,0-.051-.018-.05-.059l.164-1.318a.054.054,0,0,1,.061-.058h.155a.044.044,0,0,1,.046.034l.282.768.035.1c.011-.022.031-.065.052-.1l.466-.777a.062.062,0,0,1,.055-.03h.169c.045,0,.052.02.05.058l-.165,1.319Zm-1.42-1.376c.043,0,.055.018.051.056l-.016.13c0,.04-.024.051-.066.051H146.6l-.137,1.14a.055.055,0,0,1-.061.059h-.179c-.038,0-.052-.018-.047-.059l.141-1.14h-.334c-.04,0-.056-.01-.056-.051l.018-.13c0-.037.021-.055.066-.055h.953" transform="translate(-13.311 -15.208)"/><path d="M37.681,40.453a4.4,4.4,0,0,0-4.322,2.556,4.255,4.255,0,0,0-4.114-2.556,4.1,4.1,0,0,0-3.881,2.58V40.749h-3.2V54.355h3.2V47.39c.078-2.982,1.51-4.139,2.969-4.139,1.537,0,2.448,1.237,2.448,3.6v7.5h3.177V47.39c.078-2.982,1.51-4.139,2.969-4.139,1.538,0,2.447,1.237,2.447,3.6v7.5h3.2V46.827c0-3.925-1.483-6.374-4.9-6.374M51.17,51.88c-2.4,0-3.879-1.937-3.879-4.356,0-2.337,1.38-4.3,3.8-4.3,2.37,0,4.009,1.8,4.009,4.435A3.868,3.868,0,0,1,51.17,51.88Zm3.854-9.113a5.279,5.279,0,0,0-4.48-2.314c-4.036,0-6.482,3.2-6.482,7.044,0,3.979,2.55,7.152,6.458,7.152a5.183,5.183,0,0,0,4.5-2.341v2.046h3.2V40.749h-3.2v2.018M66.5,40.721a3.494,3.494,0,0,0-3.034,2.152V40.749h-3.15V54.355h3.2V48.062c0-3.764,1.886-4.475,3.115-4.7a7.83,7.83,0,0,1,1.39-.1V40.711c-.128,0-1.357-.009-1.524.009M74.9,49.354a3.438,3.438,0,0,1,.182,1.129,1.28,1.28,0,0,1-1.3,1.4c-.938,0-1.277-.647-1.277-1.478V43.278h3.585V40.749H72.507v-3.63H69.335l-.02,6.158v6.665c0,3.739,2.153,4.706,4.34,4.706,2.837,0,4.165-1.775,4.165-3.764a4.442,4.442,0,0,0-.284-1.532H74.9m19.291-8.6-2.838,9.115-2.708-8.738H86.224l-2.682,8.738-2.866-9.115H77.241L81.98,54.355h2.839l2.632-8.578,2.6,8.578h2.865l4.74-13.606H94.195m10.2,11.077a4.289,4.289,0,1,1,3.933-4.275A4.046,4.046,0,0,1,104.393,51.826Zm0-11.373a7.1,7.1,0,1,0,7.163,7.1,7.2,7.2,0,0,0-7.163-7.1m15.574,11.373a4.289,4.289,0,1,1,3.93-4.275A4.05,4.05,0,0,1,119.967,51.826Zm-.03-11.373a7.1,7.1,0,1,0,7.164,7.1,7.2,7.2,0,0,0-7.164-7.1m8.692,13.9h3.2V35.34h-3.2V54.355ZM16.486,43.853l-2.325-.882c-1.963-.72-2.143-1.68-2.143-2.318,0-1.469,1.214-2.214,2.685-2.214a3.125,3.125,0,0,1,3.2,2.427l2.789-1.2A5.905,5.905,0,0,0,14.7,35.4c-3.306,0-5.991,2.026-5.991,5.3,0,1.574.647,3.945,4.443,5.253l2.323.827c1.6.587,2.376,1.385,2.376,2.477,0,1.494-1.368,2.375-3.254,2.375a3.646,3.646,0,0,1-3.745-2.746l-2.995.692c.491,3.012,3.279,5.067,6.817,5.067,3.488,0,6.455-1.92,6.455-5.52C21.109,47.29,20,45,16.486,43.853" transform="translate(0 -8.128)"/><path d="M197.133,2.72h2.719V0h-2.719Z" transform="translate(-43.53)"/><path d="M200.664,6.25h2.72V3.533h-2.72Z" transform="translate(-44.342 -0.813)"/><path d="M197.133,9.783h2.719V7.061h-2.719Z" transform="translate(-43.53 -1.624)"/><path d="M197.133,16.85h2.719V14.13h-2.719Z" transform="translate(-43.53 -3.25)"/><path d="M197.133,20.382h2.719v-2.72h-2.719v2.72Z" transform="translate(-43.53 -4.062)"/><path d="M200.664,20.382h2.72v-2.72h-2.72v2.72Z" transform="translate(-44.342 -4.062)"/><path d="M197.133,23.914h2.719v-2.72h-2.719v2.72Z" transform="translate(-43.53 -4.875)"/><path d="M200.664,23.914h2.72v-2.72h-2.72v2.72Z" transform="translate(-44.342 -4.875)"/><path d="M197.133,27.445h2.719V24.727h-2.719Z" transform="translate(-43.53 -5.687)"/><path d="M200.664,27.445h2.72V24.727h-2.72Z" transform="translate(-44.342 -5.687)"/><path d="M197.133,30.977h2.719V28.256h-2.719Z" transform="translate(-43.53 -6.499)"/><path d="M200.664,30.977h2.72V28.256h-2.72Z" transform="translate(-44.342 -6.499)"/><path d="M197.133,34.509h2.719V31.79h-2.719Z" transform="translate(-43.53 -7.311)"/><path d="M200.664,34.509h2.72V31.79h-2.72Z" transform="translate(-44.342 -7.311)"/><path d="M197.133,38.042h2.719V35.321h-2.719Z" transform="translate(-43.53 -8.124)"/><path d="M200.664,38.042h2.72V35.321h-2.72Z" transform="translate(-44.342 -8.124)"/><path d="M190.069,38.042h2.721V35.321h-2.721Z" transform="translate(-41.905 -8.124)"/><path d="M179.473,43.483h2.719V40.762h-2.719v2.721Zm10.88-5.441h2.718V35.321h-2.718Z" transform="translate(-39.469 -8.124)"/><path d="M186.535,38.042h2.721V35.321h-2.721Z" transform="translate(-41.093 -8.124)"/><path d="M183,41.575h2.718v-2.72H183Z" transform="translate(-40.281 -8.936)"/><path d="M214.794,41.575h2.724v-2.72h-2.724Z" transform="translate(-47.592 -8.936)"/><path d="M179.473,48.641h2.719v-2.72h-2.719v2.72Z" transform="translate(-39.469 -10.561)"/><path d="M179.473,52.173h2.719v-2.72h-2.719v2.72Z" transform="translate(-39.469 -11.374)"/><path d="M179.473,55.707h2.719V52.985h-2.719v2.721Z" transform="translate(-39.469 -12.186)"/><path d="M183,59.238h2.718V56.519H183Z" transform="translate(-40.281 -12.999)"/><path d="M218.331,45.108h2.718V42.387h-2.718Z" transform="translate(-48.405 -9.749)"/><path d="M218.331,48.641h2.718v-2.72h-2.718Z" transform="translate(-48.405 -10.561)"/><path d="M218.331,52.173h2.718v-2.72h-2.718Z" transform="translate(-48.405 -11.374)"/><path d="M218.331,55.707h2.718V52.985h-2.718Z" transform="translate(-48.405 -12.186)"/><path d="M214.794,59.238h2.724V56.519h-2.724Z" transform="translate(-47.592 -12.999)"/><path d="M207.726,38.042h2.721V35.321h-2.721Z" transform="translate(-45.966 -8.124)"/><path d="M211.26,38.042h2.721V35.321H211.26Z" transform="translate(-46.779 -8.124)"/><path d="M204.2,38.042h2.717V35.321H204.2Z" transform="translate(-45.155 -8.124)"/><path d="M197.133,41.575h2.719v-2.72h-2.719Z" transform="translate(-43.53 -8.936)"/><path d="M200.664,41.575h2.72v-2.72h-2.72Z" transform="translate(-44.342 -8.936)"/><path d="M190.069,41.575h2.721v-2.72h-2.721Z" transform="translate(-41.905 -8.936)"/><path d="M193.6,41.575h2.718v-2.72H193.6Z" transform="translate(-42.718 -8.936)"/><path d="M207.726,41.575h2.721v-2.72h-2.721Z" transform="translate(-45.966 -8.936)"/><path d="M204.2,41.575h2.717v-2.72H204.2Z" transform="translate(-45.155 -8.936)"/><path d="M197.133,45.108h2.719V42.387h-2.719Z" transform="translate(-43.53 -9.749)"/><path d="M200.664,45.108h2.72V42.387h-2.72Z" transform="translate(-44.342 -9.749)"/><path d="M190.069,45.108h2.721V42.387h-2.721Z" transform="translate(-41.905 -9.749)"/><path d="M193.6,45.108h2.718V42.387H193.6Z" transform="translate(-42.718 -9.749)"/><path d="M207.726,45.108h2.721V42.387h-2.721Z" transform="translate(-45.966 -9.749)"/><path d="M204.2,45.108h2.717V42.387H204.2Z" transform="translate(-45.155 -9.749)"/><path d="M197.133,48.641h2.719v-2.72h-2.719Z" transform="translate(-43.53 -10.561)"/><path d="M200.664,48.641h2.72v-2.72h-2.72Z" transform="translate(-44.342 -10.561)"/><path d="M190.069,48.641h2.721v-2.72h-2.721Z" transform="translate(-41.905 -10.561)"/><path d="M193.6,48.641h2.718v-2.72H193.6Z" transform="translate(-42.718 -10.561)"/><path d="M207.726,48.641h2.721v-2.72h-2.721Z" transform="translate(-45.966 -10.561)"/><path d="M204.2,48.641h2.717v-2.72H204.2Z" transform="translate(-45.155 -10.561)"/><path d="M197.133,52.173h2.719v-2.72h-2.719Z" transform="translate(-43.53 -11.374)"/><path d="M200.664,52.173h2.72v-2.72h-2.72Z" transform="translate(-44.342 -11.374)"/><path d="M190.069,52.173h2.721v-2.72h-2.721Z" transform="translate(-41.905 -11.374)"/><path d="M193.6,52.173h2.718v-2.72H193.6Z" transform="translate(-42.718 -11.374)"/><path d="M207.726,52.173h2.721v-2.72h-2.721Z" transform="translate(-45.966 -11.374)"/><path d="M204.2,52.173h2.717v-2.72H204.2Z" transform="translate(-45.155 -11.374)"/><path d="M197.133,55.707h2.719V52.985h-2.719Z" transform="translate(-43.53 -12.186)"/><path d="M200.664,55.707h2.72V52.985h-2.72Z" transform="translate(-44.342 -12.186)"/><path d="M190.069,55.707h2.721V52.985h-2.721Z" transform="translate(-41.905 -12.186)"/><path d="M193.6,55.707h2.718V52.985H193.6Z" transform="translate(-42.718 -12.186)"/><path d="M207.726,55.707h2.721V52.985h-2.721Z" transform="translate(-45.966 -12.186)"/><path d="M204.2,55.707h2.717V52.985H204.2Z" transform="translate(-45.155 -12.186)"/><path d="M197.133,59.238h2.719V56.519h-2.719Z" transform="translate(-43.53 -12.999)"/><path d="M200.664,59.238h2.72V56.519h-2.72Z" transform="translate(-44.342 -12.999)"/><path d="M190.069,59.238h2.721V56.519h-2.721Z" transform="translate(-41.905 -12.999)"/><path d="M193.6,59.238h2.718V56.519H193.6Z" transform="translate(-42.718 -12.999)"/><path d="M207.726,59.238h2.721V56.519h-2.721Z" transform="translate(-45.966 -12.999)"/><path d="M204.2,59.238h2.717V56.519H204.2Z" transform="translate(-45.155 -12.999)"/><path d="M197.133,62.769h2.719V60.05h-2.719Z" transform="translate(-43.53 -13.811)"/><path d="M200.664,62.769h2.72V60.05h-2.72Z" transform="translate(-44.342 -13.811)"/><path d="M190.069,62.769h2.721V60.05h-2.721Z" transform="translate(-41.905 -13.811)"/><path d="M190.069,66.3h2.721V63.581h-2.721Z" transform="translate(-41.905 -14.623)"/><path d="M190.069,69.834h2.721V67.115h-2.721Z" transform="translate(-41.905 -15.436)"/><path d="M190.069,73.364h2.721V70.646h-2.721Z" transform="translate(-41.905 -16.248)"/><path d="M190.069,76.9h2.721V74.177h-2.721Z" transform="translate(-41.905 -17.06)"/><path d="M190.069,80.432h2.721V77.71h-2.721Z" transform="translate(-41.905 -17.872)"/><path d="M190.069,83.963h2.721V81.245h-2.721v2.719Z" transform="translate(-41.905 -18.685)"/><path d="M190.069,87.5h2.721V84.775h-2.721Z" transform="translate(-41.905 -19.497)"/><path d="M186.535,87.5h2.721V84.775h-2.721Z" transform="translate(-41.093 -19.497)"/><path d="M207.726,66.3h2.721V63.581h-2.721Z" transform="translate(-45.966 -14.623)"/><path d="M207.726,69.834h2.721V67.115h-2.721Z" transform="translate(-45.966 -15.436)"/><path d="M207.726,73.364h2.721V70.646h-2.721Z" transform="translate(-45.966 -16.248)"/><path d="M207.726,76.9h2.721V74.177h-2.721Z" transform="translate(-45.966 -17.06)"/><path d="M207.726,80.432h2.721V77.71h-2.721Z" transform="translate(-45.966 -17.872)"/><path d="M207.726,83.963h2.721V81.245h-2.721v2.719Z" transform="translate(-45.966 -18.685)"/><path d="M207.726,87.5h2.721V84.775h-2.721Z" transform="translate(-45.966 -19.497)"/><path d="M207.2,81.81h2.721V79.089H207.2ZM193.6,62.769h2.718V60.05H193.6Z" transform="translate(-42.718 -13.811)"/><path d="M207.726,62.769h2.721V60.05h-2.721Z" transform="translate(-45.966 -13.811)"/><path d="M200.947,52.208h2.717V49.489h-2.717ZM190.069,16.85h2.721V14.13h-2.721Z" transform="translate(-41.905 -3.25)"/><path d="M207.726,16.85h2.721V14.13h-2.721Z" transform="translate(-45.966 -3.25)"/><path d="M186.535,13.317h2.721V10.6h-2.721Z" transform="translate(-41.093 -2.437)"/><path d="M211.26,13.317h2.721V10.6H211.26Z" transform="translate(-46.779 -2.437)"/><path d="M172.366,58.936a1.389,1.389,0,1,1,1.275-1.373,1.319,1.319,0,0,1-1.275,1.373Zm-.009-3.114a1.742,1.742,0,1,0,1.716,1.734,1.722,1.722,0,0,0-1.716-1.734" transform="translate(-37.435 -12.838)"/><path d="M172.736,57.764a.256.256,0,0,0,.288-.266v0c0-.176-.113-.268-.295-.268h-.265v.537Zm-.643-.866h.668a.668.668,0,0,1,.483.168.579.579,0,0,1,.145.413v.014a.518.518,0,0,1-.324.518l.374.664h-.418l-.328-.584h-.228v.585h-.372V56.9" transform="translate(-37.771 -13.086)"/></g></g></svg>