<svg xmlns="http://www.w3.org/2000/svg" xmlns:xlink="http://www.w3.org/1999/xlink" width="214" height="124" viewBox="0 0 214 124"><defs><clipPath id="a"><rect width="214" height="124" transform="translate(1107 915)"/></clipPath></defs><g transform="translate(-1107 -915)" clip-path="url(#a)"><path d="M82.846,9.171a126.363,126.363,0,0,0-24.676,3.451C41.678,16.645,27.25,23.928,15.823,33.951A111.509,111.509,0,0,0,6.84,43.124L5.4,44.859l11.722.052,11.722.035,11.48-7.838c6.312-4.318,11.636-7.855,11.827-7.855s4.058,1.89,8.618,4.2c7.838,4.006,8.306,4.214,9.191,4.2,2.063-.035,1.994-.087-2.636-2.5C64.95,33.9,62.99,32.859,62.99,32.807c.017-.069,5.792-4.092,23.67-16.439l1.075-.746,15.676,9.035c8.6,4.96,15.728,9.087,15.815,9.173a15.811,15.811,0,0,1-3.1,2.376l-3.243,2.237,1.266.052,1.266.052,5.532-3.694c4.509-2.983,5.584-3.642,5.827-3.5.156.1,5.254,3.208,11.324,6.884l11.046,6.711,10.231-.035,10.249-.052-1.578-1.908a117.84,117.84,0,0,0-10.63-10.6C140.5,18.4,118.759,10.558,93.25,9.223,90.25,9.067,85.464,9.032,82.846,9.171ZM7.048,47.39A2.61,2.61,0,0,0,6.094,48c-.364.382-.416.625-.468,1.942-.052,1.283,0,1.6.312,2.081.624,1.006,1.04,1.075,5.983,1.075h4.422v1.561H5.592v2.254H11.5c6.312,0,6.936-.069,7.647-.815.347-.364.416-.642.468-2.012.069-1.873-.173-2.5-1.162-3-.572-.278-1.2-.329-5.2-.382L8.7,50.633l.052-.624.052-.642,5.341-.052,5.324-.035V47.2l-5.931.017C10.256,47.217,7.343,47.3,7.048,47.39Zm14.705,3.659c.052,3.486.087,3.919.4,4.457.676,1.145,2.2,1.578,5.636,1.578,3.486,0,5.272-.52,5.913-1.734.295-.538.329-1.023.329-4.37V47.2H30.389v3.434c0,4.283.1,4.11-2.428,4.11s-2.428.173-2.428-4.11V47.2h-3.85Zm14.532,1.006v4.855h3.642l-.121-3.087a12.893,12.893,0,0,1,.052-2.931c.087.087.867,1.457,1.734,3.035l1.6,2.9,2.792.052,2.792.035V47.2H45.3v6.329l-1.7-3.121-1.7-3.121-2.809-.052L36.285,47.2v4.855Zm23.757,0v4.855h3.642l-.121-3.468c-.052-1.908-.069-3.468-.017-3.468.035,0,.815,1.561,1.7,3.468l1.613,3.468h3.52l.936-2.046c.52-1.11,1.318-2.809,1.769-3.763l.832-1.734-.052,3.78-.035,3.763h3.728V47.2H71.383L70.03,50.148a21.776,21.776,0,0,1-1.456,2.861c-.052-.052-.694-1.353-1.422-2.913l-1.318-2.809-2.9-.052-2.9-.035v4.855Zm22.786-4.6A4.959,4.959,0,0,0,80,48.864c-.329.434-.364.676-.364,3.174,0,3.208.121,3.537,1.6,4.231a11.221,11.221,0,0,0,4.994.815,10.441,10.441,0,0,0,4.96-.954c1.162-.694,1.283-1.04,1.283-4.04,0-2.393-.035-2.636-.382-3.156A4.625,4.625,0,0,0,89,47.39,23.6,23.6,0,0,0,82.828,47.46Zm5.185,2.289c.642.312.815.85.815,2.393s-.208,2.064-.954,2.428a7,7,0,0,1-3.416.087c-.988-.277-1.179-.694-1.179-2.48,0-1.647.139-2.081.746-2.41A5.548,5.548,0,0,1,88.013,49.749Zm6.4,1.3c.052,3.486.087,3.919.4,4.457.676,1.145,2.2,1.578,5.636,1.578,3.486,0,5.272-.52,5.913-1.734.295-.538.329-1.023.329-4.37V47.2h-3.642v3.434c0,4.283.1,4.11-2.428,4.11s-2.428.173-2.428-4.11V47.2h-3.85Zm14.879,1.006v4.855h3.59l-.087-2.74c-.035-1.492-.052-2.879-.018-3.069.052-.225.607.659,1.717,2.723l1.647,3.087h5.636V47.2h-3.642l.1,3.069c.087,2.133.052,3.035-.069,2.913-.1-.1-.885-1.457-1.734-3.035l-1.543-2.861-2.809-.052-2.792-.035Zm14.566-3.815v1.04H127.5v7.63h3.642v-7.63h3.988V47.2H123.857Zm14.341-.572c-.365.694-3.936,9.017-3.936,9.139a9.131,9.131,0,0,0,1.89.1h1.873l.364-.867.365-.867h5.185l.365.867.381.867h1.8a5.725,5.725,0,0,0,1.821-.139c0-.069-.919-2.237-2.064-4.8l-2.063-4.682-2.861-.052-2.879-.035-.243.468Zm4.127,3.676a14.681,14.681,0,0,1,.728,2.029,10.879,10.879,0,0,1-1.821.035l-1.734-.052.728-1.821c.4-1.006.78-1.977.849-2.15.191-.485.347-.243,1.249,1.96Zm7.89.711v4.855h3.642V47.2h-3.642Zm6.416,0v4.855h3.694l-.1-3.069c-.069-2.133-.052-3,.069-2.879.1.1.885,1.474,1.717,3.017l1.526,2.844,2.879.052,2.879.035V47.2h-3.676l.069,3.035a24.163,24.163,0,0,1-.035,3.035c-.052,0-.832-1.37-1.734-3.035l-1.63-3.035h-5.653Z" transform="translate(1126.49 943.916)"/></g></svg>