<svg xmlns="http://www.w3.org/2000/svg" xmlns:xlink="http://www.w3.org/1999/xlink" width="214" height="124" viewBox="0 0 214 124"><defs><clipPath id="a"><rect width="214" height="124" transform="translate(599 483)"/></clipPath></defs><g transform="translate(-599 -483)" clip-path="url(#a)"><g transform="translate(615.279 522.78)"><path d="M108.5,8.71l-.032,25.848c-.258,1.291,2.065,1.129,1.355,2.517-.936,1.162-2.872.613-4.356.774-1.355-.162-3.356.484-3.775-1.1-.1-1.13,1.323-1.033,1.226-2.194l-.032-12.746c-.226.871-.161,2.162-1.13,2.549a1.839,1.839,0,0,1-1.517-.516c-.387-.452-.226-1.549-.742-1.549-1.775.29-2.678,2.13-3.1,3.55-.516,2.9-.258,6.293-.226,9.358.194.807,1.71.677,1,1.839a2.419,2.419,0,0,1-.968.71s-1.226.064-3.227.064-3.066-.064-3.066-.064a1.3,1.3,0,0,1-.774-.936c-.258-.387.161-.871.452-1,.323-.032.71-.516.774-.839L90.4,22.231c-.1-1.1-1.872-.839-1.485-1.968,1.581-1.388,3.776-1.388,5.486-2.485.452.065.968-.129,1.323.161.613.807.064,2.194.452,3.163H96.4c1-1.355,2.291-3.324,4.292-3.227.516.032,1.807,0,2.194.839,0-2.614.323-6.2-1.355-7.583.032-1.839,4-1.613,5.26-3.1.516-.258,1.613-.226,1.71.677Zm45.273-.742.129,3.614.129,22.233c.258.484.9.161,1.1.677.226,1.1-.613,1.484-1.42,1.807-1.646.581-3.227,1.42-5.1,1.484-.775-.226.226-1.033-.548-1.355-.871.936-2.065,1.936-3.388,1.485-2.452-.226-3.872-2.356-4.518-4.486-.968-4.969-.516-10.584,2.323-14.489a4.7,4.7,0,0,1,3.1-1.484,7.173,7.173,0,0,1,2.259,1.033l.226-.387.032-5.873c-.516-.71-2.1-1.065-1.388-2.259.484-.355,1.129-.258,1.71-.387,1.484-.71,3.034-1.355,4.485-2.1a.735.735,0,0,1,.872.484Zm-7.261,12.843c-.258-.355-.645-.032-.839.226-1.355,3.582-1.9,8.777.452,12.069a.8.8,0,0,0,1.162-.29,16.3,16.3,0,0,0,.613-8.906C147.576,22.812,147.447,21.65,146.511,20.811Z" transform="translate(-14.003 -0.194)"/><path d="M19.824,8.063l1.646,7.293a1.52,1.52,0,0,1-.936,1.678,1.846,1.846,0,0,1-1.872-.516c-1.129-1.678-1.355-3.9-3.1-5.2-.484-.065-.936-.032-1.033.516L14.6,34.911a2.141,2.141,0,0,0,1.581,1.42A1.872,1.872,0,0,0,17.34,35.1V22.391c-.1-.742-2.162-1.033-1.549-1.775,1.872-.9,3.872-1.581,5.744-2.549.549-.065,1.355.032,1.517.613V35.1c-.065.9,1.162.775,1.323,1.549.29-.645,1.129-.775,1.226-1.549V22.616c-.065-1.033-2.033-1.226-1.452-2,1.807-.807,3.582-1.613,5.324-2.485.613-.226,1.581-.258,1.775.452.032.549-.1.9.161,1.323.774.387.807-.71,1.323-1,1.065-1.13,3-1.1,4.324-.613,1.1.194,1.194,1.71,2.259,1.613.516-.645.807-1.388,1.613-1.71a5.129,5.129,0,0,1,3.743.645c2.323,2.356,2.356,5.776,2.71,8.906.323,2.71.517,5.292.839,8.132.162.42.387.226.71.452v-.645L48.9,13.1c.032-1.581-1.484-1.581-1.259-2.646,1.42-1.646,3.9-1.42,5.583-2.775a1.321,1.321,0,0,1,1.355.774l.032,10.068c.549.581.871-.387,1.549-.613a4.127,4.127,0,0,1,4.1,1.388c1.9,2.033,2.323,4.711,2.71,7.357h.1c.42-3.291,1.1-7.228,4.55-8.519a5.387,5.387,0,0,1,4.9.452,8.089,8.089,0,0,1,2.775,7.68c-2.517,1.162-4.873,2.162-6.97,3.1a4.717,4.717,0,0,0,1.775,3.42c.807.355,1.968.839,2.71.065.355-.645.194-1.871,1-1.936.678,0,1.42.064,1.71.71a4.351,4.351,0,0,1-.678,4.647c-1.613,1.839-4.453,1.968-6.744,1.387-3.485-1.1-4.324-4.872-4.969-7.97-.161,3.195-.71,6.97-4.034,8.132-1.968.581-4.614.129-5.55-1.162-.323-.355-.226-1.033-.871-1.033-1.1,0-.936,2.065-2.388,2.194-.645.226-1.065-.355-1.323-.71-.129.387-.258.452-.871.581.065,0-5.615.064-6.1-.032s-.549-.387-.71-.613c-.355-1.033.968-.549,1.033-1.42a57.1,57.1,0,0,0-.645-11.778,2.214,2.214,0,0,0-1.162-1.9c-.613-.29-1.226.484-1.291.839V35.169c-.1,1.129,1.872.9,1,2.1-1.646.807-4.389.355-6.357.387-.258-.129-.484-.064-.742-.193-.387-.065-.516-.969-.193-1.065.774-.1,1.065-.936,1.258-1.549.032-3.776.032-12-.129-12.617a1.092,1.092,0,0,0-1.355-.613A1.621,1.621,0,0,0,31.442,23V35.169c-.161,1,1.646.807,1,1.936l-.613.452a41.9,41.9,0,0,1-6.68.1c-.419-.258-.9-.548-.936-1.1-.129.419-.194.71-.613.936a35.9,35.9,0,0,1-6.97.064c-.1-.161-.387-.226-.549-.452-1.13.9-2.84.516-4.324.613-1.936,0-3.453.29-5.1-.387A.767.767,0,0,1,6.4,36.4a2,2,0,0,0,1.355-1.42V12.129c-.065-.71-.484-.613-.678-.807-.71-.065-1.291.581-1.613,1.162-1.291,1.549-.968,5.163-3.872,4.647-.387-.323-.774-.516-.871-1A65.889,65.889,0,0,1,2.27,8c.323-.258.516-.71,1-.645A1.091,1.091,0,0,1,4.335,8c4,.1,8.939.1,13.327,0,.419-.807,2-1.226,2.162.065ZM69,20.39c-.646-.387-1.452.355-1.549.774a9.884,9.884,0,0,0,.387,5.873,8.712,8.712,0,0,0,2.162-1c.871-.968.936-2.13.161-3.647L69,20.39Zm-12.553.29c-.581,0-1.355,2.388-1.678,3.711-.258,3.065-.42,6.486,1.291,8.906.419.452.774-.323,1.033-.516,1.678-3,1.388-6.97.516-10.229C57.354,21.874,57.289,20.68,56.45,20.68Zm66.862-.226c1.452,3.163,1.678,6.938,2,10.52.162,1.613-.387,4.356,1.227,5.292a.878.878,0,0,1-.065,1.1l-.549.29a21.7,21.7,0,0,1-6.583-.226.908.908,0,0,1-.226-1c1.872-.871.968-3.84,1.1-5.453-.484-3.033-.871-6.131-2.259-8.809a.706.706,0,0,0-.839-.323l-.484.549.1,12.488c.1.581.29,1.323,1,1.452.323.323.064.775-.1,1.1a18.786,18.786,0,0,1-6.583.323,1.364,1.364,0,0,1-.9-.774,3.115,3.115,0,0,1-2.194.9c-1.614.064-2.485-.807-3.485-1.613a12.345,12.345,0,0,1-2.162,1.387c-1.517.775-3.485.258-4.873-.484-2-1.1-2.291-3.195-2.323-5.26-.161-3.066,2.517-5.163,4.969-6.357.775-.323,2.227-.387,2.549-1.291.065-1.162.032-2.84-1.162-3.743-.742,0-1.549-.323-2.259,0-.581.807.71.678.936,1.42A2.538,2.538,0,0,1,99.755,24c-.742.871-2.1.678-3.1.484A2.781,2.781,0,0,1,95.432,23a4.1,4.1,0,0,1,.516-3.1c1.9-2.194,5.228-1.936,7.906-1.71a3.889,3.889,0,0,1,3.259,2.485c1.194,4.163,1.226,8.648,1.484,13.1.323,1.549,1.162-.323,1.549,1.162l.226,1.388c.678,0,.839-.775,1.065-1.227L111.4,22.359c-.161-1.033-1.969-1.033-1.355-2.13,1.484-1.1,3.388-1.517,5.034-2.42a1.107,1.107,0,0,1,1.484.549c.226.258-.161.774.29.936a3.493,3.493,0,0,1,2.259-1.71,4.442,4.442,0,0,1,4.2,2.871ZM102.627,27.1a3.2,3.2,0,0,0-2.033,1.646c-.419,1.743-.677,5.357.871,5.808a1.581,1.581,0,0,0,1.613-.387,31.757,31.757,0,0,0-.226-6.809ZM176.2,31.523a14.388,14.388,0,0,1-3.647,3.743c-7.164-.194-13.94-2.033-21.072-2.323l-.549-.71c8.325-1.872,16.973,1.032,25.267-.71Zm-8.455,4.131,3.872.29c-4.2,3.1-11.359,3.162-15.877.549a18.4,18.4,0,0,1-3.646-2.775C157.517,33.879,162.487,35.1,167.746,35.653Zm10.006-24.847a1.485,1.485,0,1,1,1.484,1.452A1.433,1.433,0,0,1,177.752,10.806Zm1.484,1.226a1.179,1.179,0,0,0,1.194-1.226,1.2,1.2,0,0,0-1.194-1.226,1.227,1.227,0,0,0,0,2.453Zm-.322-.387h-.258V9.967h.645q.581,0,.581.484c0,.29-.194.42-.452.452l.484.742h-.29l-.452-.742h-.258v.742Zm.322-.936c.226,0,.42,0,.42-.29,0-.194-.194-.258-.355-.258h-.387v.516h.322v.032Z" transform="translate(0 -0.16)"/><path d="M190.527,6.29c.871,1.484,1.517,3.066,2.388,4.55l.71-.065a27.107,27.107,0,0,0-1.807-4.421c2.194-.742,2.065,2.13,3.1,3.162,1.13-.194,2.13-1.129,3.259-1.549.355-.032.484.387.775.484l-3,2.549a6.786,6.786,0,0,0,.839,2.549l3.324-4.421c.355.065.549.516.871.646-.484.839-1.033,1.452-1.485,2.323l.226.129c1.452.484,4.163-.936,4.582,1.323l-3.323.323L199.5,16.358c2.065.323,3.614-1.1,5.422-1.646l.71,1.259a26.985,26.985,0,0,1-6.841,2.227,17.185,17.185,0,0,0-1,1.646c2.743-.581,5.582-1.355,8.357-2.033A15.9,15.9,0,0,1,204.6,30.2l-.9.484c-8.583,1.71-17.006-1.1-25.557.613a16.229,16.229,0,0,1-1.872-15.1l3.421-.1v-.29c-.323-1.226-3-2.42-1.1-3.646a34.813,34.813,0,0,1,3.324,3.55,3.427,3.427,0,0,0,1.162-.065l-3.711-4.26c.323-.678,1.033-1.033,1.549-1.549l3.1.613a17.21,17.21,0,0,0,.064-2.614,8.481,8.481,0,0,1,2.1-.871l1.775,3.485L190.2,6.29h.322Zm0,3-1.484,3.259a9.331,9.331,0,0,0,.839,3.1c1.742-.484,1.323-2.42,1.71-3.711Zm-4.9.161c.194.613-.484,2.1.774,1.775Zm-4.1,2,2.323,2.42a17.2,17.2,0,0,0,.161-1.775A16.564,16.564,0,0,0,181.524,11.453Zm12.23,1.259.161.226a1.077,1.077,0,0,0,.387-.549.818.818,0,0,0-.549.323Zm-7.97.161v2.775l1.162-2.388C186.622,12.97,186.17,13,185.783,12.873Zm13.392,1.065c-.42.1-.743.129-.9.161l-1.549,2.323c.29.032.774.065,1,.065l1.452-2.549Zm-6.325,1.936.129,2.937c.839-1.42,3.163-2.614,2.195-4.55A14.233,14.233,0,0,0,192.85,15.874Zm-4.26,2.485-.71-2.872-.613,1.388Zm2.453-1.613c-1.065-.161-.968,1.743-.065,1.839Zm-8.906.387-1.291,1.613,2.227.936,2.323-1.71c-.355-1.517-2.162-.581-3.259-.839Zm-5.034.29,1.323.613c.71.549.807-.323,1.162-.678A21.3,21.3,0,0,0,177.1,17.423Zm10.552,2.549-.936-.9c-1.387.774-2.549,2.581-4.1,3.162h-1.872a6.775,6.775,0,0,0,.936-1.323,5.763,5.763,0,0,0-1.936-.677,15.515,15.515,0,0,1-1.581,1.968,3.357,3.357,0,0,1-.968-.032,11.006,11.006,0,0,0,.936,5.163c3.679.129,7.777.613,11.617,1.1V22.618l-.71-1.1a5.04,5.04,0,0,1-2.162.71c-1.129.032-2.162.064-3.195,0Zm-10.294-.839-.162,1.775a4.464,4.464,0,0,0,.936-1.452Zm27.719,1.323a.883.883,0,0,0-.194-.516c-.355.065-.839.226-1.452.355l1.162,2.194H202.66c-.161-.258-.258-.581-.484-.936a7.145,7.145,0,0,1-.355-.871,22.869,22.869,0,0,1-2.42.484c.161.516.29.871.451,1.291H198.3c-.226-.387-.387-.581-.613-.968-1.775.516-3.485,1.033-5.2,1.549a30.277,30.277,0,0,0,.548,5.873,55.97,55.97,0,0,0,9.907.871A12.572,12.572,0,0,0,205.08,20.456Zm-8.454-1.936a9.073,9.073,0,0,0-.968-.032L194.4,20.553a4.977,4.977,0,0,0,1.194-.29l1.032-1.743Z" transform="translate(-27.718)"/></g></g></svg>