<svg xmlns="http://www.w3.org/2000/svg" xmlns:xlink="http://www.w3.org/1999/xlink" width="214" height="124" viewBox="0 0 214 124"><defs><clipPath id="a"><rect width="214" height="124" transform="translate(1107 1059)"/></clipPath></defs><g transform="translate(-1107 -1059)" clip-path="url(#a)"><g transform="translate(1128.32 1100.843)"><path d="M110.705,19.954a5.032,5.032,0,0,1,.143,4.669,3.973,3.973,0,0,1-4.241,1.64,3.247,3.247,0,0,1-2.352-2.709c-.267-1.614.962-4.847-1.639-5.56a1.614,1.614,0,0,0-1.39.677c-2,2.994-1.818,7.306-1.354,10.906a7.186,7.186,0,0,0,4.027,5.845,5.445,5.445,0,0,0,5.489-1.283c.748-.713.748-1.55,1.5-1.64.492-.178,1.023.446.777,1.3a10.129,10.129,0,0,1-8.7,6.219,10.336,10.336,0,0,1-10.158-5.488A14.327,14.327,0,0,1,94.1,20.346c2.637-3.279,6.487-4.384,10.657-3.92,2.281.5,4.6,1.283,5.952,3.529Zm44.337-1.746a3.863,3.863,0,0,1,.321,3.778,3.507,3.507,0,0,1-3.208,2.1c-2.21.356-4.063-3.707-5.845-.784l-.321,1.426-.143,10.692c.107,1.319.57,2.78,1.96,3.243.428.214,1.034.107,1.247.606.036.321-.321.428-.5.463l-13.045-.025c-.321,0-.285-.4-.214-.617a3.457,3.457,0,0,0,2.459-2.566l.107-1.925.107-12.767c-.071-1.283-.428-2.887-1.6-3.6-.321-.214-.891-.285-.962-.748-.036-.214.225-.463.435-.5h9.177c.535,0,.563.328.6.524a22.552,22.552,0,0,0,.235,2.933h.249c1.675-2.245,3.921-4.134,6.807-3.564a3.593,3.593,0,0,1,2.138,1.326Z" transform="translate(-21.635 -3.317)"/><path d="M140.642,21.905c2.245,4.063,2.245,10.3-.891,13.936a11.922,11.922,0,0,1-11.084,4.277,11.159,11.159,0,0,1-8.91-6.986c-1.568-4.419-.927-10.015,2.637-13.294a12.3,12.3,0,0,1,13.152-2.281,10.616,10.616,0,0,1,5.1,4.348Zm-10.218-3.813c-1.5.428-2.138,2-2.388,3.35a56.425,56.425,0,0,0-.071,14.292c.214,1.212.749,2.709,2.138,2.958a2.438,2.438,0,0,0,2.388-1.212c1.283-3.065,1.14-6.665,1.212-10.229-.214-2.566.214-5.417-.855-7.663A2.482,2.482,0,0,0,130.424,18.092Z" transform="translate(-28.548 -3.379)"/><circle cx="4.683" cy="4.683" r="4.683" transform="translate(58.109 3.157)"/><path d="M67.568,36.25a3.083,3.083,0,0,0,1.64,2.78.606.606,0,0,1,.142.641l-.239.125L45.67,39.771l-.239-.125A.606.606,0,0,1,45.574,39a3.083,3.083,0,0,0,1.639-2.78l.046-14.092a2.181,2.181,0,0,0-1.1-1.568,3.035,3.035,0,0,0-3.243,1.354l-.392.748-.036,13.579a3.083,3.083,0,0,0,1.639,2.78.606.606,0,0,1,.143.641l-.239.125H22.08c-.713,0-.713-.274-.713-2.028l-.2-.128c-2.388,2.352-5.774,3.671-9.017,2.459a5.868,5.868,0,0,1-3.457-5.738L8.583,20.885a3.025,3.025,0,0,0-2.459-2.851c-.855-.249-.5-1.023.413-.962,1.878.061,6.095,0,9.245,0a.734.734,0,0,1,.82.82V32.647c.036,1.461-.321,3.243,1.141,4.027a2.093,2.093,0,0,0,2.031-.285,5.975,5.975,0,0,0,1.6-1.782l.036-14.335a2.688,2.688,0,0,0-1.326-2.181c-.531-.307-.592-.959.232-1.019h8.326c.385,0,.987.089.977.848l.036,17.293c0,2.338,1.169,3.468,2.106,3.614,1.283.2,2.449-1.276,2.456-2.473l.036-14.969a4.517,4.517,0,0,0-.98-2.691c-.428-.713-1.782-.5-1.461-1.5l.428-.107h9.516c.606.57.178,1.675.535,2.388h.356a8.515,8.515,0,0,1,7.681-2.726A5.906,5.906,0,0,1,54.356,19.5a9.132,9.132,0,0,1,.855,3.707L55.14,35.641c.143,1.212.463,2.53,1.675,3.065a1.529,1.529,0,0,0,1.925-.641,4.568,4.568,0,0,0,.855-2.637l.071-14.043c-.143-1.14-.485-2.523-1.59-3.129-.321-.178-.82-.214-.927-.677a.5.5,0,0,1,.535-.5h9.306c.463.036.531.506.6.83L67.568,36.25Zm67.81,3.546-.239-.125a.6.6,0,0,1,.143-.641,3.083,3.083,0,0,0,1.639-2.78l.032-14.841a4.518,4.518,0,0,0-.98-2.691c-.428-.713-1.782-.5-1.461-1.5l.428-.107h9.516c.606.57.178,1.675.535,2.388h.356a8.531,8.531,0,0,1,7.68-2.726,5.906,5.906,0,0,1,4.027,2.744,9.127,9.127,0,0,1,.855,3.707l-.079,13.023a3.083,3.083,0,0,0,1.64,2.78.606.606,0,0,1,.143.641l-.239.125H148.362l-.239-.125a.606.606,0,0,1,.143-.641,3.083,3.083,0,0,0,1.639-2.78l.046-14.092a2.181,2.181,0,0,0-1.1-1.568,3.035,3.035,0,0,0-3.243,1.354l-.392.748-.036,13.579a3.083,3.083,0,0,0,1.639,2.78.606.606,0,0,1,.143.642l-.321.1H135.378Zm27.269-22.322a2.406,2.406,0,0,1,1.782.77,2.533,2.533,0,0,1-3.532,3.632l-.036-.036a2.566,2.566,0,0,1,0-3.607,2.421,2.421,0,0,1,1.786-.759Zm3.076,2.555a3.083,3.083,0,0,0-3.079-3.079,3.019,3.019,0,0,0-2.117.834,2.936,2.936,0,0,0-.962,2.245,3.079,3.079,0,0,0,6.159,0v0Zm-2.545-.645a.47.47,0,0,1-.175.41.822.822,0,0,1-.488.128h-.356v-1h.217a1.485,1.485,0,0,1,.52.071.4.4,0,0,1,.281.392Zm-1.012,2.352v-1.2h.385a1,1,0,0,1,.3.053.413.413,0,0,1,.249.249,1.6,1.6,0,0,1,.057.417,2.538,2.538,0,0,0,.061.47h.859l-.032-.1a.458.458,0,0,1-.025-.1.718.718,0,0,1,0-.1v-.3a.913.913,0,0,0-.3-.759,1.18,1.18,0,0,0-.488-.193,1.117,1.117,0,0,0,.592-.232.756.756,0,0,0,.242-.624.859.859,0,0,0-.456-.816,1.648,1.648,0,0,0-.674-.175h-1.647v3.407h.877Z" transform="translate(0 -3.397)"/></g></g></svg>