<svg xmlns="http://www.w3.org/2000/svg" xmlns:xlink="http://www.w3.org/1999/xlink" width="214" height="124" viewBox="0 0 214 124"><defs><clipPath id="a"><rect width="214" height="124" transform="translate(1107 483)"/></clipPath></defs><g transform="translate(-1107 -483)" clip-path="url(#a)"><path d="M25.4,25.522c0,3.137,3.242,3.137,3.242,3.137a3.106,3.106,0,0,0,3.242-3.137V7.534H28.015V1.678H40.983V25.94c-.1,2.719,2.092,2.719,2.092,2.719,2.51,0,3.66-2.719,3.66-2.719a16.837,16.837,0,0,0,1.673-7.53A35.839,35.839,0,0,0,46.735,7.534H43.493V1.678H54.16c2.3,5.647,2.51,15.373,2.51,15.373C56.774,29.914,50.5,34.1,50.5,34.1c-3.033,2.719-7.425,2.3-7.425,2.3a9.118,9.118,0,0,1-7.216-3.974A10.1,10.1,0,0,1,28.015,36.4C16.3,36.4,16.3,25.313,16.3,25.313V7.534H12.433V1.678H25.4ZM64.722,4.292c-5.438,0-5.438,4.183-5.438,4.183,0,4.183,5.438,4.183,5.438,4.183,5.438,0,5.438-4.183,5.438-4.183C70.056,4.292,64.722,4.292,64.722,4.292Zm18.3,13.072s-.418.314-.418-.732V9.1a6.407,6.407,0,0,1,.627-2.824s.627-1.15,1.569-1.15a1.377,1.377,0,0,1,1.15.941,5.522,5.522,0,0,1,.418,1.987,9.5,9.5,0,0,1-.418,2.719,28.021,28.021,0,0,1-2.614,6.275C83.442,16.947,83.233,17.26,83.024,17.365Zm11.817,7.948s.523-1.255,1.15-3.033c0,0,.209-.523.314-.523,0,0,.209-.1.314.418a16.236,16.236,0,0,0,.837,1.464s.732,1.255,1.046,1.987a4.126,4.126,0,0,1,.418,1.464,3.267,3.267,0,0,1-.627,1.778,2.279,2.279,0,0,1-1.778.941,2.582,2.582,0,0,1-1.569-.523A2.223,2.223,0,0,1,94,28.241a1.287,1.287,0,0,1-.209-.523A.817.817,0,0,1,94,27.2,12.911,12.911,0,0,0,94.841,25.313Zm-36.5-7.948c1.778,0,1.673,1.15,1.673,1.15V30.751a5.674,5.674,0,0,0,1.778,3.869c1.569,1.569,4.5,1.569,4.5,1.569a7.785,7.785,0,0,0,5.124-1.673,15.4,15.4,0,0,0,3.137-2.824c.1-.209.418-.209.418-.209a.387.387,0,0,1,.314.209,6.431,6.431,0,0,0,1.882,2.824,7.751,7.751,0,0,0,4.706,1.673,10.1,10.1,0,0,0,5.438-1.569,16.156,16.156,0,0,0,3.242-2.614.648.648,0,0,1,.418-.209.453.453,0,0,1,.418.209,14.209,14.209,0,0,0,3.869,3.033,10.364,10.364,0,0,0,4.6,1.255,8.117,8.117,0,0,0,5.856-3.033,8.6,8.6,0,0,0,2.2-5.229,11.163,11.163,0,0,0-1.673-5.543c-.627-1.15-2.824-4.288-2.824-4.288a8.879,8.879,0,0,1-1.778-3.347c-.209-.837-.314-1.569-.314-1.569H93.586A25.314,25.314,0,0,1,91.7,22.071,15.022,15.022,0,0,1,88.357,27.4a5.416,5.416,0,0,1-3.347,1.673,1.864,1.864,0,0,1-1.987-1.987A3.561,3.561,0,0,1,83.86,25c1.046-1.464,2.2-3.242,2.2-3.242,1.464-2.3,2.824-4.706,2.824-4.706,3.033-5.334,2.51-8.994,2.51-8.994C91.39.109,83.233.423,83.233.423c-8.262,0-8.471,6.066-8.471,6.066V23.221a8.062,8.062,0,0,1-1.569,3.765,4.108,4.108,0,0,1-2.824,1.987c-1.464,0-1.464-1.569-1.464-1.569V13.391H58.343Zm61.7,12.759a2.107,2.107,0,0,1-1.987-1.046,12.374,12.374,0,0,1-.732-4.6,12.374,12.374,0,0,1,.732-4.6,2.107,2.107,0,0,1,1.987-1.046h.1a2.107,2.107,0,0,1,1.987,1.046s.627,1.15.732,4.6a12.374,12.374,0,0,1-.732,4.6A2.322,2.322,0,0,1,120.045,30.124Zm-11.608-5.647a11.624,11.624,0,0,0,3.765,8.68c2.928,2.928,8.053,2.928,8.053,2.928a12.061,12.061,0,0,0,8.262-3.347c3.242-2.928,3.137-7.948,3.137-7.948a10.329,10.329,0,0,0-.209-1.987,1.051,1.051,0,0,1,.209-1.046,3,3,0,0,1,1.464-.837c1.046,0,1.046,1.255,1.046,1.255v13.6h8.785V22.489c0-2.092,2.614-2.2,2.614-2.2,2.3,0,2.3,1.882,2.3,1.882V30.96a4.342,4.342,0,0,0,4.288,4.706h7.111V31.9H157.9a1.538,1.538,0,0,1-1.36-1.569V17.992a6.156,6.156,0,0,0-2.2-4.183c-1.255-1.255-3.869-1.36-3.869-1.36a9.1,9.1,0,0,0-5.02,1.569,25.884,25.884,0,0,0-2.405,2.092c-.523.523-.837,0-.837,0a8.662,8.662,0,0,0-1.987-2.51,5.343,5.343,0,0,0-3.137-1.046,8.473,8.473,0,0,0-4.6,1.778,22.585,22.585,0,0,0-2.719,2.614.435.435,0,0,1-.627,0,12.522,12.522,0,0,0-1.255-1.464c-2.719-2.824-7.843-2.928-7.843-2.928a12.23,12.23,0,0,0-8.262,3.242C108.646,19.038,108.436,24.476,108.436,24.476Zm54.695,9.308c.314,0,.627,0,.627-.418,0-.314-.314-.418-.627-.418h-.523v.837Zm-.418,1.569h-.418V32.633h1.046c.627,0,.941.209.941.732a.661.661,0,0,1-.732.732l.732,1.15h-.418l-.732-1.15h-.418Zm.418.941a2.343,2.343,0,0,1-2.405-2.3,2.282,2.282,0,0,1,2.405-2.3,2.255,2.255,0,0,1,2.3,2.3A2.2,2.2,0,0,1,163.131,36.294Zm-1.882-2.3a1.812,1.812,0,0,0,1.882,1.882,1.882,1.882,0,0,0,0-3.765A1.812,1.812,0,0,0,161.249,33.993Z" transform="translate(1125.064 526.579)"/></g></svg>